<svg width="134" height="24" xmlns="http://www.w3.org/2000/svg"><g fill="none" fill-rule="evenodd"><g fill-rule="nonzero"><path fill="#FDD14A" d="M26.375 15.158L17.75 0h-8.5l8.625 15.158z"/><path fill="#5179BD" d="M10.625 16.421L6.375 24H22.75L27 16.421z"/><path fill="#2DB672" d="M8.125 1.895L0 16.42 4.25 24 12.5 9.474z"/></g><path d="M109.309 20.615c-2.792 0-5.055-2.27-5.055-5.072 0-2.8 2.263-5.069 5.055-5.069 2.79 0 5.053 2.27 5.053 5.07 0 2.801-2.262 5.07-5.053 5.07m-14.886 0a5.064 5.064 0 01-5.056-5.07c0-2.8 2.265-5.07 5.056-5.07s5.052 2.27 5.052 5.07c0 2.801-2.26 5.07-5.052 5.07M109.31 7.09a8.417 8.417 0 00-7.442 4.491 8.417 8.417 0 00-7.444-4.491 8.382 8.382 0 00-5.056 1.69V1.658A1.685 1.685 0 0087.682 0c-.92 0-1.66.737-1.682 1.657v14.027h.002C86.076 20.29 89.816 24 94.423 24a8.42 8.42 0 007.444-4.491A8.42 8.42 0 00109.309 24c4.651 0 8.424-3.785 8.424-8.457 0-4.67-3.773-8.453-8.424-8.453m23.475 13.982l-4.568-5.6 4.574-5.61c.578-.74.412-1.774-.386-2.323-.8-.554-1.92-.412-2.54.306v-.001l-3.934 4.82-3.931-4.82c-.612-.717-1.74-.86-2.537-.305-.797.55-.964 1.582-.383 2.322h-.001l4.565 5.611-4.565 5.6h.001c-.58.742-.414 1.773.383 2.324.796.552 1.925.411 2.537-.308l3.931-4.813 3.93 4.813c.618.72 1.74.86 2.538.308.799-.551.965-1.582.386-2.324" fill="#355B99"/><g fill-rule="nonzero"><path d="M60.715 16.222l7.73-7.406C66.838 2.543 60.461-1.238 54.201.37a11.703 11.703 0 00-6.869 4.912c.12-.003 13.382 10.94 13.382 10.94z" fill="#0364B8"/><path d="M52.332 6.724a9.397 9.397 0 00-4.936-1.39l-.12.002c-5.187.064-9.34 4.292-9.275 9.444A9.285 9.285 0 0039.688 20l11.623-1.446 8.911-7.136-7.89-4.694z" fill="#0078D4"/><path d="M68.45 8.908a7.664 7.664 0 00-3.534.597h-.002l-4.692 1.952 5.173 6.32L74.643 20c1.995-3.664.61-8.234-3.095-10.208a7.683 7.683 0 00-3.099-.884z" fill="#1490DF"/><path d="M39.778 19.975A9.35 9.35 0 0047.465 24h20.499a7.61 7.61 0 006.703-4.012l-14.41-8.655-20.48 8.642z" fill="#28A8EA"/></g></g></svg>