<svg width="560" height="344" viewBox="0 0 560 344" fill="none" xmlns="http://www.w3.org/2000/svg">
<g clip-path="url(#clip0_36267_31136)">
<path d="M646.018 -107H-95.0177C-110.472 -107 -123 -94.4645 -123 -79.0012V404.001C-123 419.464 -110.472 432 -95.0177 432H646.018C661.472 432 674 419.464 674 404.001V-79.0012C674 -94.4645 661.472 -107 646.018 -107Z" fill="white"/>
<path d="M76.6093 35.9264C141.329 -15.7938 225.089 2.30546 228.58 3.12731C281.502 15.4363 279.131 43.0428 336.85 63.7571C421.077 93.9786 465.337 49.2627 513.648 83.6308C551.393 110.49 567.223 168.318 556.359 211.82C536.273 292.324 421.114 339.075 333.882 328.111C250.57 317.633 228.617 259.002 136.233 260.533C76.4973 261.486 56.094 286.459 32.9279 270.47C-11.5376 239.744 -4.33203 100.684 76.6093 35.9264Z" fill="#DBF2FF"/>
<path d="M454.473 52.606H109.65C99.7532 52.606 91.7299 60.634 91.7299 70.5371V292.118C91.7299 302.021 99.7532 310.049 109.65 310.049H454.473C464.37 310.049 472.393 302.021 472.393 292.118V70.5371C472.393 60.634 464.37 52.606 454.473 52.606Z" fill="white"/>
<path d="M457.721 53.4094H108.848C99.7568 53.0545 92.2525 59.2744 92.5326 69.7716V75.3751L471.684 75.1883V68.707C471.684 60.6379 465.281 53.4094 457.721 53.4094Z" fill="#E6E6E6"/>
<path d="M252.735 190.77H127.291C124.889 190.77 122.942 192.718 122.942 195.122V233.954C122.942 236.357 124.889 238.306 127.291 238.306H252.735C255.137 238.306 257.085 236.357 257.085 233.954V195.122C257.085 192.718 255.137 190.77 252.735 190.77Z" fill="#0362B0"/>
<path d="M162.759 215.22C162.759 217.772 162.002 220.268 160.585 222.39C159.168 224.513 157.153 226.167 154.796 227.144C152.439 228.121 149.845 228.376 147.343 227.878C144.841 227.38 142.543 226.151 140.739 224.346C138.935 222.541 137.706 220.241 137.209 217.738C136.711 215.234 136.966 212.639 137.943 210.281C138.919 207.922 140.572 205.906 142.693 204.488C144.815 203.07 147.309 202.313 149.86 202.313C153.281 202.313 156.562 203.673 158.981 206.093C161.4 208.514 162.759 211.797 162.759 215.22Z" fill="white"/>
<path d="M173.605 216.583H241.479" stroke="white" stroke-miterlimit="10"/>
<path d="M173.605 207.786H206.123" stroke="white" stroke-miterlimit="10"/>
<path d="M173.605 224.727H241.479" stroke="white" stroke-miterlimit="10"/>
<path d="M451.15 103.542V97.0607C451.15 95.0792 450.363 93.1788 448.963 91.7777C447.563 90.3765 445.663 89.5894 443.683 89.5894H302.502C300.522 89.5894 298.623 90.3765 297.222 91.7777C295.822 93.1788 295.035 95.0792 295.035 97.0607V160.38L451.15 103.542Z" fill="#82C7FF"/>
<path d="M350.709 90.8719L324.256 101.448L346.649 157.524L373.102 146.948L350.709 90.8719Z" fill="#82C7FF"/>
<path d="M441.35 89.6641H304.873C299.481 89.6641 295.11 94.0377 295.11 99.4328V261.654C295.11 267.049 299.481 271.423 304.873 271.423H441.35C446.742 271.423 451.113 267.049 451.113 261.654V99.4328C451.113 94.0377 446.742 89.6641 441.35 89.6641Z" stroke="#B3B3B3" stroke-miterlimit="10"/>
<path d="M341.01 111.384L314.557 121.96L336.95 178.036L363.403 167.46L341.01 111.384Z" fill="#82C7FF"/>
<path d="M331.961 132.711L305.508 143.287L316.078 169.755L342.531 159.179L331.961 132.711Z" fill="#82C7FF"/>
<path d="M433.355 97.7376L406.902 108.313L421.946 145.987L448.399 135.411L433.355 97.7376Z" fill="#82C7FF"/>
<path d="M257.085 89.6641H123.39V109.09H257.085V89.6641Z" fill="#E6E6E6"/>
<path d="M257.085 250.521H123.39V258.011H257.085V250.521Z" fill="#E6E6E6"/>
<path d="M257.085 264.493H123.39V271.983H257.085V264.493Z" fill="#E6E6E6"/>
<path d="M252.735 131.018H127.291C124.889 131.018 122.942 132.966 122.942 135.37V174.202C122.942 176.605 124.889 178.554 127.291 178.554H252.735C255.137 178.554 257.085 176.605 257.085 174.202V135.37C257.085 132.966 255.137 131.018 252.735 131.018Z" stroke="#B3B3B3" stroke-miterlimit="10" stroke-dasharray="6.81 6.81"/>
<path d="M438.12 68.5948C439.831 68.5948 441.219 67.2066 441.219 65.4941C441.219 63.7817 439.831 62.3936 438.12 62.3936C436.409 62.3936 435.021 63.7817 435.021 65.4941C435.021 67.2066 436.409 68.5948 438.12 68.5948Z" fill="#FFA320"/>
<path d="M448.48 68.5948C450.192 68.5948 451.579 67.2066 451.579 65.4941C451.579 63.7817 450.192 62.3936 448.48 62.3936C446.769 62.3936 445.382 63.7817 445.382 65.4941C445.382 67.2066 446.769 68.5948 448.48 68.5948Z" fill="#EB4334"/>
<path d="M458.86 68.5948C460.571 68.5948 461.958 67.2066 461.958 65.4941C461.958 63.7817 460.571 62.3936 458.86 62.3936C457.148 62.3936 455.761 63.7817 455.761 65.4941C455.761 67.2066 457.148 68.5948 458.86 68.5948Z" fill="#0362B0"/>
<path d="M421.282 70.6121H107.84C106.221 70.6121 104.668 69.9686 103.523 68.8232C102.379 67.6777 101.736 66.1242 101.736 64.5043V64.5043C101.74 62.8859 102.385 61.3352 103.529 60.1909C104.673 59.0465 106.222 58.4014 107.84 58.3965H421.282C422.901 58.3965 424.454 59.04 425.598 60.1854C426.743 61.3309 427.386 62.8844 427.386 64.5043V64.5043C427.389 65.3071 427.233 66.1024 426.927 66.8446C426.621 67.5867 426.171 68.261 425.604 68.8287C425.037 69.3963 424.363 69.8461 423.621 70.1522C422.879 70.4583 422.085 70.6146 421.282 70.6121V70.6121Z" fill="white"/>
<path d="M454.473 52.606H109.65C99.7532 52.606 91.7299 60.634 91.7299 70.5371V292.118C91.7299 302.021 99.7532 310.049 109.65 310.049H454.473C464.37 310.049 472.393 302.021 472.393 292.118V70.5371C472.393 60.634 464.37 52.606 454.473 52.606Z" stroke="#B3B3B3" stroke-miterlimit="10"/>
<path d="M202.52 131.018H77.076C74.6739 131.018 72.7266 132.966 72.7266 135.37V174.202C72.7266 176.605 74.6739 178.554 77.076 178.554H202.52C204.922 178.554 206.87 176.605 206.87 174.202V135.37C206.87 132.966 204.922 131.018 202.52 131.018Z" fill="#0362B0"/>
<path d="M112.525 155.468C112.525 158.021 111.768 160.517 110.35 162.64C108.932 164.763 106.916 166.417 104.558 167.394C102.2 168.37 99.6054 168.625 97.1027 168.125C94.6 167.626 92.3017 166.394 90.4984 164.588C88.6952 162.781 87.4682 160.479 86.9726 157.974C86.477 155.469 86.7351 152.874 87.7142 150.516C88.6934 148.158 90.3496 146.143 92.4733 144.727C94.597 143.311 97.0928 142.557 99.6447 142.561C101.338 142.561 103.014 142.895 104.578 143.544C106.142 144.193 107.563 145.144 108.759 146.342C109.956 147.541 110.904 148.964 111.55 150.53C112.196 152.096 112.528 153.774 112.525 155.468V155.468Z" fill="white"/>
<path d="M123.39 156.831H191.264" stroke="white" stroke-miterlimit="10"/>
<path d="M123.39 148.034H155.908" stroke="white" stroke-miterlimit="10"/>
<path d="M123.39 164.975H191.264" stroke="white" stroke-miterlimit="10"/>
<path d="M58.5021 329.4C62.8078 330.607 67.0041 332.175 71.0465 334.088C74.3506 335.956 74.78 337.45 70.6731 337.469C65.611 337.563 60.5479 337.333 55.5153 336.778C52.9952 336.386 54.0406 330.465 54.47 329.456L58.5021 329.4Z" fill="#02457B"/>
<path d="M57.774 329.4L58.6327 326.131L54.2646 326.636L54.4699 329.456L57.774 329.4Z" fill="#FFC69A"/>
<path d="M73.5852 336.685C68.0496 336.6 62.5224 336.22 57.0273 335.545C55.867 335.283 54.7896 334.738 53.8912 333.958C53.9846 335.377 54.3952 336.61 55.5153 336.778C60.5479 337.333 65.6109 337.563 70.6731 337.469C72.4465 337.45 73.3612 337.17 73.5852 336.685Z" fill="#0362B0"/>
<path d="M38.6027 215.238C38.6027 215.238 37.5574 210.289 46.3683 203.695C51.1436 200.207 55.6834 196.407 59.9581 192.32L68.3024 163.369L71.1958 164.732C71.1958 164.732 71.3825 187.464 70.1131 194.207C68.8437 200.949 40.8801 230.2 38.6027 215.238Z" fill="#DAA184"/>
<path d="M61.4888 185.185L70.9718 186.548L70.6171 194.486C70.6171 194.486 56.766 216.135 47.7311 219.553C38.6961 222.971 33.2826 217.685 35.504 213.949C37.7254 210.214 58.4461 192.581 58.4461 192.581L61.4888 185.185Z" fill="#FFA320"/>
<path d="M71.2029 188.652L71.9421 183.966L60.7128 182.192L59.9735 186.879L71.2029 188.652Z" fill="#02457B"/>
<path d="M71.1772 171.325C71.1772 171.325 65.689 157.914 67.2944 156.383C67.2944 156.383 72.4279 165.031 73.9773 168.673" fill="#DAA184"/>
<path d="M6.53232 321.182C9.57339 324.457 12.3276 327.988 14.7646 331.735C16.6313 335.041 16.1646 336.554 12.6739 334.425C8.30505 331.863 4.10839 329.017 0.110766 325.907C-1.75596 324.245 2.16417 319.743 3.0602 319.108L6.53232 321.182Z" fill="#02457B"/>
<path d="M5.89762 320.789L8.34303 318.455L4.34823 316.605L3.06018 319.108L5.89762 320.789Z" fill="#FFC69A"/>
<path d="M55.7393 249.027L38.4534 239.389C38.4534 239.389 41.3655 275.849 52.3978 291.95C52.3978 291.95 52.4912 321.275 54.4139 327.607L58.4461 327.513C58.4461 327.513 64.6249 294.135 64.0462 288.831C62.9822 279.043 61.9741 264.96 55.7393 249.027Z" fill="#0362B0"/>
<path d="M37.4267 181.897C37.4267 181.897 30.5198 185.297 29.9598 198.017C29.3998 210.737 27.2157 211.222 27.2157 211.222C30.281 212.803 33.6795 213.628 37.128 213.628C40.5765 213.628 43.9751 212.803 47.0404 211.222L37.4267 181.897Z" fill="#411809"/>
<path d="M45.771 183.093C48.5088 185.914 50.0361 189.695 50.0271 193.627C50.1764 197.867 43.6989 198.428 40.0215 196.373C38.3821 195.462 37.0421 194.095 36.1641 192.437C35.286 190.78 34.9075 188.903 35.0746 187.034C35.8773 182.495 42.0748 179.693 45.771 183.093Z" fill="#FFC69A"/>
<path d="M42.0002 188.267L35.1866 189.331L37.7441 205.806C37.9189 206.939 38.5359 207.957 39.4597 208.636C40.3835 209.316 41.5387 209.601 42.6722 209.429V209.429C43.2716 209.334 43.8444 209.115 44.3536 208.785C44.8627 208.454 45.2968 208.021 45.6277 207.512C45.9585 207.003 46.1788 206.43 46.2743 205.83C46.3697 205.231 46.3382 204.618 46.1817 204.031L42.0002 188.267Z" fill="#FFC69A"/>
<path d="M42.7095 182.289C42.7095 182.289 44.4082 191.498 35.2426 193.758C28.8024 195.346 28.9704 179.301 38.0614 178.965C50.8485 178.498 47.9737 185.857 47.9737 185.857C47.9737 185.857 44.8376 181.299 42.7095 182.289Z" fill="#411809"/>
<path d="M44.8189 198.857L39.6481 196.579L44.4642 197.456L44.8189 198.857Z" fill="#DAA184"/>
<path d="M52.4912 241.481L31.4345 247.085C31.4345 247.085 25.517 255.117 27.701 286.403C27.701 286.403 9.33242 301.85 4.19891 316.904L7.59636 319.127C7.59636 319.127 33.4692 296.003 37.1093 292.081C41.4775 287.355 49.8964 271.684 52.4912 241.481Z" fill="#0362B0"/>
<path d="M50.2511 205.637C50.0472 204.711 49.6114 203.851 48.9845 203.138C48.3576 202.426 47.5602 201.885 46.667 201.566C42.7655 200.127 33.2826 200.053 33.1892 212.866C33.0212 238.082 31.4345 247.066 31.4345 247.066C31.4345 247.066 36.4933 251.474 55.702 249.027L53.1632 233.113L55.4033 228.219C56.8552 224.339 56.7143 220.042 55.0113 216.265L50.2511 205.637Z" fill="#02457B"/>
<path d="M42.4296 216.265C42.4296 216.265 41.3842 211.297 50.2138 204.703C54.9812 201.213 59.5147 197.413 63.7849 193.328L72.1292 164.377L75.0413 165.759C75.0413 165.759 75.2093 188.472 73.9399 195.215C72.6705 201.958 44.7256 231.208 42.4296 216.265Z" fill="#FFC69A"/>
<path d="M71.4758 167.086C71.4758 167.086 69.6091 158.923 71.1585 157.373C71.1585 157.373 72.7266 160.772 74.2759 164.415C74.7613 165.554 79.6894 169.122 77.1507 168.748C75.2105 168.376 73.3103 167.819 71.4758 167.086V167.086Z" fill="#FFC69A"/>
<path d="M47.0403 184.662C48.086 185.783 49.3589 186.668 50.7738 187.258C50.5397 188.176 49.9658 188.97 49.1684 189.481L47.0403 184.662Z" fill="#FFC69A"/>
<path d="M15.5487 335.284C10.8841 332.31 6.3791 329.093 2.0522 325.646C1.18354 324.819 0.540876 323.784 0.185472 322.639C-0.486551 323.909 -0.785223 325.179 0.0734728 325.907C4.0711 329.018 8.26774 331.863 12.6366 334.425C14.1859 335.34 15.1193 335.583 15.5487 335.284Z" fill="#0362B0"/>
<path d="M3.37756 319.295C3.37756 319.295 7.96972 327.252 10.0045 325.197L6.60701 320.098L3.37756 319.295Z" fill="#FFC69A"/>
<path d="M54.9553 329.325C54.9553 329.325 63.0009 333.846 63.5796 331.006L57.9794 328.634L54.9553 329.325Z" fill="#FFC69A"/>
<path d="M66.025 185.54L74.6866 187.127L74.1639 197.12C74.1639 197.12 61.3022 216.49 52.2672 219.908C43.2322 223.326 37.8374 218.04 40.0401 214.304C42.2428 210.569 63.0009 192.936 63.0009 192.936L66.025 185.54Z" fill="#02457B"/>
<path d="M75.7425 189.027L76.4818 184.34L65.2525 182.567L64.5132 187.253L75.7425 189.027Z" fill="#02457B"/>
<path d="M55.7393 249.027L57.9981 255.397L43.4562 271.441L44.819 249.774C48.4727 249.8 52.1231 249.55 55.7393 249.027V249.027Z" fill="#0362B0"/>
<path d="M38.8641 284.012C35.896 287.056 34.9626 288.438 34.5519 290.231C34.1973 291.707 34.5519 291.894 34.1599 292.79C33.0399 295.2 29.8851 294.658 26.021 296.526C23.2022 297.815 21.3355 299.888 17.6394 303.997C15.7726 306.052 15.9593 306.183 12.9165 309.974C9.33242 314.495 7.16702 316.773 6.14032 318.174L7.59637 319.127C7.59637 319.127 33.4692 296.003 37.1093 292.081C40.3443 288.117 42.8704 283.624 44.5763 278.8C44.0349 278.688 42.3362 280.481 38.8641 284.012Z" fill="#4753DE"/>
<path d="M52.9019 327.794H59.6781V325.123H52.9019V327.794Z" fill="#0362B0"/>
<path d="M2.31888 317.04L8.18726 320.43L9.52196 318.117L3.65358 314.726L2.31888 317.04Z" fill="#0362B0"/>
<path d="M29.6798 192.17L45.1923 179.899C44.4055 178.827 43.4111 177.926 42.2686 177.248C41.126 176.569 39.8586 176.128 38.542 175.951C37.2253 175.773 35.8864 175.863 34.6051 176.214C33.3238 176.565 32.1264 177.171 31.0842 177.996C30.042 178.82 29.1765 179.846 28.5392 181.013C27.9019 182.179 27.5059 183.462 27.3748 184.785C27.2437 186.107 27.3803 187.443 27.7763 188.712C28.1723 189.981 28.8197 191.157 29.6798 192.17" fill="#02457B"/>
<path d="M34.6453 176.537C33.0902 176.99 31.6706 177.82 30.5116 178.952C29.3526 180.085 28.4897 181.485 27.9991 183.03C27.5085 184.574 27.4052 186.216 27.6983 187.81C27.9914 189.404 28.6719 190.902 29.6798 192.17L33.7119 188.976C32.4176 187.11 31.804 184.856 31.974 182.591C32.1439 180.326 33.0871 178.188 34.6453 176.537V176.537Z" fill="#FFA320"/>
<path d="M47.0534 177.06L28.6638 190.786L30.3491 193.046L48.7387 179.321L47.0534 177.06Z" fill="#FFA320"/>
<path d="M55.4033 228.22C56.6262 224.938 56.7182 221.342 55.6646 218.002C50.9718 219.815 45.8094 220.012 40.9921 218.563C37.8187 207.169 42.8589 202.089 44.0909 200.987C42.7461 200.839 41.3856 200.94 40.0775 201.285C38.0987 204.143 36.0453 209.261 37.7627 217.293C36.0917 216.505 34.5396 215.487 33.1519 214.267V214.267C32.9279 238.399 30.7998 248.168 30.7998 248.168C30.7998 248.168 36.4 251.474 55.702 249.027L53.1632 233.113L55.4033 228.22Z" fill="#0362B0"/>
<path d="M64.0462 288.756C62.9822 278.968 61.9742 264.885 55.7393 248.952L53.2006 233.039L55.4406 228.145C56.6635 224.863 56.7555 221.267 55.702 217.928C54.7439 218.275 53.7651 218.562 52.7712 218.787C53.2823 222.327 52.7841 225.94 51.3338 229.209C50.3452 230.949 49.6573 232.844 49.2991 234.813C48.9372 237.237 49.1092 239.71 49.8031 242.06C51.9685 250.503 54.1339 256.573 54.1339 256.573C57.1394 265.053 58.6327 269.274 58.7074 271.329C59.0061 279.043 55.478 283.377 58.4461 287.374C59.8834 289.242 61.8808 289.877 62.0115 291.95C62.1422 294.023 60.4061 294.584 59.2114 297.03C57.5873 300.392 59.0434 302.821 59.2114 307.733C59.3794 312.645 58.0167 313.337 57.438 318.679C57.1583 321.642 57.1583 324.625 57.438 327.588H58.5021C58.5021 327.588 64.6249 294.135 64.0462 288.756Z" fill="#4753DE"/>
<path d="M167.258 333.304H134.011L144.838 278.464H156.431L167.258 333.304Z" fill="#EB4334"/>
<path d="M173.605 330.577H126.134V336.255H173.605V330.577Z" fill="#EB4334"/>
<path d="M167.258 333.304H134.011L144.838 278.464H156.431L167.258 333.304Z" fill="#EB4334"/>
<path d="M140.246 301.7H161.023L159.324 293.108H141.945L140.246 301.7Z" fill="#FCFCFC"/>
<path d="M136.27 321.798H164.98L163.3 313.206H137.969L136.27 321.798Z" fill="#FCFCFC"/>
<path d="M524.046 325.141C524.046 325.141 510.979 332.314 506.741 332.37C502.504 332.426 505.621 334.238 510.288 334.686C515.468 334.738 520.638 334.225 525.707 333.154C526.043 333.154 527.07 332.034 527.07 332.034L527.368 333.042C528.112 333.048 528.855 332.992 529.59 332.874C529.505 330.269 529.199 327.676 528.675 325.123L524.046 325.141Z" fill="#0362B0"/>
<path d="M524.046 325.141L524.214 321.667L528.843 321.891L528.675 325.122L524.046 325.141Z" fill="#FFB780"/>
<path d="M523.952 220.748L539.371 223.382C539.371 223.382 534.686 264.623 529.814 280.687C529.814 280.687 533.006 308.312 529.59 323.255L523.486 323.535C523.486 323.535 518.277 288.214 516.859 282.256C515.085 275.102 517.195 257.806 523.952 220.748Z" fill="#0362B0"/>
<path d="M522.067 320.061L522.534 324.058L530.168 323.89L530.579 320.285L522.067 320.061Z" fill="#0362B0"/>
<path d="M542.246 326.561C542.246 326.561 529.179 333.733 524.923 333.771C520.667 333.808 523.822 335.638 528.488 336.105C533.669 336.142 538.838 335.622 543.908 334.555C544.225 334.555 545.27 333.434 545.27 333.434L545.569 334.462C546.313 334.463 547.057 334.4 547.79 334.275C547.705 331.67 547.399 329.077 546.876 326.523L542.246 326.561Z" fill="#0362B0"/>
<path d="M542.246 326.561L542.414 323.068L547.044 323.311L546.876 326.523L542.246 326.561Z" fill="#FFB780"/>
<path d="M531.419 223.177L547.772 235.915C547.772 235.915 553.148 243.872 544.934 281.136C549.246 295.205 550.123 310.103 547.492 324.581L541.462 325.497C541.462 325.497 534.145 287.505 532.129 281.715C529.665 274.766 527.686 255.472 531.419 223.177Z" fill="#0362B0"/>
<path d="M539.875 321.798L540.659 325.758L548.276 324.955L548.388 321.35L539.875 321.798Z" fill="#0362B0"/>
<path d="M530.187 235.673L521.301 235.43L519.883 243.966L532.745 266.025L530.187 235.673Z" fill="#0362B0"/>
<path d="M539.633 189.761C539.633 189.761 533.566 184.288 526.192 195.365C522.507 201.053 518.421 206.471 513.965 211.577L485.964 196.093L483.034 202.07C483.034 202.07 508.253 230.853 516.28 228.986C524.307 227.118 557.759 191.629 539.633 189.761Z" fill="#02457B"/>
<path d="M483.146 202.182C483.146 202.182 469.556 191.703 476.033 193.552C478.964 194.393 481.634 196.616 482.586 195.7C483.538 194.785 481.447 193.963 481.074 191.965C480.7 189.966 487.122 196.933 487.122 196.933L483.146 202.182Z" fill="#FFB780"/>
<g opacity="0.1">
<path d="M492.629 205.04L504.277 215.929L491.098 209.766L492.629 205.04Z" fill="black"/>
</g>
<g opacity="0.1">
<path d="M513.051 222.093L527.088 209.373V212.735L520.069 223.979L513.051 222.093Z" fill="black"/>
</g>
<path d="M481.41 201.976L484.303 204.162L489.661 197.606L486.767 195.42L481.41 201.976Z" fill="#02457B"/>
<path d="M533.79 185.297C538.475 183.579 551.767 182.458 553.82 193.814C555.687 204.181 551.729 213.202 550.18 220.562C549.387 224.887 548.82 229.252 548.481 233.636C548.481 233.636 539.782 243.928 523.598 239.24L524.643 221.626L525.744 211.876C524.848 200.8 525.11 199.436 527.088 193.87C527.91 191.536 530.934 186.53 533.137 185.428L533.79 185.297Z" fill="#02457B"/>
<path d="M526.64 203.396L525.259 202.369C525.259 195.271 528.171 185.558 539.558 184.625H539.913C525.259 187.464 526.64 203.228 526.64 203.396Z" fill="#0362B0"/>
<path d="M537.972 166.899H546.39L545.364 184.475C545.374 184.748 545.324 185.02 545.218 185.272C545.111 185.524 544.951 185.749 544.748 185.932C543.867 186.647 542.825 187.136 541.713 187.357C540.6 187.579 539.451 187.525 538.364 187.202C535.526 186.53 537.58 185.222 538.009 182.028L537.972 166.899Z" fill="#FFB780"/>
<path d="M536.907 162.939C533.613 166.957 532.025 172.107 532.483 177.284C532.651 183.242 540.585 183.317 545.55 180.179C547.68 178.891 549.352 176.967 550.333 174.679C551.314 172.391 551.554 169.853 551.02 167.421C549.657 161.127 541.313 157.391 536.907 162.939Z" fill="#FFB780"/>
<g opacity="0.1">
<path d="M537.598 183.728L542.396 181.785L537.971 182.233L537.598 183.728Z" fill="black"/>
</g>
<path d="M534.201 168.599C532.91 169.707 531.751 170.96 530.747 172.334C531.213 173.265 532.013 173.986 532.987 174.352L534.201 168.599Z" fill="#FFB780"/>
<path d="M551.953 166.506C551.636 158.381 537.523 158.475 535.843 159.801C535.406 160.087 535.036 160.466 534.76 160.911C534.484 161.356 534.309 161.856 534.246 162.376C534.184 162.895 534.236 163.422 534.399 163.92C534.562 164.417 534.832 164.873 535.19 165.255L535.899 164.732L536.291 164.564C538.363 164.863 545.625 166.432 543.404 172.035C542.844 173.492 544.094 174.146 545.569 174.221C545.717 176.045 545.66 177.881 545.401 179.693C545.233 181.075 552.495 179.693 551.953 166.506Z" fill="#411809"/>
<path d="M463.299 187.985L464.536 186.586L493.263 212.025L491.246 214.305L463.386 189.634C463.271 189.532 463.178 189.408 463.111 189.27C463.044 189.132 463.006 188.981 462.997 188.828C462.989 188.674 463.012 188.521 463.064 188.376C463.115 188.231 463.195 188.099 463.299 187.985Z" fill="#0362B0"/>
<path d="M491.994 203.807C492.394 204.172 492.714 204.616 492.932 205.111C493.151 205.607 493.264 206.142 493.263 206.684V212.026L464.553 186.604L472.823 187.893C473.79 188.044 474.696 188.465 475.436 189.107L491.994 203.807Z" fill="white"/>
<path d="M540.753 175.379C541.406 176.369 543.068 176.406 544.486 175.379C545.905 174.352 546.502 172.895 545.849 171.905C545.196 170.915 543.534 170.896 542.116 171.905C540.697 172.913 540.174 174.408 540.753 175.379Z" fill="#FFB780"/>
<path d="M548.556 238.325C548.773 232.403 549.315 226.498 550.18 220.636C550.815 217.685 551.804 214.472 552.663 211.017C543.057 209.837 533.763 206.839 525.278 202.182C525.242 205.494 525.398 208.806 525.744 212.1L523.598 221.832L520.611 239.688C529.798 242.52 539.687 242.038 548.556 238.325Z" fill="#0362B0"/>
<path d="M543.385 249.531L537.934 248.056C544.972 222.093 548.406 197.774 545.401 194.972C543.441 193.235 542.19 193.31 541.406 193.534C537.281 194.673 533.286 203.676 532.073 207.86L527.779 206.198C528.283 204.591 531.737 190.359 539.95 188.08C541.604 187.659 543.341 187.686 544.981 188.158C546.622 188.631 548.107 189.532 549.284 190.769C556.545 197.363 547.585 234.084 543.385 249.531Z" fill="#0362B0"/>
<path d="M541.929 191.629C541.929 191.629 536.329 191.629 530.43 203.471C524.531 215.313 521.357 218.414 521.357 218.414L493.189 205.992L488.316 212.343C488.316 212.343 518.352 238.1 525.446 233.748C538.55 225.642 560.129 191.237 541.929 191.629Z" fill="#02457B"/>
<path d="M488.316 212.399C488.316 212.399 481.876 212.941 480.364 209.112C479.393 206.683 475.959 201.267 479.356 203.77C481.484 205.339 484.396 208.271 485.274 207.038C486.151 205.806 481.671 205.376 482.81 203.022L490.37 207.262L488.316 212.399Z" fill="#FFB780"/>
<path d="M486.095 214.024L489.287 215.705L494.645 206.217L491.452 204.536L486.095 214.024Z" fill="#02457B"/>
<path d="M552.961 169.215L535.339 160.249C536.592 158.026 538.654 156.373 541.095 155.634C543.537 154.896 546.169 155.129 548.442 156.286C550.716 157.443 552.455 159.433 553.297 161.842C554.139 164.251 554.019 166.893 552.961 169.215" fill="#02457B"/>
<path d="M545.028 154.851C546.637 154.993 548.188 155.528 549.543 156.409C550.898 157.29 552.016 158.491 552.799 159.905C553.582 161.319 554.007 162.904 554.035 164.521C554.063 166.138 553.695 167.736 552.961 169.177L548.369 166.843C549.278 164.765 549.442 162.436 548.834 160.251C548.225 158.066 546.88 156.159 545.028 154.851Z" fill="#FFA320"/>
<path d="M532.929 157.756L531.722 160.305L552.453 170.137L553.661 167.588L532.929 157.756Z" fill="#FFA320"/>
<path d="M505.882 333.304H472.617L483.444 278.464H495.037L505.882 333.304Z" fill="#EB4334"/>
<path d="M512.211 330.577H464.74V336.255H512.211V330.577Z" fill="#EB4334"/>
<path d="M505.882 333.304H472.617L483.444 278.464H495.037L505.882 333.304Z" fill="#EB4334"/>
<path d="M478.852 301.7H499.629L497.93 293.108H480.551L478.852 301.7Z" fill="#FCFCFC"/>
<path d="M474.895 321.798H503.605L501.906 313.206H476.593L474.895 321.798Z" fill="#FCFCFC"/>
<path d="M257.141 344.436C257.476 344.442 257.802 344.329 258.062 344.117C258.321 343.905 258.498 343.608 258.559 343.278L283.742 220.412C283.814 220.034 283.735 219.642 283.522 219.321C283.309 219 282.979 218.775 282.603 218.694C282.227 218.622 281.838 218.701 281.52 218.915C281.202 219.128 280.981 219.458 280.904 219.833L255.722 342.699C255.65 343.077 255.729 343.469 255.942 343.79C256.154 344.111 256.484 344.336 256.861 344.417L257.141 344.436Z" fill="#0362B0"/>
<path d="M281.147 232.236H317.473C317.829 232.195 318.157 232.025 318.395 231.758C318.633 231.491 318.765 231.146 318.765 230.788C318.765 230.43 318.633 230.085 318.395 229.818C318.157 229.551 317.829 229.381 317.473 229.34H281.147C280.943 229.317 280.737 229.337 280.541 229.4C280.346 229.462 280.166 229.564 280.013 229.701C279.86 229.838 279.737 230.005 279.653 230.193C279.57 230.38 279.526 230.583 279.526 230.788C279.526 230.993 279.57 231.196 279.653 231.383C279.737 231.571 279.86 231.738 280.013 231.875C280.166 232.011 280.346 232.114 280.541 232.176C280.737 232.239 280.943 232.259 281.147 232.236V232.236Z" fill="#4753DE"/>
<path d="M277.544 248.037H313.871C314.06 248.04 314.248 248.004 314.424 247.933C314.599 247.862 314.759 247.756 314.893 247.622C315.027 247.488 315.132 247.328 315.204 247.152C315.275 246.977 315.311 246.789 315.308 246.599C315.31 246.409 315.275 246.22 315.204 246.043C315.133 245.866 315.027 245.705 314.894 245.57C314.76 245.434 314.601 245.327 314.425 245.253C314.249 245.18 314.061 245.142 313.871 245.142H277.544C277.158 245.142 276.788 245.296 276.514 245.569C276.241 245.842 276.088 246.213 276.088 246.599C276.088 246.789 276.126 246.978 276.199 247.154C276.273 247.329 276.38 247.489 276.516 247.623C276.651 247.756 276.812 247.862 276.988 247.933C277.165 248.004 277.354 248.04 277.544 248.037V248.037Z" fill="#4753DE"/>
<path d="M274.557 263.839H310.884C311.073 263.842 311.261 263.806 311.437 263.735C311.612 263.663 311.772 263.557 311.906 263.423C312.04 263.289 312.146 263.13 312.217 262.954C312.288 262.778 312.324 262.59 312.321 262.401C312.324 262.21 312.288 262.021 312.217 261.845C312.146 261.668 312.041 261.507 311.907 261.372C311.773 261.236 311.614 261.129 311.438 261.055C311.263 260.982 311.074 260.944 310.884 260.944H274.557C274.171 260.944 273.801 261.097 273.528 261.371C273.255 261.644 273.101 262.014 273.101 262.401C273.101 262.591 273.139 262.78 273.212 262.955C273.286 263.131 273.393 263.291 273.529 263.424C273.664 263.558 273.825 263.664 274.002 263.735C274.178 263.806 274.367 263.841 274.557 263.839V263.839Z" fill="#4753DE"/>
<path d="M271.272 279.66H307.58C307.966 279.66 308.336 279.506 308.609 279.233C308.882 278.96 309.036 278.589 309.036 278.203C309.036 277.817 308.882 277.446 308.609 277.173C308.336 276.9 307.966 276.746 307.58 276.746H271.272C270.886 276.746 270.515 276.9 270.242 277.173C269.969 277.446 269.816 277.817 269.816 278.203C269.816 278.589 269.969 278.96 270.242 279.233C270.515 279.506 270.886 279.66 271.272 279.66V279.66Z" fill="#4753DE"/>
<path d="M268.21 295.462H304.518C304.905 295.462 305.275 295.308 305.548 295.035C305.821 294.762 305.974 294.391 305.974 294.005C305.974 293.618 305.821 293.248 305.548 292.975C305.275 292.701 304.905 292.548 304.518 292.548H268.21C267.824 292.548 267.454 292.701 267.181 292.975C266.908 293.248 266.754 293.618 266.754 294.005C266.754 294.391 266.908 294.762 267.181 295.035C267.454 295.308 267.824 295.462 268.21 295.462V295.462Z" fill="#4753DE"/>
<path d="M265.093 311.263H301.401C301.787 311.263 302.157 311.11 302.43 310.837C302.704 310.563 302.857 310.193 302.857 309.806C302.857 309.616 302.819 309.427 302.746 309.252C302.672 309.076 302.565 308.917 302.429 308.783C302.294 308.649 302.133 308.544 301.957 308.472C301.78 308.401 301.591 308.366 301.401 308.368H265.093C264.903 308.366 264.714 308.401 264.537 308.472C264.361 308.544 264.2 308.649 264.065 308.783C263.929 308.917 263.822 309.076 263.748 309.252C263.675 309.427 263.637 309.616 263.637 309.806C263.637 310.193 263.79 310.563 264.063 310.837C264.336 311.11 264.707 311.263 265.093 311.263V311.263Z" fill="#4753DE"/>
<path d="M261.938 327.065H298.265C298.469 327.088 298.675 327.068 298.87 327.006C299.066 326.944 299.246 326.841 299.399 326.704C299.552 326.568 299.674 326.4 299.758 326.213C299.842 326.026 299.885 325.823 299.885 325.618C299.885 325.412 299.842 325.209 299.758 325.022C299.674 324.835 299.552 324.667 299.399 324.531C299.246 324.394 299.066 324.291 298.87 324.229C298.675 324.167 298.469 324.147 298.265 324.17H261.938C261.583 324.21 261.255 324.38 261.017 324.647C260.778 324.914 260.647 325.26 260.647 325.618C260.647 325.975 260.778 326.321 261.017 326.588C261.255 326.855 261.583 327.025 261.938 327.065V327.065Z" fill="#4753DE"/>
<path d="M296.025 344.436C296.359 344.438 296.683 344.324 296.942 344.112C297.201 343.901 297.378 343.606 297.443 343.278L322.626 220.412C322.664 220.224 322.664 220.031 322.628 219.843C322.591 219.655 322.518 219.476 322.412 219.317C322.306 219.157 322.17 219.02 322.011 218.913C321.853 218.806 321.674 218.732 321.487 218.694C321.299 218.656 321.106 218.655 320.918 218.692C320.731 218.728 320.552 218.802 320.392 218.907C320.233 219.013 320.096 219.149 319.989 219.308C319.882 219.467 319.807 219.645 319.769 219.833L294.606 342.699C294.568 342.887 294.567 343.08 294.604 343.268C294.64 343.456 294.714 343.635 294.819 343.794C294.925 343.954 295.061 344.091 295.22 344.198C295.379 344.305 295.557 344.379 295.745 344.417L296.025 344.436Z" fill="#0362B0"/>
<path d="M415.719 141.552L423.149 160.473" stroke="#0362B0" stroke-width="2" stroke-miterlimit="10" stroke-linecap="round"/>
<path d="M396.137 136.995L398.583 141.253L415.402 140.674L427.741 129.673L425.893 123.472" stroke="#0362B0" stroke-miterlimit="10" stroke-linecap="round"/>
<path d="M427.293 122.313L394.532 136.808" stroke="#0362B0" stroke-miterlimit="10" stroke-linecap="round"/>
<path d="M422.72 130.868L403.567 138.919C402.232 139.471 400.733 139.473 399.397 138.923C398.061 138.374 396.997 137.318 396.436 135.986C395.883 134.653 395.879 133.155 396.424 131.819C396.969 130.482 398.02 129.416 399.348 128.851L418.501 120.819C419.835 120.26 421.337 120.253 422.677 120.799C424.017 121.345 425.086 122.4 425.65 123.733C426.202 125.069 426.204 126.569 425.655 127.905C425.106 129.242 424.051 130.307 422.72 130.868Z" fill="#DBF2FF"/>
<path d="M402.484 136.771L421.637 128.739C422.286 128.64 422.905 128.396 423.447 128.025C423.989 127.654 424.441 127.165 424.768 126.595C425.095 126.025 425.289 125.388 425.337 124.733C425.384 124.077 425.283 123.419 425.041 122.808C424.799 122.197 424.422 121.648 423.939 121.203C423.456 120.758 422.879 120.427 422.25 120.236C421.621 120.045 420.958 119.998 420.309 120.099C419.66 120.2 419.042 120.446 418.501 120.819L399.348 128.851C398.699 128.95 398.08 129.194 397.538 129.565C396.996 129.937 396.544 130.426 396.217 130.996C395.89 131.566 395.696 132.202 395.648 132.858C395.601 133.513 395.702 134.171 395.944 134.782C396.186 135.393 396.563 135.942 397.046 136.387C397.529 136.832 398.107 137.163 398.735 137.354C399.364 137.545 400.027 137.592 400.676 137.491C401.325 137.39 401.943 137.144 402.484 136.771Z" fill="#82C7FF"/>
<path d="M398.265 312.515H373.401L368.827 278.464H402.839L398.265 312.515Z" fill="#0362B0"/>
<path d="M371.049 279.305C371.049 275.382 372.606 271.619 375.379 268.845C378.151 266.07 381.912 264.512 385.833 264.512C389.754 264.512 393.515 266.07 396.287 268.845C399.06 271.619 400.618 275.382 400.618 279.305" stroke="#0362B0" stroke-miterlimit="10"/>
<path d="M395.913 279.566C396.026 279.409 396.102 279.228 396.134 279.037C396.167 278.846 396.155 278.65 396.1 278.464H375.566C375.174 280.78 376.126 283.321 376.966 283.433C377.806 283.545 378.702 279.977 379.971 280.052C381.241 280.127 382.492 282.555 381.465 288.364C380.569 293.482 383.686 294.565 384.022 294.49C387.214 293.893 385.142 282.2 387.961 281.416C389.044 281.098 390.089 282.686 391.527 282.088C392.964 281.49 392.759 280.22 394.159 279.791C395.148 279.51 395.559 279.903 395.913 279.566Z" fill="#82C7FF"/>
<path d="M417.418 247.832L433.416 250.69L445.475 244.451C445.475 244.451 444.262 235.934 444.336 233.543C444.504 227.846 447.248 214.977 443.198 205.806C440.211 199.063 434.648 202.07 427.61 204.349L419.695 205.227C419.695 205.227 407.002 197.55 415.962 232.927C416.751 237.861 417.237 242.838 417.418 247.832Z" fill="#02457B"/>
<path d="M424.026 179.862C420.959 183.416 419.393 188.024 419.658 192.712C419.751 197.774 427.517 198.017 431.773 195.327C433.677 194.126 435.19 192.397 436.128 190.351C437.066 188.305 437.388 186.029 437.056 183.803C435.805 178.554 428.226 175.566 424.026 179.862Z" fill="#FFC69A"/>
<path d="M422.384 182.159C421.42 183.319 420.216 184.255 418.855 184.904C419.142 185.789 419.747 186.535 420.554 186.996L422.384 182.159Z" fill="#FFC69A"/>
<path d="M412.733 208.197L408.644 223.774L406.106 231.806L390.556 259.17L395.409 262.42L415.047 234.869L418.053 226.296L429.72 203.583C430.653 200.912 424.96 201.024 422.253 200.09C419.546 199.156 414.637 202.63 412.733 208.197Z" fill="#02457B"/>
<path d="M391.228 258.012C391.228 258.012 385.329 264.53 389.361 264.082C392.18 263.783 390.145 263.372 390.145 263.372C390.145 263.372 386.132 266.884 387.905 266.828C389.678 266.772 393.393 268.341 394.308 265.913C395.409 262.98 395.913 261.262 395.913 261.262L391.228 258.012Z" fill="#FFC69A"/>
<path d="M391.931 254.979L389.819 258.082L396.746 262.803L398.858 259.7L391.931 254.979Z" fill="#02457B"/>
<path d="M430.859 189.182L420.293 159.539L425.65 157.186L440.211 187.725L441.686 196.691L431.979 197.55L430.859 189.182Z" fill="#02457B"/>
<path d="M440.061 218.208C438.723 218.424 437.353 218.101 436.252 217.31C435.15 216.519 434.406 215.325 434.181 213.987L431.979 197.55L441.686 196.69L444.766 211.054C444.906 212.603 444.517 214.154 443.663 215.454C442.808 216.753 441.539 217.724 440.061 218.208V218.208Z" fill="#02457B"/>
<path d="M421.936 160.044C421.936 160.044 415.869 153.618 418.426 152.348L420.293 155.412C420.293 155.412 418.09 147.511 419.826 147.94C421.562 148.37 425.333 150.518 424.941 153.077C424.474 156.121 424.232 158.68 424.232 158.68L421.936 160.044Z" fill="#FFC69A"/>
<path d="M427.649 160.117L426.256 156.63L419.478 159.34L420.871 162.827L427.649 160.117Z" fill="#02457B"/>
<path d="M422.813 192.88L423.56 209.56L432.669 206.646L428.376 191.423L422.813 192.88Z" fill="#FFC69A"/>
<path d="M425.744 240.416C426.233 226.875 425.055 213.325 422.234 200.071C421.514 199.94 420.775 199.962 420.064 200.136C419.353 200.31 418.687 200.631 418.109 201.08C420.919 213.954 422.055 227.139 421.488 240.304L425.744 240.416Z" fill="#0362B0"/>
<path d="M448.107 258.553C449.428 250.285 448.184 241.81 444.542 234.271C435.208 239.483 416.709 238.287 416.709 238.287L414.095 262.775L412.639 289.914C413.543 301.945 415.894 313.823 419.639 325.291L426.864 324.133C427.588 312.536 427.206 300.897 425.725 289.372C425.725 289.372 429.346 274.747 431.325 267.22C431.456 266.734 433.603 265.95 433.715 265.52C433.715 265.502 444.486 264.923 448.107 258.553Z" fill="#0362B0"/>
<path d="M435.917 325.048L442.246 324.114C444.04 312.735 444.04 301.144 442.246 289.765C445.786 280.618 447.627 270.902 447.678 261.094C447.846 260.234 447.976 259.394 448.088 258.553C444.467 264.923 433.696 265.502 433.696 265.502L429.066 291.128C429.066 291.128 430.989 303.437 435.917 325.048Z" fill="#0362B0"/>
<path d="M437.28 264.979C436.106 265.241 434.915 265.416 433.715 265.502L429.085 291.128C429.085 291.128 430.952 303.306 435.843 324.749C436.562 324.302 437.134 323.652 437.485 322.881C438.12 321.406 437.149 320.453 435.955 315.746C435.208 312.814 435.619 313.243 434.443 307.341C433.976 304.679 433.352 302.047 432.576 299.459C431.381 296.358 430.168 295.051 430.803 293.351C431.437 291.651 433.08 291.483 433.08 290.045C433.08 288.607 431.923 288.364 431.307 287.243C429.851 284.572 432.763 280.407 433.603 279.099C436.11 274.823 437.383 269.935 437.28 264.979V264.979Z" fill="#4753DE"/>
<path d="M419.639 325.272L421.002 329.717L426.042 329.325L426.024 324.319L419.639 325.272Z" fill="#FFC69A"/>
<path d="M411.949 336.348C411.949 336.348 411.949 333.36 417.549 332.426C420.536 331.94 419.005 329.736 419.005 329.736L424.605 328.037L419.341 337.376L411.949 336.348Z" fill="#02457B"/>
<path d="M425.37 327.98C421.637 327.98 421.917 331.137 421.357 333.154C420.378 334.362 419.11 335.301 417.671 335.886C416.231 336.471 414.667 336.681 413.125 336.498L418.295 337.208C420.011 337.449 421.757 337.341 423.429 336.89L426.565 336.05C428.432 335.041 430.299 328.167 425.688 327.98H425.37Z" fill="#0362B0"/>
<path d="M412.191 336.404L413.125 336.498C411.949 336.348 411.426 336.274 412.191 336.404Z" fill="#FFA320"/>
<path d="M435.917 325.048L437.224 329.512L442.264 329.12L442.246 324.114L435.917 325.048Z" fill="#FFC69A"/>
<path d="M428.058 336.143C428.058 336.143 428.058 333.154 433.659 332.22C436.627 331.735 435.096 329.531 435.096 329.531L440.696 327.831L435.432 337.17L428.058 336.143Z" fill="#02457B"/>
<path d="M441.592 327.775C437.859 327.775 438.139 330.932 437.579 332.949C436.591 334.15 435.318 335.084 433.877 335.668C432.436 336.252 430.873 336.467 429.328 336.292L434.517 337.002C436.232 337.242 437.978 337.135 439.651 336.684L442.787 335.844C444.654 334.835 446.52 327.962 441.91 327.775H441.592Z" fill="#0362B0"/>
<path d="M428.413 336.199L429.328 336.292C428.208 336.143 427.648 336.068 428.413 336.199Z" fill="#FFA320"/>
<path d="M427.336 321.784L417.964 322.806L418.395 326.761L427.767 325.739L427.336 321.784Z" fill="#0362B0"/>
<path d="M443.587 320.869L434.216 321.891L434.646 325.846L444.018 324.824L443.587 320.869Z" fill="#0362B0"/>
<path d="M422.664 199.1L422.514 201.902C424.434 202.583 426.49 202.788 428.506 202.5C429.196 202.275 429.829 201.906 430.363 201.416C430.898 200.926 431.321 200.328 431.605 199.661L430.84 197.587C430.84 197.587 428.749 200.8 422.664 199.1Z" fill="white"/>
<path d="M424.437 175.92C424.437 175.92 419.042 180.795 425.669 185.801C425.669 185.801 428.114 187.669 424.493 191.928C424.128 192.354 423.927 192.898 423.927 193.459C423.927 194.021 424.128 194.564 424.493 194.991C426.677 197.569 431.493 201.36 436.627 193.366C438.997 189.63 439.315 185.316 437.336 182.757C435.734 180.459 433.427 178.748 430.765 177.882C428.114 176.966 426.714 177.284 424.437 175.92Z" fill="#411809"/>
<path d="M424.474 191.928C422.476 193.709 420.901 195.915 419.864 198.384C418.827 200.853 418.355 203.523 418.482 206.198C418.482 212.287 424.642 217.181 424.773 218.6C425.146 222.523 418.855 230.779 419.751 234.869C421.058 240.79 431.587 242.938 441.891 238.605C453.689 233.692 455.219 218.059 444.691 207.188C440.024 202.406 441.555 193.048 440.659 186.212C440.118 182.103 438.923 186.455 436.925 183.41C433.957 178.853 426.64 177.284 425.501 178.685C424.362 180.086 429.104 183.373 428.077 187.352C427.554 189.35 426.882 189.761 424.474 191.928Z" fill="#411809"/>
<path d="M427.61 187.333C427.887 187.671 428.052 188.086 428.082 188.521C428.113 188.957 428.008 189.391 427.781 189.764C427.555 190.138 427.219 190.431 426.818 190.605C426.418 190.779 425.974 190.825 425.547 190.736C425.12 190.647 424.731 190.427 424.434 190.108C424.137 189.788 423.946 189.384 423.887 188.952C423.829 188.519 423.906 188.079 424.108 187.692C424.31 187.305 424.627 186.99 425.016 186.791C425.221 186.655 425.452 186.562 425.694 186.515C425.936 186.469 426.185 186.471 426.426 186.521C426.667 186.572 426.896 186.669 427.099 186.809C427.303 186.948 427.476 187.126 427.61 187.333V187.333Z" fill="#FFC69A"/>
<path d="M440.08 189.182L424.549 176.91C426.175 174.85 428.553 173.52 431.16 173.213C433.766 172.907 436.387 173.649 438.447 175.276C440.506 176.903 441.836 179.283 442.142 181.891C442.448 184.498 441.707 187.121 440.08 189.182Z" fill="#02457B"/>
<path d="M435.115 173.548C436.661 174.014 438.071 174.85 439.222 175.983C440.373 177.117 441.23 178.514 441.719 180.055C442.208 181.595 442.315 183.231 442.029 184.821C441.743 186.412 441.075 187.909 440.08 189.182L436.029 186.025C437.332 184.157 437.953 181.897 437.786 179.624C437.62 177.352 436.676 175.207 435.115 173.548V173.548Z" fill="#FFA320"/>
<path d="M422.7 174.091L421.015 176.352L439.402 190.08L441.088 187.82L422.7 174.091Z" fill="#FFA320"/>
</g>
<defs>
<clipPath id="clip0_36267_31136">
<rect width="560" height="344" fill="white"/>
</clipPath>
</defs>
</svg>
