<svg width="17" height="16" viewBox="0 0 17 16" fill="none" xmlns="http://www.w3.org/2000/svg">
<path d="M5.5 10C7.29493 10 8.75 8.54493 8.75 6.75C8.75 4.95507 7.29493 3.5 5.5 3.5C3.70507 3.5 2.25 4.95507 2.25 6.75C2.25 8.54493 3.70507 10 5.5 10Z" stroke="#3761EE" stroke-width="2" stroke-miterlimit="10"/>
<path d="M9.71265 3.61875C9.99995 3.54083 10.2962 3.50091 10.5939 3.5C11.4559 3.5 12.2825 3.84241 12.892 4.4519C13.5015 5.0614 13.8439 5.88805 13.8439 6.75C13.8439 7.61195 13.5015 8.4386 12.892 9.0481C12.2825 9.65759 11.4559 10 10.5939 10" stroke="#3761EE" stroke-width="2" stroke-linecap="round" stroke-linejoin="round"/>
<path d="M1 12.3375C1.50747 11.6153 2.18127 11.0259 2.9645 10.6191C3.74774 10.2122 4.61739 9.99976 5.5 9.99976C6.38261 9.99976 7.25226 10.2122 8.0355 10.6191C8.81873 11.0259 9.49253 11.6153 10 12.3375" stroke="#3761EE" stroke-width="2" stroke-linecap="round" stroke-linejoin="round"/>
<path d="M10.5938 10C11.4764 9.99945 12.3463 10.2116 13.1296 10.6185C13.9129 11.0254 14.5866 11.615 15.0938 12.3375" stroke="#3761EE" stroke-width="2" stroke-linecap="round" stroke-linejoin="round"/>
</svg>
