<svg width="48" height="52" fill="none" xmlns="http://www.w3.org/2000/svg"><path d="M3.115 50h6.396v-1.644h-4.56v-1.764h3.96v-1.644h-3.96v-1.704h4.5V41.6H3.115V50zm7.848 0h1.824v-3.588c0-.864.42-1.308 1.103-1.308.684 0 1.069.444 1.069 1.308V50h1.823v-3.588c0-.864.42-1.308 1.105-1.308.683 0 1.067.444 1.067 1.308V50h1.825v-4.188c0-1.548-.817-2.364-2.172-2.364-.877 0-1.549.36-2.113 1.02-.335-.648-.971-1.02-1.812-1.02-.924 0-1.476.492-1.896 1.032v-.912h-1.823V50zm13.226.12c.888 0 1.5-.324 1.944-.816V50h1.764v-3.732c0-.864-.216-1.572-.696-2.052-.456-.456-1.176-.72-2.172-.72-1.092 0-1.788.204-2.496.516l.456 1.392c.588-.216 1.08-.348 1.776-.348.912 0 1.38.42 1.38 1.176v.108a4.57 4.57 0 00-1.572-.264c-1.524 0-2.592.648-2.592 2.052 0 1.296.996 1.992 2.208 1.992zm.552-1.26c-.588 0-.996-.288-.996-.78 0-.6.48-.912 1.26-.912.444 0 .852.096 1.164.24v.324c0 .66-.576 1.128-1.428 1.128zm4.761-6h1.92v-1.62h-1.92v1.62zM29.55 50h1.824v-6.432H29.55V50zm3.622 0h1.824v-8.76H33.17V50z" fill="#000"/><path fill-rule="evenodd" clip-rule="evenodd" d="M34.81 34H4.07a3.154 3.154 0 01-2.935-2.039.855.855 0 01.228-.934l11.998-10.739a.86.86 0 011.195.069.86.86 0 01-.068 1.206L3.007 31.843c.27.288.655.458 1.062.458h30.742c.408 0 .792-.17 1.061-.459L24.26 21.444a.86.86 0 01-.068-1.206.86.86 0 011.195-.068l12.131 10.857c.26.238.352.611.229.934A3.15 3.15 0 0134.81 34z" fill="#292D34"/><path fill-rule="evenodd" clip-rule="evenodd" d="M3.008 9.232L19.44 24.454 35.872 9.232a1.43 1.43 0 00-1.061-.474H4.069a1.43 1.43 0 00-1.06.474zM19.44 26.51a.791.791 0 01-.563-.228L1.363 10.076a.905.905 0 01-.228-.967C1.597 7.844 2.775 7 4.069 7h30.742c1.296 0 2.474.844 2.935 2.11a.909.909 0 01-.229.966L20.004 26.282a.792.792 0 01-.564.228z" fill="#292D34"/><rect x="1" y="8" width="36.88" height="25" rx="3" stroke="#292D34" stroke-width="2"/><circle cx="37.035" cy="10.035" r="10" transform="rotate(.199 37.035 10.035)" fill="#7B68EE"/><g clip-path="url(#clip0)" fill="#fff"><path d="M32.03 13.46l1.832-1.45c.973 1.312 2.007 1.916 3.158 1.916 1.145 0 2.15-.597 3.078-1.898l1.858 1.414c-1.34 1.875-3.007 2.866-4.936 2.866-1.923 0-3.605-.985-4.99-2.849zM37.014 7.163l-3.26 2.9-1.507-1.804 4.774-4.246 4.736 4.25-1.514 1.797-3.23-2.897z"/></g><defs><clipPath id="clip0"><path fill="#fff" transform="translate(32 4)" d="M0 0h10v12.308H0z"/></clipPath></defs></svg>
