<svg width="846" height="601" xmlns="http://www.w3.org/2000/svg" xmlns:xlink="http://www.w3.org/1999/xlink"><defs><rect id="a" x="0" y="0" width="28" height="29" rx="14"/></defs><g fill="none" fill-rule="evenodd"><rect fill="#000" fill-rule="nonzero" width="846" height="601" rx="7"/><rect fill="#FFF" fill-rule="nonzero" width="846" height="601" rx="7"/><rect fill="#E9E9E9" fill-rule="nonzero" x="353" y="21" width="45" height="21" rx="3"/><rect x="401" y="21" width="45" height="21" rx="3"/><path d="M416.54 32.53c.56.56 1.31.94 2.15 1.04a5.72 5.72 0 004.2 2.56v1.53h-2.68a.61.61 0 00-.62.61c0 .34.29.61.62.61h6.58c.34 0 .62-.27.62-.6a.62.62 0 00-.62-.62h-2.67v-1.53a5.71 5.71 0 004.19-2.56c.82-.1 1.56-.47 2.11-1l.04-.04a3.52 3.52 0 001.04-2.5v-3.36a.61.61 0 00-.6-.6h-1.68v-1.34a.61.61 0 00-.62-.61h-10.2a.61.61 0 00-.62.61v1.33h-1.66a.61.61 0 00-.62.61v3.37c0 .96.4 1.84 1.03 2.49h.01zm12.68-1.93v-3.32h1.05v2.75a2.3 2.3 0 01-.68 1.63l-.03.04c-.16.16-.37.3-.58.41.15-.5.22-1 .24-1.51zm-10.2-5.27h8.97v5.27c-.02.68-.2 1.36-.51 1.96l-.02.02a4.53 4.53 0 01-3.96 2.37c-1.66 0-3.2-.94-3.97-2.37v-.02a4.32 4.32 0 01-.51-2v-5.23zm-2.3 1.95h1.06v3.32c.02.51.09 1.02.24 1.51a2.31 2.31 0 01-.6-.44 2.3 2.3 0 01-.7-1.63v-2.76z" fill="#FFF" fill-rule="nonzero"/><rect fill="#E9E9E9" fill-rule="nonzero" x="450" y="21" width="45" height="21" rx="3"/><g transform="translate(757 16)" opacity=".37"><mask id="b" fill="#fff"><use xlink:href="#a"/></mask><path d="M14 0c7.732 0 14 6.268 14 14v1c0 7.732-6.268 14-14 14S0 22.732 0 15v-1C0 6.268 6.268 0 14 0z" stroke="#979797" stroke-width="2" mask="url(#b)"/></g><path d="M771.2 23.6a2.6 2.6 0 100 5.2 2.6 2.6 0 000-5.2zm0 5.8a3.2 3.2 0 110-6.4 3.2 3.2 0 010 6.4zm.3 2.22c-4.15 0-4.38 1.33-4.77 3.52l-.14.78c-.04.21 0 .43.13.6.12.16.3.26.5.26h8.57c.2 0 .37-.1.5-.26a.76.76 0 00.12-.6l-.14-.78c-.39-2.2-.62-3.52-4.77-3.52zm4.29 5.78h-8.58c-.37 0-.7-.18-.94-.49a1.42 1.42 0 01-.24-1.12l.14-.77c.4-2.25.7-4.02 5.33-4.02 4.62 0 4.94 1.77 5.33 4.02l.14.77c.08.4 0 .8-.24 1.12-.23.31-.57.49-.94.49z" fill="#CACACA" fill-rule="nonzero"/><circle fill="#CACACA" fill-rule="nonzero" cx="783" cy="38" r="8"/><g fill="#CACACA" fill-rule="nonzero"><path d="M20 40.707L24.982 37c2.647 3.356 5.46 4.902 8.59 4.902 3.114 0 5.847-1.528 8.375-4.857L47 40.663C43.353 45.463 38.82 48 33.572 48c-5.231 0-9.808-2.52-13.572-7.293zM34.033 24.332L25.12 32 21 27.23 34.052 16 47 27.238l-4.139 4.754z"/></g><circle cx="816" cy="31" r="16"/><g fill-rule="nonzero"><path d="M821.28 31.36h-4.49v4.73h-1.6v-4.73h-4.46v-1.49h4.47v-4.7h1.6v4.7h4.48z" fill="#000"/><path d="M821.28 31.36h-4.49v4.73h-1.6v-4.73h-4.46v-1.49h4.47v-4.7h1.6v4.7h4.48z" fill="#FFF"/></g><g fill-rule="nonzero"><path d="M786.6 38.47h-3.06v3.23h-1.09v-3.23h-3.04v-1.01h3.04v-3.2h1.09v3.2h3.06z" fill="#000"/><path d="M786.6 38.47h-3.06v3.23h-1.09v-3.23h-3.04v-1.01h3.04v-3.2h1.09v3.2h3.06z" fill="#FFF"/></g><path fill="#EE9668" fill-rule="nonzero" d="M0 61h846v181H0z"/><rect fill="#000" fill-rule="nonzero" x="119" y="138" width="598" height="217" rx="3"/><rect fill="#FFF" fill-rule="nonzero" x="119" y="138" width="598" height="217" rx="3"/><path d="M142 124.52c12.15 0 22-9.96 22-22.26S154.15 80 142 80s-22 9.97-22 22.26c0 12.3 9.85 22.26 22 22.26h0z" stroke="#FFF" stroke-width="6" opacity=".42"/><path d="M164 102.52A22.52 22.52 0 00141.48 80" stroke="#FFF" stroke-width="6"/><path d="M133.03 105.67c1.77 0 2.86-1.06 2.86-2.49 0-1.43-1.06-1.97-2.14-2.15l2.01-1.83v-1.26h-5.36v1.43h3.12l-1.9 1.83.28 1.06h.72c.98 0 1.55.35 1.55.96 0 .6-.46.95-1.12.95-.8 0-1.37-.33-1.91-.91l-1.2 1.1a3.92 3.92 0 003.09 1.3v.01zm7.64 0c2.12 0 3.54-1.73 3.54-3.93 0-2.23-1.42-3.93-3.52-3.93s-3.53 1.73-3.53 3.93c0 2.22 1.4 3.93 3.51 3.93zm.02-1.51c-1.05 0-1.74-1.03-1.74-2.42 0-1.41.68-2.42 1.72-2.42s1.75 1.04 1.75 2.42c0 1.4-.67 2.42-1.73 2.42zm6.56-2.42a1.9 1.9 0 001.94-1.94c0-1.09-.77-1.95-1.91-1.95-1.16 0-1.94.87-1.94 1.95s.77 1.94 1.91 1.94zm-1.12 3.8h1.35l5.8-7.6h-1.36l-5.79 7.6zm6 .08a1.9 1.9 0 001.94-1.94c0-1.08-.77-1.94-1.92-1.94-1.16 0-1.94.87-1.94 1.94 0 1.09.77 1.94 1.92 1.94zm-4.85-4.87c-.46 0-.75-.44-.75-.95 0-.53.25-.96.72-.96.46 0 .75.45.75.96 0 .5-.25.95-.72.95zm4.87 3.89c-.45 0-.75-.45-.75-.96 0-.52.25-.95.73-.95.45 0 .75.44.75.95s-.25.96-.73.96zM178 91h67v6h-67v-6zm0 14h174v3H178v-3z" fill="#FFF" fill-rule="nonzero"/><path d="M170 193h67v6h-67v-6zm-34.5-33.52h87v6h-87v-6zM170 205h174v3H170v-3z" fill="#E9E9E9" fill-rule="nonzero"/><rect fill="#E9E9E9" fill-rule="nonzero" x="536" y="200" width="161" height="5" rx="2.5"/><rect x="536" y="200" width="71" height="5" rx="2.5"/><circle stroke="#E9E9E9" cx="239.37" cy="162.69" r="8"/><text fill="#E9E9E9" font-family="Lato-Regular, Lato" font-size="14"><tspan x="235.71" y="167">+</tspan></text><circle fill="#FFF" fill-rule="nonzero" transform="matrix(-1 0 0 1 1386.08 0)" cx="693.04" cy="102.03" r="17.03"/><path d="M693.01 94.71a2.77 2.77 0 10.01 5.54 2.77 2.77 0 000-5.54h-.01zm0 6.17a3.405 3.405 0 11.01-6.81 3.405 3.405 0 010 6.81h-.01zm0 1.8c-4.28 0-4.52 1.4-4.91 3.73l-.15.84c-.04.22 0 .46.13.63.13.18.31.28.51.28h8.85c.2 0 .38-.1.5-.28a.82.82 0 00.14-.63l-.15-.83c-.4-2.34-.64-3.74-4.92-3.74zm4.43 6.14h-8.85a1.2 1.2 0 01-.97-.52 1.54 1.54 0 01-.25-1.2l.15-.8c.4-2.4.73-4.29 5.5-4.29 4.76 0 5.08 1.9 5.49 4.28l.15.82c.08.42-.01.85-.25 1.19-.24.33-.6.52-.97.52z" fill="#EE9668" fill-rule="nonzero"/><g transform="translate(599.09 94)" stroke="#FFF"><path d="M2.15 2.15v2.4a2.805 2.805 0 005.61 0v-2.4H2.15z"/><path d="M2.15 12.72h5.61v-2.4a2.8 2.8 0 10-5.6 0v2.4h-.01z"/><rect x=".5" y=".5" width="8.91" height="1.48" rx=".74"/><rect x=".5" y="12.89" width="8.91" height="1.48" rx=".74"/></g><g transform="translate(625 94)" stroke="#FFF"><rect x=".47" y=".47" width="14.06" height="14.06" rx="7.03"/><path d="M7.06 3.31h1v4.63h-1V3.31zm0 4.69h3.69v1H7.06V8z" fill="#979797" fill-rule="nonzero"/></g><path d="M659.9 103.15c-.46 0-.89.17-1.21.46l-2.9-2.03a1.81 1.81 0 000-1.35l2.9-2.04a1.82 1.82 0 10-.47-.68l-2.9 2.04a1.82 1.82 0 100 2.7l2.9 2.04a1.81 1.81 0 001.68 2.5 1.82 1.82 0 000-3.64" fill="#FFF" fill-rule="nonzero"/><circle fill="#4FE1C0" fill-rule="nonzero" transform="matrix(-1 0 0 1 296.24 0)" cx="148.12" cy="200.11" r="14.11"/><path d="M148.1 194.05a2.3 2.3 0 10-.428 4.58 2.3 2.3 0 00.428-4.58zm0 5.1a2.82 2.82 0 010-5.64 2.825 2.825 0 010 5.65v-.01zm0 1.5c-3.55 0-3.75 1.16-4.08 3.1l-.12.68c-.04.2 0 .38.11.53.1.14.26.23.42.23h7.33c.17 0 .32-.09.42-.23a.66.66 0 00.11-.53l-.12-.69c-.33-1.93-.53-3.1-4.07-3.1v.01zm3.66 5.09h-7.33a.99.99 0 01-.8-.43c-.2-.28-.28-.64-.2-1l.11-.67c.34-1.98.6-3.54 4.56-3.54 3.95 0 4.21 1.56 4.55 3.54l.12.68c.07.35 0 .7-.2.99a.99.99 0 01-.8.43h-.01z" fill="#FFF" fill-rule="nonzero"/><path stroke="#979797" opacity=".14" d="M136 231h562"/><path d="M170 253h117v6H170v-6zm0 12h144v3H170v-3z" fill="#E9E9E9" fill-rule="nonzero"/><rect fill="#E9E9E9" fill-rule="nonzero" x="536" y="259" width="161" height="5" rx="2.5"/><rect x="536" y="259" width="31" height="5" rx="2.5"/><circle fill="#6FB1FF" fill-rule="nonzero" transform="matrix(-1 0 0 1 296.24 0)" cx="148.12" cy="260.11" r="14.11"/><path d="M148.1 254.05a2.3 2.3 0 10-.428 4.58 2.3 2.3 0 00.428-4.58zm0 5.1a2.82 2.82 0 010-5.64 2.825 2.825 0 010 5.65v-.01zm0 1.5c-3.55 0-3.75 1.16-4.08 3.1l-.12.68c-.04.2 0 .38.11.53.1.14.26.23.42.23h7.33c.17 0 .32-.09.42-.23a.66.66 0 00.11-.53l-.12-.69c-.33-1.93-.53-3.1-4.07-3.1v.01zm3.66 5.09h-7.33a.99.99 0 01-.8-.43c-.2-.28-.28-.64-.2-1l.11-.67c.34-1.98.6-3.54 4.56-3.54 3.95 0 4.21 1.56 4.55 3.54l.12.68c.07.35 0 .7-.2.99a.99.99 0 01-.8.43h-.01z" fill="#FFF" fill-rule="nonzero"/><path stroke="#979797" opacity=".14" d="M136 291h562"/><path d="M170 313h87v6h-87v-6zm0 12h244v3H170v-3z" fill="#E9E9E9" fill-rule="nonzero"/><rect fill="#E9E9E9" fill-rule="nonzero" x="536" y="321" width="161" height="5" rx="2.5"/><rect x="536" y="321" width="131" height="5" rx="2.5"/><circle fill="#EE9668" fill-rule="nonzero" transform="matrix(-1 0 0 1 296.24 0)" cx="148.12" cy="320.11" r="14.11"/><path d="M148.1 314.05a2.3 2.3 0 10-.428 4.58 2.3 2.3 0 00.428-4.58zm0 5.1a2.82 2.82 0 110-5.64 2.825 2.825 0 010 5.65v-.01zm0 1.5c-3.55 0-3.75 1.16-4.08 3.1l-.12.68c-.04.2 0 .38.11.53.1.14.26.23.42.23h7.33c.17 0 .32-.09.42-.23a.66.66 0 00.11-.53l-.12-.69c-.33-1.93-.53-3.1-4.07-3.1v.01zm3.66 5.09h-7.33a.99.99 0 01-.8-.43c-.2-.28-.28-.64-.2-1l.11-.67c.34-1.98.6-3.54 4.56-3.54 3.95 0 4.21 1.56 4.55 3.54l.12.68c.07.35 0 .7-.2.99a.99.99 0 01-.8.43h-.01z" fill="#FFF" fill-rule="nonzero"/><rect fill="#000" fill-rule="nonzero" x="119" y="374" width="598" height="179" rx="3"/><rect fill="#FFF" fill-rule="nonzero" x="119" y="374" width="598" height="179" rx="3"/><path fill="#E9E9E9" fill-rule="nonzero" d="M137 399h67v6h-67z"/><path stroke="#979797" opacity=".14" d="M136 422h562"/><rect fill="#27AE60" fill-rule="nonzero" x="210" y="396.5" width="33" height="12" rx="4"/><path stroke="#FFF" d="M217 402h15"/><path d="M608.08 401h87v4h-87v-4zM137 439h106v6H137v-6z" fill="#E9E9E9" fill-rule="nonzero"/><path stroke="#979797" opacity=".14" d="M136 462h562"/><rect fill="#F46969" fill-rule="nonzero" x="250" y="436.5" width="33" height="12" rx="4"/><path stroke="#FFF" d="M257 442h15"/><path d="M627.08 441h67v4h-67v-4zM137 479h207v6H137v-6z" fill="#E9E9E9" fill-rule="nonzero"/><path stroke="#979797" opacity=".14" d="M136 502h562"/><rect fill="#27AE60" fill-rule="nonzero" x="350" y="476.5" width="33" height="12" rx="4"/><path stroke="#FFF" d="M357 482h15"/><path d="M608.08 481h87v4h-87v-4zM137 519h106v6H137v-6z" fill="#E9E9E9" fill-rule="nonzero"/><rect fill="#27AE60" fill-rule="nonzero" x="250" y="516.5" width="33" height="12" rx="4"/><path stroke="#FFF" d="M257 522h15"/><path fill="#E9E9E9" fill-rule="nonzero" d="M587.08 521h107v4h-107z"/></g></svg>