<svg width="1202" height="455" viewBox="0 0 1202 455" xmlns="http://www.w3.org/2000/svg" xmlns:xlink="http://www.w3.org/1999/xlink"><defs><path id="a" d="M0 1173.333h2000V0H0v1173.333z"/></defs><g fill="none" fill-rule="evenodd"><path d="M899.681 146.423h-21.83l.069 162.488h88.314v-20.094H899.75l-.069-142.394z" fill="#8C929D"/><g transform="matrix(1 0 0 -1 -439 814.333)"><mask id="b" fill="#fff"><use xlink:href="#a"/></mask><g mask="url(#b)"><path d="M1489.327 533.951c-5.457-5.705-14.636-11.412-27.04-11.412-16.62 0-23.318 8.187-23.318 18.855 0 16.124 11.162 23.814 34.978 23.814 4.466 0 11.66-.496 15.38-1.24v-30.017zm-22.574 98.485c-17.63 0-33.799-6.249-46.416-16.652l7.716-13.365c8.93 5.21 19.846 10.42 35.474 10.42 17.862 0 25.8-9.18 25.8-24.56v-7.939c-3.473.744-10.666 1.242-15.132 1.242-38.204 0-57.553-13.396-57.553-41.43 0-25.054 15.38-37.706 38.699-37.706 15.708 0 30.761 7.194 35.97 18.853l3.97-15.876h15.381v83.104c0 26.296-11.412 43.91-43.91 43.91zM1581.1 521.796c-8.186 0-15.381.992-20.838 3.473v75.165c7.442 6.203 16.62 10.668 28.28 10.668 21.086 0 29.273-14.884 29.273-38.948 0-34.233-13.148-50.358-36.715-50.358m9.175 110.64c-19.51 0-30.013-13.272-30.013-13.272v20.962l-.07 27.784h-21.333l.07-158.518c10.666-4.466 25.302-6.946 41.18-6.946 40.683 0 60.28 26.047 60.28 70.948 0 35.475-18.113 59.043-50.114 59.043M1101.375 650.297c19.35 0 31.754-6.449 39.94-12.9l9.382 16.251c-12.787 11.213-29.986 17.24-48.33 17.24-46.389 0-78.886-28.281-78.886-85.337 0-59.787 35.058-83.106 75.165-83.106 20.095 0 37.212 4.714 48.375 9.427l-.458 63.879v20.094h-59.537v-20.094h37.955l.457-48.498c-4.961-2.48-13.644-4.465-25.303-4.465-32.249 0-53.832 20.287-53.832 63.01 0 43.413 22.327 64.5 55.072 64.5M1254.902 667.91h-21.334l.069-27.287v-94.268c0-26.296 11.412-43.91 43.91-43.91 4.489 0 8.882.408 13.147 1.183v19.159a65.301 65.301 0 0 0-9.922-.743c-17.862 0-25.8 9.179-25.8 24.559v64.994h35.722v17.862h-35.722l-.07 38.452zM1179.433 505.423h21.335V629.46h-21.335V505.423zM1179.433 646.576h21.335v21.335h-21.335v-21.335z" fill="#8C929D"/><path d="M931.199 554.108l-27.559 84.815-54.617 168.097c-2.81 8.648-15.046 8.648-17.856 0l-54.619-168.097H595.181l-54.62 168.097c-2.809 8.648-15.045 8.648-17.856 0l-54.617-168.097-27.557-84.815a18.775 18.775 0 0 1 6.82-20.992l238.513-173.29 238.515 173.29a18.777 18.777 0 0 1 6.82 20.992" fill="#FC6D26"/><path d="M685.865 359.827l90.684 279.096H595.18l90.684-279.096z" fill="#E24329"/><path d="M685.865 359.827L595.18 638.922H468.089l217.776-279.095z" fill="#FC6D26"/><path d="M468.089 638.923l-27.56-84.815a18.773 18.773 0 0 1 6.822-20.99l238.514-173.29-217.776 279.095z" fill="#FCA326"/><path d="M468.089 638.922H595.18L540.56 807.02c-2.81 8.649-15.046 8.649-17.855 0l-54.617-168.098z" fill="#E24329"/><path d="M685.865 359.827l90.684 279.095H903.64L685.865 359.827z" fill="#FC6D26"/><path d="M903.64 638.923l27.559-84.815a18.773 18.773 0 0 0-6.821-20.99l-238.514-173.29L903.64 638.923z" fill="#FCA326"/><path d="M903.64 638.922H776.548l54.619 168.098c2.81 8.649 15.047 8.649 17.856 0l54.617-168.098z" fill="#E24329"/></g></g></g></svg>