<svg width="100" height="100" viewBox="0 0 100 100" fill="none" xmlns="http://www.w3.org/2000/svg">
<g clip-path="url(#clip0_36275_31312)">
<path d="M10 35.4991C10 34.0407 10.5794 32.642 11.6107 31.6107C12.6419 30.5794 14.0407 30 15.4991 30H84.5009C85.2234 29.9987 85.9391 30.1401 86.6068 30.4159C87.2746 30.6918 87.8814 31.0969 88.3923 31.6078C88.9032 32.1187 89.3082 32.7254 89.5841 33.3932C89.86 34.0609 90.0013 34.7766 90 35.4991V64.5009C90 65.9593 89.4206 67.3581 88.3893 68.3894C87.3581 69.4206 85.9593 70 84.5009 70H15.4991C14.0415 69.9974 12.6443 69.4172 11.6136 68.3865C10.5828 67.3557 10.0026 65.9585 10 64.5009V35.4991Z" fill="#3347FF"/>
<path d="M49.9999 55.5736C47.2058 60.8251 40.7554 64.4911 33.2449 64.4911C23.1681 64.5011 15.0234 57.8922 15.0234 49.7475C15.0234 41.6029 23.1879 35.0039 33.2647 35.0039C40.7752 35.0039 47.2256 38.67 50.0197 43.9214C52.8139 38.67 59.2642 35.0039 66.7846 35.0039C76.8515 35.0039 85.016 41.6029 85.016 49.7475C85.016 57.8922 76.8515 64.5011 66.7846 64.5011C59.2444 64.5011 52.7941 60.8251 49.9999 55.5736Z" fill="white"/>
<path d="M60.504 49.3712C60.504 52.5517 36.724 54.9991 33.2561 54.9991C31.6656 55.0636 30.1144 54.4949 28.9424 53.4176C27.7705 52.3404 27.0734 50.8425 27.0039 49.2523C27.0835 47.669 27.7851 46.1812 28.9559 45.1124C30.1267 44.0437 31.6721 43.4804 33.2561 43.5451C36.7042 43.5451 60.504 46.2005 60.504 49.3712Z" fill="#3347FF" fill-opacity="0.43"/>
<path d="M35.9991 49.2516C35.9194 49.9055 35.5884 50.5028 35.0762 50.917C34.564 51.3312 33.9107 51.5299 33.2545 51.471C32.5922 51.5322 31.9323 51.3307 31.4171 50.91C30.9019 50.4893 30.5725 49.883 30.5 49.2219C30.5725 48.5607 30.9019 47.9544 31.4171 47.5337C31.9323 47.113 32.5922 46.9115 33.2545 46.9727C33.9205 46.912 34.5833 47.1178 35.0977 47.545C35.6122 47.9722 35.9363 48.5858 35.9991 49.2516V49.2516Z" fill="#3347FF" fill-opacity="0.67"/>
<path d="M73.4809 49.2523C73.3556 50.8245 72.6426 52.2918 71.4839 53.3619C70.3252 54.4319 68.8059 55.0261 67.2287 55.0261C65.6515 55.0261 64.1322 54.4319 62.9735 53.3619C61.8149 52.2918 61.1018 50.8245 60.9766 49.2523C61.1018 47.6801 61.8149 46.2128 62.9735 45.1428C64.1322 44.0727 65.6515 43.4785 67.2287 43.4785C68.8059 43.4785 70.3252 44.0727 71.4839 45.1428C72.6426 46.2128 73.3556 47.6801 73.4809 49.2523Z" fill="#3347FF" fill-opacity="0.7"/>
<path d="M70.003 49.252C69.8759 49.8876 69.5324 50.4595 69.0311 50.8704C68.5298 51.2813 67.9017 51.5059 67.2535 51.5059C66.6053 51.5059 65.9771 51.2813 65.4758 50.8704C64.9745 50.4595 64.6311 49.8876 64.5039 49.252C64.6311 48.6164 64.9745 48.0445 65.4758 47.6335C65.9771 47.2226 66.6053 46.998 67.2535 46.998C67.9017 46.998 68.5298 47.2226 69.0311 47.6335C69.5324 48.0445 69.8759 48.6164 70.003 49.252V49.252Z" fill="white" fill-opacity="0.91"/>
<path d="M41.5596 64.154C41.8232 64.1464 42.0837 64.2116 42.3127 64.3422C42.5079 64.4549 42.6715 64.6151 42.7883 64.8079V64.2134L43.7791 63.5L43.2738 64.8079L43.3729 67.5723C43.3767 67.8493 43.3084 68.1225 43.1747 68.365C43.052 68.5999 42.8623 68.793 42.6297 68.9199C42.3734 69.0548 42.0871 69.123 41.7974 69.118C41.4137 69.1346 41.035 69.0269 40.7174 68.8109C40.5788 68.7161 40.462 68.5929 40.3748 68.4493C40.2877 68.3058 40.2322 68.1453 40.2121 67.9786L41.1237 67.5723C41.1831 67.7705 40.5886 68.365 41.1237 68.4542C41.3232 68.5854 41.5587 68.6512 41.7974 68.6424C41.9321 68.6485 42.0666 68.627 42.1926 68.5793C42.3187 68.5316 42.4337 68.4587 42.5306 68.365C42.6292 68.2589 42.7055 68.134 42.7549 67.9979C42.8042 67.8617 42.8257 67.717 42.818 67.5723V66.8788C42.705 67.0797 42.5409 67.2472 42.3424 67.3643C42.1134 67.4949 41.8529 67.56 41.5894 67.5525C41.3054 67.5559 41.0266 67.4767 40.7868 67.3246C40.5466 67.1818 40.3537 66.9717 40.2319 66.7202C40.089 66.4451 40.0175 66.1384 40.0238 65.8285C40.0174 65.5216 40.089 65.2182 40.2319 64.9466C40.3597 64.7019 40.5514 64.4964 40.7868 64.3521C41.0228 64.22 41.2892 64.1517 41.5596 64.154ZM42.7684 65.8483C42.7744 65.6245 42.7233 65.4028 42.6198 65.2042C42.5278 65.0264 42.3868 64.8786 42.2136 64.7782C42.043 64.6809 41.8501 64.6297 41.6538 64.6297C41.4574 64.6297 41.2645 64.6809 41.0939 64.7782C40.9199 64.8731 40.7784 65.0181 40.6877 65.1943C40.5855 65.3933 40.5344 65.6147 40.5391 65.8384C40.5331 66.0685 40.5842 66.2966 40.6877 66.5022C40.7827 66.6779 40.9229 66.825 41.0939 66.9283C41.2645 67.0256 41.4574 67.0768 41.6538 67.0768C41.8501 67.0768 42.043 67.0256 42.2136 66.9283C42.3868 66.8279 42.5278 66.6801 42.6198 66.5022C42.7221 66.2997 42.7731 66.0751 42.7684 65.8483V65.8483Z" fill="white"/>
<path d="M45.7391 67.553C45.445 67.5584 45.1546 67.4866 44.8969 67.3449C44.6479 67.2051 44.4422 66.9994 44.3024 66.7504C44.1595 66.4717 44.088 66.1619 44.0943 65.8488C44.0865 65.5375 44.1617 65.2297 44.3123 64.957C44.4531 64.7054 44.6628 64.4992 44.9167 64.3625C45.1686 64.2241 45.4517 64.1525 45.7391 64.1545C46.033 64.1505 46.323 64.2221 46.5813 64.3625C46.8343 64.497 47.0413 64.704 47.1758 64.957C47.3298 65.2287 47.4085 65.5365 47.4037 65.8488C47.4083 66.1641 47.3297 66.4752 47.1758 66.7504C47.031 67.0024 46.8181 67.2085 46.5615 67.3449C46.3091 67.4821 46.0263 67.5537 45.7391 67.553V67.553ZM45.7391 67.0774C45.9293 67.0762 46.1164 67.0286 46.284 66.9387C46.4596 66.8425 46.604 66.6981 46.7002 66.5226C46.8126 66.3163 46.8674 66.0835 46.8587 65.8488C46.8659 65.6153 46.8148 65.3838 46.7101 65.175C46.6107 65.0044 46.4669 64.864 46.294 64.7688C46.1267 64.6777 45.9394 64.63 45.749 64.63C45.5586 64.63 45.3712 64.6777 45.204 64.7688C45.0351 64.8626 44.8974 65.0039 44.8077 65.175C44.703 65.3838 44.6519 65.6153 44.6591 65.8488C44.648 66.0815 44.6957 66.3132 44.7978 66.5226C44.8859 66.6974 45.0238 66.8422 45.1941 66.9387C45.3613 67.0297 45.5487 67.0774 45.7391 67.0774V67.0774Z" fill="white"/>
<path d="M47.8993 65.8384C47.8899 65.5324 47.958 65.229 48.0975 64.9565C48.2311 64.716 48.4216 64.5119 48.6523 64.362C48.8967 64.2227 49.1737 64.1509 49.4549 64.154C49.7184 64.1464 49.979 64.2116 50.2079 64.3422C50.4024 64.4526 50.5633 64.6135 50.6736 64.8079V64.2134L51.7437 63.5L51.2285 64.7683V67.503H50.6935V66.8887C50.5787 67.089 50.4106 67.2537 50.2079 67.3643C49.983 67.4961 49.7254 67.5614 49.4648 67.5525C49.1852 67.5569 48.9102 67.4813 48.6721 67.3345C48.4367 67.186 48.2452 66.9773 48.1173 66.7301C47.971 66.4559 47.896 66.1492 47.8993 65.8384V65.8384ZM50.6736 65.8384C50.6796 65.6145 50.6285 65.3929 50.525 65.1943C50.4359 65.0144 50.2942 64.8659 50.1188 64.7683C49.9506 64.6695 49.7589 64.6182 49.5639 64.6196C49.3688 64.6172 49.1768 64.6686 49.009 64.7683C48.835 64.8632 48.6935 65.0082 48.6028 65.1844C48.5006 65.3834 48.4495 65.6048 48.4542 65.8285C48.4483 66.0586 48.4993 66.2867 48.6028 66.4923C48.6974 66.6714 48.8405 66.8202 49.0157 66.9218C49.191 67.0235 49.3912 67.0738 49.5936 67.067C49.7886 67.0685 49.9803 67.0171 50.1485 66.9184C50.3239 66.8208 50.4656 66.6722 50.5547 66.4923C50.652 66.2919 50.6996 66.071 50.6935 65.8483L50.6736 65.8384Z" fill="white"/>
<path d="M53.2384 62.499L52.6934 63.0539V67.5027H52.1484V63.0539L53.2384 62.499Z" fill="white"/>
<path d="M53.668 67.4433C53.5683 67.4419 53.4727 67.403 53.4004 67.3343C53.3672 67.3005 53.3412 67.2601 53.3242 67.2158C53.3071 67.1715 53.2994 67.1241 53.3014 67.0767C53.2986 67.0277 53.3059 66.9786 53.323 66.9326C53.34 66.8866 53.3664 66.8446 53.4004 66.8092C53.4727 66.7405 53.5683 66.7016 53.668 66.7002C53.7165 66.7001 53.7646 66.71 53.8092 66.7291C53.8538 66.7483 53.8941 66.7763 53.9275 66.8116C53.9609 66.8468 53.9867 66.8885 54.0034 66.9341C54.0201 66.9797 54.0274 67.0282 54.0247 67.0767C54.0267 67.1241 54.0189 67.1715 54.0019 67.2158C53.9848 67.2601 53.9588 67.3005 53.9256 67.3343C53.8922 67.3689 53.8522 67.3964 53.8079 67.4151C53.7636 67.4339 53.716 67.4435 53.668 67.4433V67.4433Z" fill="white"/>
<path d="M55.7487 62.499L55.4416 63.0539V67.5027H54.8867V63.0539L55.7487 62.499Z" fill="white"/>
<path d="M59.7381 63.5L59.2427 64.2134L57.2115 69.0487H56.6368L57.2808 67.4633L55.9531 64.2134H56.5575L57.5484 66.8788L58.5392 64.2134L59.7381 63.5Z" fill="white"/>
</g>
<defs>
<clipPath id="clip0_36275_31312">
<rect width="80" height="40" fill="white" transform="translate(10 30)"/>
</clipPath>
</defs>
</svg>
