<svg
    _ngcontent-jhh-c668=""
    width="141"
    height="258"
    xmlns="http://www.w3.org/2000/svg"
  >
    <g _ngcontent-jhh-c668="" fill="none" fill-rule="evenodd">
      <path
        _ngcontent-jhh-c668=""
        d="M14.95 249.26c-.87-.37-1.19-.81-.77-1.34 2.9-3.7 15.92-3.75 22.24-3.83 7.94-.1 16.2-.3 23.35.51 3 .34 9.78.6 10.94 1.82 3.04 3.22-18.6 4.38-22.1 4.47-5.85.15-28.7.47-33.66-1.63"
        fill="#E3E3E3"
      ></path>
      <path
        _ngcontent-jhh-c668=""
        d="M81.94 155.2c-.07-.46-30.23-1.29-35.4-1.25-11.05.07-44.17-3.93-44.29-3.95-.44-.05-.17 1.45-.14 1.62.23 1.57.64 3.13 1.04 4.66.63 2.4 1.33 4.77 2.05 7.14a408.7 408.7 0 0 0 2.87 9.04 606.75 606.75 0 0 0 7.53 21.5c1.4 3.78 2.83 7.55 4.3 11.3 1.42 3.66 2.9 7.3 4.4 10.92 1.4 3.34 2.85 6.67 4.36 9.96a171.4 171.4 0 0 0 4.12 8.43 66.88 66.88 0 0 0 3.7 6.32 15.9 15.9 0 0 0 3.1 3.64c.96.76 2.24.66 2.2-.76-.18-5.84.27-11.77.38-17.63.13-6.86.22-13.72.3-20.58l.16-17.34c.01-1.3 0-2.6.02-3.9 0-.48-.14-3.11.87-2.88 1.15.26.72 4.01.73 4.89l.03 6.06.06 16.9c.03 6.06.05 12.13.1 18.2.02 4.48.05 8.96.13 13.44.02.78-.29 2.63.14 3.34.25.41.74.67 1.22.64 1.11-.08 1.72-1.57 2.16-2.4 3.4-6.6 6.96-13.1 10.22-19.76 1.6-3.28 3.11-6.6 4.6-9.93 1.5-3.36 2.79-6.88 4.43-10.17l.09-.2a260.97 260.97 0 0 0 10.97-30.88c1.22-4.32 2.61-8.57 3.35-13.02.18-1.09.36-2.24.2-3.34"
        fill="#E5E5E5"
      ></path>
      <path
        _ngcontent-jhh-c668=""
        d="M81.94 155.63c-.07-.46-30.02-1.29-35.14-1.25-10.98.07-40.82-3.5-40.8-3.38.74 4.73 13.04 39.18 14.4 42.86 1.39 3.76 18.25 49.69 19.5 50.68.93.75 2.21.65 2.17-.76-.18-5.81.27-11.72.38-17.55.13-6.83.21-13.66.29-20.49l.16-17.25c.01-1.3 0-2.59.02-3.89 0-.47.05-2.24.87-2.86 5.06-3.9 3.67 23.45 3.7 29.05.02 6.04-1.79 34.15-1.3 34.12 1.1-.08 1.7-1.56 2.13-2.4 3.38-6.55 6.92-13.02 10.15-19.65 1.6-3.27 3.09-6.58 4.57-9.9 1.5-3.33 2.76-6.84 4.4-10.11l.08-.2a260.16 260.16 0 0 0 10.9-30.73c1.2-4.3 2.6-8.53 3.33-12.96.17-1.08.35-2.23.19-3.33"
        fill="#FFF"
      ></path>
      <path
        _ngcontent-jhh-c668=""
        d="M18.8 202.92c7.9-.05 15.8-.32 23.7-.68l.12-13.4c.01-1.28 0-2.57.02-3.86 0-.47-.14-3.08.87-2.85 1.15.26.72 3.97.73 4.84l.03 6 .03 9.18c8-.38 15.13 1.2 23.12.78a292.63 292.63 0 0 0 10.97-30.57c1.22-4.28 2.61-8.49 3.35-12.9.18-1.07.36-2.21.2-3.3-.07-.46-30.23-1.29-35.4-1.25-11.05.07-44.17-3.9-44.29-3.9-.44-.06-.17 1.42-.14 1.6.23 1.55.64 3.1 1.04 4.61.63 2.37 1.33 4.73 2.05 7.07.92 3 1.88 5.98 2.87 8.95a596.76 596.76 0 0 0 7.53 21.28c1.05 2.8 2.12 5.6 3.2 8.4"
        fill="#9FCDED"
      ></path>
      <path
        _ngcontent-jhh-c668=""
        d="M23.63 201.87c7.84-.05 11.32-.26 19.15-.62l.13-13.28c.01-1.28 0-2.55.02-3.83 0-.47.09-2.16.87-2.83 4.05-3.48 3.95 8.26 3.96 10.24.02 3.03-.24 9.55-.24 9.55 6.78.04 13.06 1.2 20 .83a289.82 289.82 0 0 0 10.9-30.3c1.2-4.24 2.6-8.42 3.33-12.78a11 11 0 0 0 .19-3.29c-.07-.45-30.01-1.27-35.13-1.23C35.83 154.4 6.14 151 6 151c-.44-.05 9.38 27.38 10.57 30.76 1.3 3.65 5.97 17.34 7.05 20.11"
        fill="#BBDFF5"
      ></path>
      <path
        _ngcontent-jhh-c668=""
        d="M18.43 203.95c7.93-.06 15.86-.33 23.79-.7.44-.01 1.47-.38 1.48-.96l.1-11.41c.03-1.99.03-3.98.05-5.97 0-.88.56-2.49-.5-1.85-1 .6-.43.5-.5 1.4-.06.62-.03 1.38-.04 2.02a229.6 229.6 0 0 0-.01 4.25l.04 11.76c0 .64.67.7 1.17.68 7.65-.3 15.24 1.1 22.9.78.41-.02 1.2-.3 1.39-.75a313 313 0 0 0 9.36-25.66c1.37-4.39 2.68-8.82 3.82-13.27.43-1.66 2.63-7.83.81-9-.68-.46-2.23-.3-3-.35-2.09-.13-4.19-.21-6.28-.3-5.42-.21-10.84-.37-16.26-.5-9.2-.23-18.3-.44-27.48-1.29-5.9-.54-11.8-1.16-17.69-1.82-2.72-.31-5.8-1.12-8.54-1-2.79.13-2.05 2.7-1.62 4.68 1.18 5.55 3 11 4.75 16.4 3.5 10.9 7.35 21.69 11.43 32.38.4 1.03 3 .26 2.64-.71a669.33 669.33 0 0 1-9.43-26.26 430.58 430.58 0 0 1-4.35-13.64c-.6-2.03-1.19-4.06-1.72-6.1a56.97 56.97 0 0 1-.78-3.25c-.06-.3-.08-1.82-.34-2.07.16.15-2.4-.09-1.07.3.46.14 1.04.12 1.52.18a1030.08 1030.08 0 0 0 20.65 2.24c17.85 1.74 35.71 1.31 53.59 2.43.4.02 1.58-.11 1.92.14.38.29-.3 2.83-.49 3.8-.92 4.94-2.48 9.79-3.9 14.6a295.09 295.09 0 0 1-10.02 27.92l1.4-.75c-7.65.33-15.24-1.07-22.9-.78l1.17.68c-.02-5.19-.16-10.4-.05-15.59.03-1.67.68-5.08-1.73-5.26-2.74-.2-2.51 2.98-2.52 4.82-.02 5.47-.08 10.94-.14 16.4l1.48-.96c-7.7.35-15.4.61-23.12.67-1.09 0-2.76 1.68-.98 1.67"
        fill="#6A79A8"
      ></path>
      <path
        _ngcontent-jhh-c668=""
        d="M82.82 155.58c-.96-1.03-4.03-.68-5.24-.74-3.82-.2-7.64-.32-11.47-.44-6.84-.22-13.67-.34-20.51-.44-8.76-.12-17.55-1.16-26.25-2.07-3.9-.4-7.8-.83-11.7-1.28-1.51-.17-3.8-.9-5.34-.48-1.33.36-1.4 1.42-1.26 2.59.44 3.68 1.73 7.38 2.8 10.91a489.52 489.52 0 0 0 7.36 22.22c5.15 14.55 10.5 29.15 17.23 43.05 1.36 2.82 2.78 5.6 4.28 8.35 1.45 2.64 3.45 7.07 6.42 8.41 2.75 1.24 3.93-1.16 4.07-3.42.36-6.06.41-12.15.55-18.21.2-9.16.37-18.32.57-27.47.07-3.4.15-6.81.25-10.22.03-.99.06-1.98.11-2.97.02-.35.23-1.42.04-1.12l-1.72.8-.85-.58c.71 2.05.13 5.22.14 7.39.02 3.25.03 6.5.03 9.76 0 6.3.02 12.59.05 18.88.03 6.11.09 12.22.18 18.33.04 2.4-.7 8.34 2.5 8.97 3.27.64 4.62-3.1 5.66-5.4 2.5-5.5 5.33-10.86 8-16.28a364.5 364.5 0 0 0 14.03-31.76 250.94 250.94 0 0 0 6.08-18.1c1.7-5.76 4.54-12.38 4.1-18.46-.09-1.15-2.73-.54-2.64.7.37 5.09-2.02 10.66-3.4 15.47a261.23 261.23 0 0 1-5.03 15.7 320.38 320.38 0 0 1-11.49 27.54c-2.33 5-4.8 9.92-7.24 14.86-1.18 2.39-2.37 4.78-3.53 7.18-.83 1.69-1.46 3.91-2.55 5.46-1.47 2.09-1.53-.73-1.65-2.02-.27-2.77-.2-5.6-.23-8.39-.06-5.39-.1-10.78-.13-16.17-.03-6.3-.03-12.6-.04-18.9 0-3.07-.02-6.15-.04-9.22-.01-1.83.45-4.48-.16-6.25-.13-.37-.48-.53-.85-.58h-.01a1.8 1.8 0 0 0-1.72.8c-.44.7-.22 2.14-.25 2.9-.1 2.43-.15 4.85-.2 7.27-.18 7.16-.31 14.32-.46 21.48-.15 7.25-.29 14.5-.5 21.74-.07 2.29-.13 4.58-.26 6.87-.02.28.09 1.46-.12 1.69-.2.21-4.8-6.92-5.29-7.83-7.01-12.76-12.26-26.42-17.32-40.04-5.04-13.55-10.39-27.37-13.64-41.49-.15-.65-.14-1.76-.45-2.32-.53-.95.64-.82-.86-.6-2.09.32-.55.23-.41.33.5.33 1.84.21 2.43.28 3.3.39 6.6.75 9.9 1.11 8.52.92 17.06 1.82 25.62 2.29 6.86.38 13.77.29 20.64.48a918 918 0 0 1 12.92.44c1.62.07 3.23.14 4.85.25.48.03 1.04.16 1.52.11.65-.06.6.37.06-.22.78.85 3.3-.2 2.42-1.14"
        fill="#6A79A8"
      ></path>
      <path
        _ngcontent-jhh-c668=""
        d="M20.29 161.85a14.45 14.45 0 0 1-4.22 9.9c-.5.5 2 .18 2.44-.26A15.07 15.07 0 0 0 23 161.13c.01-.33-2.7-.01-2.71.72M64 164.94a19.04 19.04 0 0 0 4.86 9.93c.46.48 2.5-.47 2.09-.9a18.55 18.55 0 0 1-4.72-9.72c-.11-.6-2.34 0-2.23.69"
        fill="#6A79A8"
      ></path>
      <path
        _ngcontent-jhh-c668=""
        d="M1 149.85c1.63-33.66 17.87-97.98 47.26-82.48C66.99 77.25 76.83 118.56 82 159c0 0-34.1-.26-45.34-1.75-9.53-1.26-35.66-7.4-35.66-7.4"
        fill="#E5E5E5"
      ></path>
      <path
        _ngcontent-jhh-c668=""
        d="M59 47.82C59 30.25 51.39 16 42 16S25 30.25 25 47.82v3.15c0 9.75.82 16.54 2.24 21.26C30.17 81.95 41.64 86 41.64 86S53.4 82.02 56.4 73.34C58.05 68.59 59 61.5 59 50.97v-3.15"
        fill="#E5E5E5"
      ></path>
      <path
        _ngcontent-jhh-c668=""
        d="M33.13 85.79a19.3 19.3 0 0 1-3.61-2.2c-2.12-1.63-4.98-6.63-5.47-8.38-.68-2.4 5.67-3.3 6.96-3.44 4.2-.46 14.37-1.2 18.32-.45 3.14.59 8.96 1.1 8.66 4.67-.32 3.79-6.06 9.66-9.36 10.82a17.55 17.55 0 0 1-9.6.87 25.42 25.42 0 0 1-5.9-1.9"
        fill="#FFF"
      ></path>
      <path
        _ngcontent-jhh-c668=""
        d="M6 150.65c.99-20.08 5.55-51.88 15.56-70.34l.18.36c4.52 8.4 11 10.2 18.94 9.4a20.58 20.58 0 0 0 16.86-14.04c.05-.14.18.23.27.34C70.5 92.71 77.8 125.64 82 158c0 0-34.05-.26-45.3-1.72-9.51-1.23-30.7-5.63-30.7-5.63"
        fill="#FFF"
      ></path>
      <path
        _ngcontent-jhh-c668=""
        d="M24.02 76.2c5.12 16.74 29.84 17.3 34.96.26.29-.96-2.39-.6-2.67.35-2.12 7.05-8.8 11.65-15.82 10.7-6.38-.87-11.84-5.65-13.8-12.06-.3-.98-2.96-.2-2.67.75M78.86 157.11c-12.62-.16-25.35-.18-37.92-1.34-12.02-1.1-24.13-3.96-35.83-6.74-1.16-.27-3.1 1.35-1.5 1.73 11.9 2.83 24.2 5.76 36.43 6.88 12.8 1.18 25.76 1.2 38.6 1.36 1.52.02 2-1.86.22-1.89"
        fill="#6A79A8"
      ></path>
      <path
        _ngcontent-jhh-c668=""
        d="M40.9 16C50.33 16 58 30.24 58 47.8v3.15c0 10.53-.96 17.6-2.61 22.36-3.03 8.67-14.83 12.64-14.85 12.65-1.25.42-5.2-2.6-6.12-3.22a24.38 24.38 0 0 1-5.91-5.42c-.8-1.07-2.69-3.42-2.5-4.83.03-.18 1.2-.1 1.2-.1s-.1-5.96-.11-8.56c0-2.42-.14-7.01.03-10.9.47-10.33 2.73-21.1 6.04-30.87C34.44 18.3 36.8 16 40.89 16"
        fill="#FFF"
      ></path>
      <path
        _ngcontent-jhh-c668=""
        d="M52.95 60.35c-1.43.72-3.16.76-4.67 1.32a5.46 5.46 0 0 0-3.25 2.93c-.32.68 2.23.43 2.57-.3 1.15-2.48 4.61-2.14 6.94-3.32.44-.22.65-.55.23-.86-.41-.3-1.44.04-1.82.23"
        fill="#6A79A8"
      ></path>
      <path
        _ngcontent-jhh-c668=""
        d="M56.75 75.44c8.39 10 12.81 23.03 16.3 35.37 4.4 15.63 7.13 31.7 9.27 47.76l1.85-1.13c-10.2-.08-20.39-.28-30.57-.69-5.72-.23-11.5-.4-17.16-1.28-6.64-1.02-13.23-2.44-19.8-3.84-4.83-1.03-9.67-2.09-14.48-3.18l.52.58c.75-14.2 3.48-28.43 7.56-42.07 3.6-12.01 8.3-25.84 17.6-34.8.14-.14.32-.37.26-.6-2.39-7.92-2.39-16.46-2.3-24.65.1-8.7 1.84-18.48 7.46-25.48 2.1-2.62 5.09-5.06 8.67-4.86 3.35.19 6.19 2.4 8.26 4.85 5.8 6.86 7.68 16.74 7.84 25.43.15 8.7.22 18-2.66 26.33-.32.94 2.37.61 2.69-.31 2.45-7.1 2.65-14.9 2.67-22.33.01-7.8-.56-15.55-3.67-22.82-2.2-5.16-5.92-10.82-11.75-12.34-5.1-1.34-10.18 1.06-13.57 4.8-4.93 5.43-7.22 13.01-8.15 20.11-1.04 7.92-.75 16.49.27 24.4.21 1.69.5 3.38.88 5.05.15.63.5 1.37.52 2 0 .47.44-.73.1.24-.07.2-.5.48-.66.64a37.13 37.13 0 0 0-4.97 6.42c-3.9 6.06-6.83 12.73-9.28 19.47A177.24 177.24 0 0 0 0 149.35c-.02.34.2.5.53.58 10.8 2.47 21.63 4.92 32.56 6.75 12.3 2.06 25.04 1.9 37.48 2.14 4.19.08 8.38.15 12.57.18.6 0 1.96-.3 1.85-1.14-2.17-16.36-4.95-32.74-9.52-48.63-3.5-12.17-7.96-24.96-16.23-34.85-.62-.73-3.19.22-2.49 1.06"
        fill="#6A79A8"
      ></path>
      <path
        _ngcontent-jhh-c668=""
        d="M69.15 95.73c7.96-5.46 15.94-11.27 21.83-19.1 6.75-8.97 9.06-20.1 11-30.97.2-1.1-2.45-.69-2.62.3-1.87 10.42-4.02 21.15-10.33 29.85-5.69 7.86-13.66 13.62-21.54 19.02-1.47 1 .76 1.52 1.66.9"
        fill="#6A79A8"
      ></path>
      <path
        _ngcontent-jhh-c668=""
        d="M47.34 38.36c1.7-.31 3.5-.37 5.03-.5A318.4 318.4 0 0 0 112.82 27c-4.12 3.76-8.46 7.9-9.56 13.4-.83 4.14.37 8.52 2.66 12.05 2.28 3.53 5.57 6.29 9.08 8.55-20.84-3.73-41.72-7.46-62.81-9.1-2.46-.19-5.02-.38-7.25-1.53-2.56-1.33-4.46-4.11-3.81-7.1.21-.99.67-1.92 1.36-2.64 1.25-1.3 3-1.93 4.85-2.27"
        fill="#FFF"
      ></path>
      <path
        _ngcontent-jhh-c668=""
        d="M69.27 53.55c-8.83-.42-10.56-15.65-1.08-16.1.91-.04 2.86-1.53 1.08-1.45-4.9.23-9.7 3.4-10.23 8.9C58.5 50.68 63 54.76 68.2 55c.94.04 2.86-1.37 1.08-1.45M93.18 56.23a12.21 12.21 0 0 1-10.42-11.18 11.8 11.8 0 0 1 9.7-12.4c1.69-.3 1.22-1.92-.45-1.61-6.8 1.26-12.18 7-12 14 .16 6.87 5.52 11.92 12.18 12.95 1.21.18 2.8-1.48 1-1.76"
        fill="#6A79A8"
      ></path>
      <path
        _ngcontent-jhh-c668=""
        d="M140 44a18 18 0 1 1-36 0 18 18 0 0 1 36 0"
        fill="#BBDFF5"
      ></path>
      <path
        _ngcontent-jhh-c668=""
        d="M115.5 60.54c-8.65-1.36-17.31-2.65-25.94-4.11-9.77-1.66-19.48-3.6-29.36-4.5l-10.17-.91c-2.1-.2-5.14-.03-7.08-.96a5.94 5.94 0 0 1-2.93-7.34c.83-2.24 2.71-3.15 4.96-3.33 2.63-.2 5.27-.48 7.9-.71 4.37-.4 8.85-.56 13.19-1.25 5.89-.93 11.75-2.17 17.61-3.25 9.9-1.83 19.65-4.4 29.44-6.76 1.6-.38 1.23-1.74-.37-1.35l-16.2 3.91c-2.23.54-4.46 1.1-6.7 1.62-.49.11.12-.01.05 0l-.66.12-3.45.64-18.75 3.47c-4.52.83-9.24.94-13.81 1.35-5.1.46-13-.22-15.58 5.2-2.03 4.27.96 9 5.51 9.65 1.93.27 3.92.34 5.86.51l10.9.99 3.93.35c.43.04 1.57.17 1.2.11 5.7.81 11.38 1.94 17.07 2.9 10.57 1.8 21.17 3.43 31.77 5.1.86.14 3.1-1.22 1.6-1.45"
        fill="#6A79A8"
      ></path>
      <path
        _ngcontent-jhh-c668=""
        d="M127.13 50.17l-.13.1a7.91 7.91 0 0 1-5.83 1.68 8.07 8.07 0 0 1-7.13-8.83 7.95 7.95 0 0 1 8.8-7.07c2.1.23 4 1.27 5.35 2.92a7.98 7.98 0 0 1-1.06 11.2"
        fill="#FFF"
      ></path>
      <path
        _ngcontent-jhh-c668=""
        d="M122.14 46.98a3.54 3.54 0 0 1-3.12-3.87 3.47 3.47 0 0 1 3.84-3.09 3.54 3.54 0 0 1 3.12 3.87 3.47 3.47 0 0 1-3.84 3.09"
        fill="#6A79A8"
      ></path>
      <path
        _ngcontent-jhh-c668=""
        d="M138.33 44.65c-.15 7.08-3.97 13.7-10.5 16.44-6.88 2.89-14.88.28-19.4-5.61-9.45-12.27.71-32 16.37-28.32 7.92 1.85 13.36 9.28 13.53 17.49.02 1.26 2.69.73 2.67-.29-.17-8.29-5.1-15.62-12.84-18.32a20.02 20.02 0 0 0-21.36 5.78 19.83 19.83 0 0 0-2.25 22.66 19.25 19.25 0 0 0 20.16 9.2A20 20 0 0 0 141 44.36c.03-1.25-2.65-.75-2.67.29M12.28 94.95c5.27 3.62 11.96 4.8 18.27 5.01 6.2.21 12.64-.48 18.46-2.67 13.6-5.13 24-17.78 26.34-31.93.69-4.17.88-8.48.33-12.68-.29-2.19-.85-8.62-3.92-8.68-1.07-.02-2.81 1.55-1.01 1.59.75.01 1.76 4.96 1.9 5.62.49 2.41.69 4.88.66 7.35-.04 4.03-.6 8.15-1.74 12.03-2.37 7.99-7.58 15.14-14.23 20.23-6.19 4.74-13.31 7.05-21.08 7.5-7.4.44-15.64-.42-21.87-4.7-.77-.53-3.21.57-2.1 1.33"
        fill="#6A79A8"
      ></path>
      <path
        _ngcontent-jhh-c668=""
        d="M16 35.55c.14 2.48 3.16 3.51 5.15 3.94 5.7 1.22 11.45 0 17.07-.9 5.85-.95 15.83-3.34 17.28-4.33.1-.06.37-.3.37-.3 1.15-9.6-5.4-17.8-14.56-18.85-9.12-1.05-17.45 5.8-18.66 15.3h-.05c-1.47.28-2.88.76-4.07 1.43-1.34.76-2.62 1.98-2.53 3.7"
        fill="#E5E5E5"
      ></path>
      <path
        _ngcontent-jhh-c668=""
        d="M19 32.1c.04 2.53 3.01 3.7 4.98 4.21 5.63 1.46 11.4.25 17.03-.46 5.87-.73 11.72-1.98 17.44-3.55l.32.12c1.52-9.74-4.62-18.8-13.72-20.23-9.06-1.42-17.64 5.25-19.22 14.92l-.05-.01c-1.48.23-2.9.66-4.12 1.3-1.36.73-2.68 1.93-2.66 3.7"
        fill="#9FCDED"
      ></path>
      <path
        _ngcontent-jhh-c668=""
        d="M19.06 32.3c-.07.24-.08.5-.03.8.33 1.71 2.1 2.8 3.66 3.2 5.68 1.48 11.48.26 17.17-.45 5.92-.74 11.82-2 17.59-3.59l.32.13c1.53-9.8-4.66-18.9-13.84-20.36-.74-.12-1.6.14-2.3.32-1.47.4-2.94.92-4.24 1.75a13.9 13.9 0 0 0-3.91 3.9c-.63.9-1.17 1.86-1.62 2.86-.45 1-.9 2.07-1.06 3.16-.12.87-.19 1.75-.26 2.63 0 0-6.71 2.83-8 3.34-1.17.45-3.1 1.03-3.48 2.31"
        fill="#BBDFF5"
      ></path>
      <path
        _ngcontent-jhh-c668=""
        d="M25.64 28.2c1.62-8.85 9.77-16.51 19.46-13.38 8.15 2.64 12.16 11.09 11.05 19l2.6-.8c-10.76-4.3-22.3-5.63-33.85-5.13-.73.03-2.91 1.13-1.15 1.06 11.06-.47 22.19.85 32.48 4.97.58.23 2.48-.02 2.6-.8 1.37-9.87-5.41-19.7-16.13-20.1A19.23 19.23 0 0 0 23 28.63c-.1.62 2.52.2 2.64-.45"
        fill="#6A79A8"
      ></path>
      <path
        _ngcontent-jhh-c668=""
        d="M56.55 31.38a148.45 148.45 0 0 1-23.6 4.5c-3.77.42-7.92.64-11.48-.92-1.5-.65-3.14-1.87-2.73-3.81.51-2.41 3.64-3.07 5.58-3.44 1.66-.32 1.19-1.98-.44-1.67-2.97.57-7.86 2.18-7.88 6.12-.02 3.7 4.53 4.95 7.31 5.45 5.43.99 10.97-.13 16.36-.87a129.2 129.2 0 0 0 17.31-3.7c1.61-.44 1.2-2.12-.43-1.66M43.73 14.14c.4-1.59.36-3.17-.13-4.75-.26-.84-3.86-.2-3.59.68.46 1.47.5 2.92.14 4.4-.23.94 3.38.51 3.58-.33"
        fill="#6A79A8"
      ></path>
      <path
        _ngcontent-jhh-c668=""
        d="M50.02 9.7c-5.68.66-11.2-1.1-15.48-4.56-.6-.5-3.02.44-2.46.9 4.89 3.94 11.12 5.52 17.51 4.78 1.17-.13 2.27-1.33.43-1.12"
        fill="#6A79A8"
      ></path>
      <path
        _ngcontent-jhh-c668=""
        d="M48.52 1.51a25.8 25.8 0 0 1-16.17 9.47c-1.46.22-2.02 2.27-.23 2A29.45 29.45 0 0 0 50.74 2.32c1.07-1.32-1.44-1.78-2.22-.82M55.8 5.32c.71-2.37-.52-4.66-2.76-5.27-.5-.14-1.13.04-1.58.29-.2.1-.76.54-.25.68 1.97.54 2.99 2.65 2.37 4.7-.16.54 2.02.25 2.22-.4M35.12 1.11c-3.6-.58-7.07 1.19-8.09 4.17-.37 1.1 2.46.85 2.81-.18.58-1.7 2.3-2.6 4.33-2.27 1.37.22 2.8-1.42.95-1.72"
        fill="#6A79A8"
      ></path>
      <path
        _ngcontent-jhh-c668=""
        d="M29.48.06a7.13 7.13 0 0 0-5.07 9.28c.45 1.29 3.11.5 2.68-.76-.95-2.73.04-5.82 2.88-6.56 1.67-.43 1.17-2.39-.5-1.96M58.5 9.48a6.5 6.5 0 0 0 .14-8.13c-.7-.9-3.29.1-2.49 1.13a5.14 5.14 0 0 1 .11 6.3c-1.02 1.31 1.54 1.6 2.25.7"
        fill="#6A79A8"
      ></path>
      <path
        _ngcontent-jhh-c668=""
        d="M56.64 256.03c-.93-.42-1.27-.92-.82-1.53 3.1-4.19 17.04-4.24 23.8-4.33 8.5-.1 17.35-.33 25.01.58 3.2.38 10.47.67 11.7 2.06 3.26 3.64-19.9 4.96-23.66 5.06-6.25.17-30.72.54-36.03-1.84"
        fill="#E3E3E3"
      ></path>
      <path
        _ngcontent-jhh-c668=""
        d="M70.56 236.36H98c.54 0 .74-.72.09-.72H70.65c-.54 0-.74.72-.09.72"
        fill="#FFF"
      ></path>
      <path
        _ngcontent-jhh-c668=""
        fill="#EFEFEF"
        d="M67.97 225.54h23.98v-20.2H67.97z"
      ></path>
      <path
        _ngcontent-jhh-c668=""
        d="M87.46 219.05H73.83c-.2 0-1.1.72-.64.72h13.63c.2 0 1.1-.72.64-.72M86.57 214.72H72.99c-.43 0-1.02.72-.36.72H86.2c.43 0 1.02-.72.36-.72M87.33 210.4H73.7c-.32 0-1.04.71-.39.71h13.61c.33 0 1.05-.72.4-.72"
        fill="#FFF"
      ></path>
      <path
        _ngcontent-jhh-c668=""
        d="M86.5 170a28.69 28.69 0 0 0-28.7 28.68v17.48h8.28V198.9a20.41 20.41 0 0 1 40.84 0v9.6h8.28v-9.81A28.69 28.69 0 0 0 86.5 170"
        fill="#EFEFEF"
      ></path>
      <path
        _ngcontent-jhh-c668=""
        d="M87.97 170h-1.54c-13.01 0-26.25 12.84-26.25 28.68l-.2 17.48h5.98V198.9c0-11.27 9.16-20.4 20.47-20.4h-1.51c17.12-1.06 24.5 9.13 24.5 20.4v9.6h5.78v-11.35A27.19 27.19 0 0 0 87.97 170"
        fill="#FFF"
      ></path>
      <path
        _ngcontent-jhh-c668=""
        d="M115.9 202.49c0-2.17.09-4.35-.1-6.51a27.88 27.88 0 0 0-2.97-10.3A29.1 29.1 0 0 0 97.6 172c-13.33-5.22-29.18.1-36.48 12.2a27.94 27.94 0 0 0-3.85 11.31c-.28 2.51-.17 5.06-.17 7.59 0 .18.96.04.96-.26 0-1.92-.06-3.86.03-5.78.17-3.5 1.01-6.96 2.47-10.16a28.5 28.5 0 0 1 14.18-14.07 28.76 28.76 0 0 1 36.51 11.97 27.91 27.91 0 0 1 3.5 10.63c.29 2.42.2 4.87.2 7.3 0 .2.96.05.96-.24"
        fill="#637082"
      ></path>
      <path
        _ngcontent-jhh-c668=""
        d="M66.05 202.86c0-3.79-.07-7.47 1.32-11.07a20.16 20.16 0 0 1 10.09-10.87c9.86-4.68 22-.11 26.72 9.42a19.8 19.8 0 0 1 2.04 8.1c.05 1.52.02 3.04.02 4.57 0 .16.96.03.96-.26 0-1.38.02-2.77 0-4.16a19.87 19.87 0 0 0-1.78-7.92 20.67 20.67 0 0 0-11-10.48c-9.85-4.01-21.78.12-26.86 9.3a19.92 19.92 0 0 0-2.44 8.54c-.1 1.69-.03 3.39-.03 5.08 0 .17.96.03.96-.25"
        fill="#637082"
      ></path>
      <path
        _ngcontent-jhh-c668=""
        d="M96.7 254.4H76.3c-13.43 0-24.3-10.69-24.3-23.87v-20.45a4.78 4.78 0 0 1 4.82-4.74h59.36a4.78 4.78 0 0 1 4.83 4.74v20.45c0 13.18-10.88 23.86-24.3 23.86"
        fill="#96E296"
      ></path>
      <path
        _ngcontent-jhh-c668=""
        d="M98.97 252.95H76.94c-12.17 0-22.04-9.68-22.04-21.63v-21.9a4.11 4.11 0 0 1 4.15-4.08h57.8c2.3 0 4.16 1.83 4.16 4.08v21.9c0 11.95-9.87 21.63-22.04 21.63"
        fill="#B9F7BA"
      ></path>
      <path
        _ngcontent-jhh-c668=""
        d="M115.95 244.4a23.23 23.23 0 0 1-17.71 10.16c-2.42.15-4.88.04-7.3.04H79.76c-2.83 0-5.66.11-8.45-.43a23.75 23.75 0 0 1-19.07-22.23c-.2-5.95-.02-11.92-.02-17.87 0-2.43-.59-5.86 1.67-7.5 1.25-.9 2.96-.69 4.42-.69h57.49a4.25 4.25 0 0 1 4.06 2.96c.25.83.19 1.72.19 2.58v15.34c0 2.84.15 5.73-.36 8.53-.6 3.27-1.9 6.35-3.74 9.12-.23.34.72.25.89 0a24.78 24.78 0 0 0 4.17-14.02v-9.6-9.96c0-1.13-.02-2.2-.64-3.22a4.8 4.8 0 0 0-4.15-2.24c-4.17-.06-8.34 0-12.5 0H60.34c-1.3 0-2.6-.02-3.91 0-1.6.03-3.16.64-4.17 1.9-.84 1.05-1 2.26-1 3.53v19.56c0 3.96.65 7.79 2.43 11.38 2.3 4.66 6.15 8.5 10.84 10.83a25.93 25.93 0 0 0 11.7 2.54H95.85c5.23 0 10.33-1.34 14.65-4.3a24.8 24.8 0 0 0 6.34-6.4c.23-.34-.72-.25-.9 0"
        fill="#637082"
      ></path>
      <path
        _ngcontent-jhh-c668=""
        d="M92.68 242.13H80.32l2.95-13.44a5.5 5.5 0 0 1-2.95-4.84 5.6 5.6 0 0 1 5.68-5.52 5.6 5.6 0 0 1 5.68 5.52c0 2.08-1.2 3.9-1.95 4.84l2.95 13.44"
        fill="#EFEFEF"
      ></path>
      <path
        _ngcontent-jhh-c668=""
        d="M91.24 240.69h-7.88a.7.7 0 0 1-.7-.82l2.05-10.56a.7.7 0 0 0-.28-.68 5 5 0 0 1-1.93-4.01c0-2.68 1.98-4.85 4.41-4.85 2.44 0 4.41 2.17 4.41 4.85a7.5 7.5 0 0 1-1.36 4.03.68.68 0 0 0-.1.5l2.08 10.72a.7.7 0 0 1-.7.82"
        fill="#FFF"
      ></path>
      <path
        _ngcontent-jhh-c668=""
        d="M83.38 228.03c-3.35-1.9-3.89-6.71-.56-8.92 3.23-2.14 7.54.12 8.04 3.67.27 1.96-.62 3.64-1.7 5.23-.27.41-.15.62-.05 1.1l1.24 5.65 1.22 5.55c.09.41.31.93-.26 1.12-.54.17-1.44 0-2 0h-6.7c-.67 0-1.79.3-1.85-.7-.02-.32.17-.76.24-1.08l2.5-11.39c.1-.46-.91-.34-1 .07l-2.54 11.61c-.1.48-.33 1.06-.1 1.53.37.74 1.28.64 2 .64h7.36c1.28 0 3.75.34 3.43-1.62-.33-1.94-.85-3.87-1.27-5.8-.45-2.05-.95-4.1-1.35-6.16-.02-.08-.07-.19-.06-.27.02-.14.02 0 .02.02.11-.28.43-.59.6-.84.27-.43.52-.88.72-1.35.73-1.7.84-3.59-.02-5.26-1.7-3.32-6.3-4.24-9.32-2a5.77 5.77 0 0 0 .65 9.74c.36.2 1.23-.27.76-.54"
        fill="#637082"
      ></path>
    </g>
  </svg>