<svg viewBox="0 0 707 160" xmlns="http://www.w3.org/2000/svg" fill-rule="evenodd" clip-rule="evenodd" stroke-linejoin="round" stroke-miterlimit="1.414"><path d="M211.554 55.166h12.811v51.246h-12.811V55.166zm14.093-14.487c0 2.496-.559 4.287-1.676 5.371-1.117 1.084-3.088 1.626-5.913 1.626s-4.796-.542-5.913-1.626c-1.117-1.084-1.675-2.875-1.675-5.371 0-2.431.558-4.205 1.675-5.322s3.088-1.675 5.913-1.675 4.796.558 5.913 1.675 1.676 2.891 1.676 5.322zM234.812 106.412V71.525c0-3.219.46-5.979 1.379-8.278.92-2.3 2.333-4.156 4.238-5.568 1.905-1.413 4.336-2.448 7.293-3.105 2.956-.657 6.471-.985 10.545-.985 8.147 0 14.076 1.363 17.788 4.09 3.712 2.726 5.568 7.342 5.568 13.846v34.887h-12.811v-33.31c0-1.511-.099-2.825-.296-3.942-.197-1.117-.641-2.053-1.33-2.809-.69-.755-1.741-1.314-3.154-1.675-1.413-.361-3.334-.542-5.765-.542-2.431 0-4.353.181-5.765.542-1.413.361-2.481.92-3.203 1.675-.723.756-1.183 1.692-1.38 2.809-.197 1.117-.296 2.431-.296 3.942v33.31h-12.811zM320.649 106.412h-7.982c-4.139 0-7.539-.296-10.2-.887-2.661-.591-4.764-1.626-6.308-3.104-1.543-1.478-2.611-3.466-3.202-5.963-.592-2.496-.887-5.617-.887-9.362V43.241l12.811-2.069v13.994h18.429l-2.069 10.545h-16.36v20.695c0 1.971.115 3.581.345 4.829.23 1.249.657 2.218 1.281 2.908.624.689 1.511 1.149 2.661 1.379 1.15.23 2.612.345 4.386.345h9.165l-2.07 10.545zM342.133 85.125c0 2.365.132 4.304.395 5.815.262 1.511.804 2.693 1.626 3.547.821.855 1.954 1.446 3.4 1.774 1.445.329 3.35.493 5.716.493h7.884c2.956 0 6.602-.066 10.939-.197l-1.971 9.855c-1.84.066-3.482.115-4.928.148a183.53 183.53 0 01-4.188.049h-8.328c-4.664 0-8.508-.525-11.53-1.577-3.022-1.051-5.404-2.562-7.145-4.533-1.741-1.971-2.957-4.385-3.646-7.243-.69-2.858-1.035-6.127-1.035-9.806v-5.519c0-3.942.361-7.424 1.084-10.446.723-3.023 1.987-5.569 3.794-7.638 1.807-2.07 4.238-3.63 7.293-4.681 3.055-1.051 6.915-1.577 11.579-1.577 4.337 0 7.934.476 10.792 1.429 2.858.953 5.157 2.283 6.898 3.991a14.293 14.293 0 013.696 6.061c.723 2.332 1.084 4.878 1.084 7.638v1.675c0 2.234-.131 4.057-.394 5.47-.263 1.412-.706 2.513-1.331 3.301a4.465 4.465 0 01-2.414 1.577c-.986.263-2.201.394-3.647.394h-25.623zm10.644-21.878c-2.234 0-4.041.181-5.42.542-1.38.361-2.464 1.018-3.253 1.971-.788.953-1.314 2.234-1.576 3.843-.263 1.61-.395 3.663-.395 6.16h21.189v-2.267c0-1.905-.165-3.515-.493-4.829-.329-1.314-.887-2.365-1.675-3.153-.789-.789-1.873-1.364-3.253-1.725-1.379-.361-3.087-.542-5.124-.542zM406.881 94.192c2.365 0 4.271-.181 5.716-.542 1.445-.362 2.595-.969 3.449-1.823.854-.855 1.429-2.004 1.725-3.45.296-1.445.443-3.285.443-5.519V78.03c0-2.891-.098-5.257-.295-7.096-.197-1.84-.69-3.285-1.478-4.336-.789-1.052-1.939-1.774-3.45-2.168-1.511-.395-3.548-.592-6.11-.592-2.562 0-4.599.197-6.11.592-1.511.394-2.661 1.116-3.449 2.168-.789 1.051-1.281 2.496-1.479 4.336-.197 1.839-.295 4.205-.295 7.096v1.971c0 2.89.115 5.256.345 7.095.23 1.84.722 3.285 1.478 4.336.756 1.052 1.889 1.774 3.4 2.168 1.511.395 3.548.592 6.11.592zm11.333 6.701c-1.314 1.051-2.989 1.906-5.026 2.563-2.036.657-4.763.985-8.179.985-4.271 0-7.835-.493-10.693-1.478-2.858-.986-5.158-2.48-6.899-4.484-1.741-2.004-2.989-4.517-3.745-7.539-.755-3.023-1.133-6.538-1.133-10.545v-2.76c0-3.876.345-7.309 1.035-10.298.69-2.99 1.954-5.503 3.794-7.539 1.84-2.037 4.32-3.581 7.441-4.632 3.12-1.051 7.112-1.577 11.974-1.577 4.927 0 8.968.542 12.121 1.626 3.154 1.084 5.634 2.612 7.441 4.583 1.807 1.971 3.038 4.352 3.695 7.145.657 2.792.986 5.896.986 9.313v25.426c0 3.942-.443 7.325-1.33 10.15s-2.316 5.125-4.287 6.899-4.501 3.071-7.589 3.893c-3.088.821-6.833 1.232-11.235 1.232h-7.982a254.1 254.1 0 01-4.78-.05 698.807 698.807 0 01-6.159-.148l2.069-10.249c1.84.066 3.499.115 4.977.148 1.478.033 2.858.049 4.139.049h7.145c2.234 0 4.123-.18 5.667-.542 1.544-.361 2.808-.985 3.794-1.872.986-.887 1.692-2.119 2.119-3.696.427-1.577.64-3.548.64-5.913v-.69zM454.284 106.412h-12.812V72.708c0-3.285.46-6.061 1.38-8.328.92-2.266 2.267-4.09 4.041-5.469 1.774-1.38 3.942-2.382 6.504-3.006 2.562-.624 5.486-.936 8.771-.936h6.406c1.774 0 3.515.033 5.223.098l-2.07 10.644a149.258 149.258 0 00-4.336-.148 193.834 193.834 0 00-3.942-.049c-2.102 0-3.745.197-4.927.591-1.183.394-2.103.969-2.76 1.725-.657.755-1.067 1.708-1.232 2.857-.164 1.15-.246 2.514-.246 4.09v31.635zM501.884 53.589c4.402 0 8.147.394 11.235 1.183 3.088.788 5.617 2.118 7.588 3.991 1.971 1.872 3.4 4.385 4.287 7.539s1.33 7.096 1.33 11.826v5.322c0 4.73-.443 8.672-1.33 11.826-.887 3.153-2.316 5.667-4.287 7.539-1.971 1.872-4.5 3.203-7.588 3.991-3.088.789-6.833 1.183-11.235 1.183-4.468 0-8.246-.394-11.333-1.183-3.088-.788-5.618-2.119-7.589-3.991-1.971-1.872-3.4-4.386-4.287-7.539-.887-3.154-1.33-7.096-1.33-11.826v-5.322c0-4.73.443-8.672 1.33-11.826s2.316-5.667 4.287-7.539c1.971-1.873 4.501-3.203 7.589-3.991 3.087-.789 6.865-1.183 11.333-1.183zm11.432 24.342c0-3.022-.164-5.47-.493-7.342-.329-1.873-.903-3.302-1.725-4.287-.821-.986-1.971-1.643-3.449-1.971-1.478-.329-3.4-.493-5.765-.493-2.365 0-4.303.164-5.815.493-1.511.328-2.677.985-3.498 1.971-.821.985-1.396 2.414-1.725 4.287-.328 1.872-.493 4.32-.493 7.342v5.814c0 3.023.165 5.454.493 7.293.329 1.84.904 3.252 1.725 4.238.821.985 1.987 1.642 3.498 1.971 1.512.328 3.45.493 5.815.493s4.287-.165 5.765-.493c1.478-.329 2.628-.986 3.449-1.971.822-.986 1.396-2.398 1.725-4.238.329-1.839.493-4.27.493-7.293v-5.814zM652.174 97.148v-7.982c0-1.183-.115-2.185-.345-3.006-.23-.821-.707-1.495-1.429-2.02-.723-.526-1.741-.904-3.055-1.134-1.314-.23-3.055-.345-5.224-.345h-1.478c-3.745 0-6.274.46-7.588 1.38-1.314.92-1.971 2.595-1.971 5.026v1.873c0 2.102.607 3.662 1.823 4.681 1.215 1.018 3.466 1.527 6.751 1.527h12.516zm12.417 0c0 3.482-.788 5.897-2.365 7.244-1.577 1.347-4.304 2.02-8.18 2.02h-16.064c-7.03 0-12.006-1.314-14.93-3.942-2.924-2.628-4.386-6.406-4.386-11.333v-2.168c0-5.454 1.61-9.412 4.829-11.876 3.22-2.463 8.246-3.695 15.079-3.695 3.416 0 6.258.279 8.524.837 2.267.559 3.959 1.199 5.076 1.922v-1.774c0-1.774-.181-3.252-.542-4.435-.362-1.182-.97-2.118-1.824-2.808-.854-.69-2.02-1.167-3.498-1.429-1.478-.263-3.334-.395-5.568-.395h-4.139c-1.512 0-3.039.017-4.583.05l-4.583.098c-1.511.033-2.89.05-4.139.05l2.07-10.348c1.839-.066 4.139-.115 6.898-.148 2.76-.033 5.782-.049 9.067-.049 8.015 0 13.896 1.412 17.641 4.237 3.744 2.825 5.617 7.26 5.617 13.305v24.637zM703.617 106.412h-7.983c-4.139 0-7.539-.296-10.2-.887-2.66-.591-4.763-1.626-6.307-3.104-1.544-1.478-2.611-3.466-3.203-5.963-.591-2.496-.887-5.617-.887-9.362V43.241l12.812-2.069v13.994h18.429l-2.07 10.545h-16.359v20.695c0 1.971.115 3.581.345 4.829.23 1.249.657 2.218 1.281 2.908.624.689 1.511 1.149 2.661 1.379 1.15.23 2.611.345 4.385.345h9.166l-2.07 10.545zM535.785 89.062V71.328c0-3.285.46-6.061 1.38-8.327.92-2.267 2.283-4.09 4.09-5.47s4.024-2.382 6.652-3.006c2.628-.624 5.65-.936 9.067-.936 3.547 0 6.685.493 9.411 1.478 2.727.986 4.846 2.398 6.357 4.238 1.511-1.84 3.646-3.252 6.406-4.238 2.759-.985 5.945-1.478 9.559-1.478 3.351 0 6.34.312 8.968.936 2.628.624 4.845 1.626 6.652 3.006 1.807 1.38 3.17 3.203 4.09 5.47.92 2.266 1.38 5.042 1.38 8.327v35.084h-12.812v-33.31c0-1.511-.082-2.825-.246-3.942-.164-1.117-.542-2.053-1.133-2.809-.592-.755-1.495-1.314-2.711-1.675-1.215-.361-2.841-.542-4.878-.542-1.905 0-3.416.164-4.533.493-1.117.328-2.004.821-2.661 1.478s-1.084 1.478-1.281 2.464c-.197.985-.296 2.135-.296 3.449v25.774h-12.811v-24.69c0-1.511-.083-2.825-.247-3.942-.164-1.117-.558-2.053-1.182-2.809-.625-.755-1.528-1.314-2.711-1.675-1.182-.361-2.792-.542-4.829-.542-2.036 0-3.646.181-4.829.542-1.182.361-2.069.92-2.66 1.675-.592.756-.969 1.692-1.134 2.809-.164 1.117-.246 2.431-.246 3.942v15.96h-12.812z" fill="#000" fill-rule="nonzero"/><path d="M53.344 4.556v29.275c-15.93 9.222-26.656 26.453-26.656 46.17 0 29.423 23.888 53.311 53.312 53.311 29.424 0 53.312-23.888 53.312-53.311 0-19.717-10.726-36.948-26.656-46.17V4.556c31.065 10.989 53.343 40.636 53.343 75.445C159.999 124.153 124.153 160 80 160S0 124.153 0 80.001C0 45.192 22.28 15.545 53.344 4.556z" fill="#000"/><path d="M66.672 1.108A80.425 80.425 0 0180 0c4.541 0 8.993.38 13.328 1.108v27.263A53.343 53.343 0 0080 26.689c-4.601 0-9.068.584-13.328 1.682V1.108zM66.672 104.437V42.296A39.843 39.843 0 0180 40.017c4.672 0 9.158.802 13.328 2.279v62.141A39.868 39.868 0 0180 106.716c-4.672 0-9.158-.803-13.328-2.279z" fill="#000"/></svg>