<svg width="514" height="306" fill="none" xmlns="http://www.w3.org/2000/svg"><rect x="14" y="14" width="486" height="278" rx="5" fill="#FBFCFC" filter="url(#filter0_d)"/><rect width="453.307" height="17.8937" rx="4" transform="matrix(-1 0 0 1 484.3 41.4)" fill="#4FBDFA"/><rect width="453.307" height="17.8937" rx="5" transform="matrix(-1 0 0 1 485.5 41.4)" fill="#fff"/><rect x="-.5" y=".5" width="452.307" height="16.8937" rx="4.5" transform="matrix(-1 0 0 1 484.5 41.4)" stroke="#979797" stroke-opacity="0.112899"/><path fill-rule="evenodd" clip-rule="evenodd" d="M100.19 49.16H40.54V53h59.65v-3.84z" fill="#E9E9E9"/><path fill-rule="evenodd" clip-rule="evenodd" d="M78.12 31H31v3.84h47.12V31z" fill="#4FBDFA"/><rect x="427.05" y="46.77" width="11.3327" height="8.35039" rx="3" fill="#E9E9E9"/><rect x="406.77" y="46.77" width="17.2972" height="8.35039" rx="3" fill="#CACACA"/><rect opacity="0.370528" x="447.23" y="45.48" width="10.3327" height="10.7374" rx="5.16634" stroke="#979797" stroke-dasharray="2"/><rect x="462.24" y="44.98" width="11.3327" height="11.7374" rx="5.66634" fill="#CACACA"/><rect x="468.2" y="44.98" width="11.3327" height="11.7374" rx="5.66634" fill="#E9E9E9"/><rect width="453.307" height="17.8937" rx="4" transform="matrix(-1 0 0 1 484.3 59.3)" fill="#4FBDFA"/><rect width="453.307" height="17.8937" rx="5" transform="matrix(-1 0 0 1 485.5 59.3)" fill="#fff"/><rect x="-.5" y=".5" width="452.307" height="16.8937" rx="4.5" transform="matrix(-1 0 0 1 484.5 59.3)" stroke="#979797" stroke-opacity="0.112899"/><path fill-rule="evenodd" clip-rule="evenodd" d="M171.76 67.05H40.54v3.84h131.22v-3.84z" fill="#E9E9E9"/><rect opacity="0.370528" x="447.23" y="63.37" width="10.3327" height="10.7374" rx="5.16634" stroke="#979797" stroke-dasharray="2"/><rect x="468.2" y="62.87" width="11.3327" height="11.7374" rx="5.66634" fill="#E9E9E9"/><rect width="453.307" height="17.8937" rx="4" transform="matrix(-1 0 0 1 484.3 77.19)" fill="#4FBDFA"/><rect width="453.307" height="17.8937" rx="5" transform="matrix(-1 0 0 1 485.5 77.19)" fill="#fff"/><rect x="-.5" y=".5" width="452.307" height="16.8937" rx="4.5" transform="matrix(-1 0 0 1 484.5 77.19)" stroke="#979797" stroke-opacity="0.112899"/><path fill-rule="evenodd" clip-rule="evenodd" d="M124.05 84.94h-83.5v3.84h83.5v-3.84z" fill="#E9E9E9"/><rect x="468.2" y="80.77" width="11.3327" height="11.7374" rx="5.66634" fill="#CACACA"/><rect width="453.307" height="17.8937" rx="4" transform="matrix(-1 0 0 1 484.3 95.08)" fill="#4FBDFA"/><rect width="453.307" height="17.8937" rx="5" transform="matrix(-1 0 0 1 485.5 95.08)" fill="#fff"/><rect x="-.5" y=".5" width="452.307" height="16.8937" rx="4.5" transform="matrix(-1 0 0 1 484.5 95.08)" stroke="#979797" stroke-opacity="0.112899"/><path fill-rule="evenodd" clip-rule="evenodd" d="M171.76 102.84H40.54v3.84h131.22v-3.84z" fill="#E9E9E9"/><rect x="468.2" y="98.66" width="11.3327" height="11.7374" rx="5.66634" fill="#E9E9E9"/><rect width="453.307" height="17.8937" rx="4" transform="matrix(-1 0 0 1 484.3 112.98)" fill="#4FBDFA"/><rect width="453.307" height="17.8937" rx="5" transform="matrix(-1 0 0 1 485.5 112.98)" fill="#fff"/><rect x="-.5" y=".5" width="452.307" height="16.8937" rx="4.5" transform="matrix(-1 0 0 1 484.5 112.98)" stroke="#979797" stroke-opacity="0.112899"/><path fill-rule="evenodd" clip-rule="evenodd" d="M124.05 120.73h-83.5v3.84h83.5v-3.84z" fill="#E9E9E9"/><rect x="421.68" y="118.34" width="17.2972" height="8.35039" rx="3" fill="#CACACA"/><rect opacity="0.370528" x="447.23" y="117.06" width="10.3327" height="10.7374" rx="5.16634" stroke="#979797" stroke-dasharray="2"/><rect x="462.24" y="116.56" width="11.3327" height="11.7374" rx="5.66634" fill="#CACACA"/><rect x="468.2" y="116.56" width="11.3327" height="11.7374" rx="5.66634" fill="#E9E9E9"/><rect width="453.307" height="17.8937" rx="4" transform="matrix(-1 0 0 1 484.3 158.3)" fill="#CF7FD2"/><rect width="453.307" height="17.8937" rx="5" transform="matrix(-1 0 0 1 485.5 158.3)" fill="#fff"/><rect x="-.5" y=".5" width="452.307" height="16.8937" rx="4.5" transform="matrix(-1 0 0 1 484.5 158.3)" stroke="#979797" stroke-opacity="0.112899"/><path fill-rule="evenodd" clip-rule="evenodd" d="M100.19 166.06H40.54v3.84h59.65v-3.84z" fill="#E9E9E9"/><path fill-rule="evenodd" clip-rule="evenodd" d="M78.12 147.9H31v3.85h47.12v-3.84z" fill="#CF7FD2"/><rect x="427.05" y="163.68" width="11.3327" height="8.35039" rx="3" fill="#E9E9E9"/><rect opacity="0.370528" x="447.23" y="162.39" width="10.3327" height="10.7374" rx="5.16634" stroke="#979797" stroke-dasharray="2"/><rect x="462.24" y="161.89" width="11.3327" height="11.7374" rx="5.66634" fill="#CACACA"/><rect x="468.2" y="161.89" width="11.3327" height="11.7374" rx="5.66634" fill="#E9E9E9"/><rect width="453.307" height="17.8937" rx="4" transform="matrix(-1 0 0 1 484.3 176.2)" fill="#CF7FD2"/><rect width="453.307" height="17.8937" rx="5" transform="matrix(-1 0 0 1 485.5 176.2)" fill="#fff"/><rect x="-.5" y=".5" width="452.307" height="16.8937" rx="4.5" transform="matrix(-1 0 0 1 484.5 176.2)" stroke="#979797" stroke-opacity="0.112899"/><path fill-rule="evenodd" clip-rule="evenodd" d="M231.41 183.96H40.54v3.84h190.87v-3.84z" fill="#E9E9E9"/><rect opacity="0.370528" x="447.23" y="180.28" width="10.3327" height="10.7374" rx="5.16634" stroke="#979797" stroke-dasharray="2"/><rect x="468.2" y="179.78" width="11.3327" height="11.7374" rx="5.66634" fill="#E9E9E9"/><rect width="453.307" height="17.8937" rx="4" transform="matrix(-1 0 0 1 484.3 194.1)" fill="#CF7FD2"/><rect width="453.307" height="17.8937" rx="5" transform="matrix(-1 0 0 1 485.5 194.1)" fill="#fff"/><rect x="-.5" y=".5" width="452.307" height="16.8937" rx="4.5" transform="matrix(-1 0 0 1 484.5 194.1)" stroke="#979797" stroke-opacity="0.112899"/><path fill-rule="evenodd" clip-rule="evenodd" d="M124.05 201.85h-83.5v3.84h83.5v-3.84z" fill="#E9E9E9"/><rect x="468.2" y="197.67" width="11.3327" height="11.7374" rx="5.66634" fill="#CACACA"/><rect width="453.307" height="17.8937" rx="4" transform="matrix(-1 0 0 1 484.3 237.64)" fill="#8FD27F"/><rect width="453.307" height="17.8937" rx="5" transform="matrix(-1 0 0 1 485.5 237.64)" fill="#fff"/><rect x="-.5" y=".5" width="452.307" height="16.8937" rx="4.5" transform="matrix(-1 0 0 1 484.5 237.64)" stroke="#979797" stroke-opacity="0.112899"/><path fill-rule="evenodd" clip-rule="evenodd" d="M100.19 245.39H40.54v3.84h59.65v-3.84z" fill="#E9E9E9"/><path fill-rule="evenodd" clip-rule="evenodd" d="M78.12 227.23H31v3.84h47.12v-3.84z" fill="#8FD27F"/><rect opacity="0.370528" x="447.23" y="241.72" width="10.3327" height="10.7374" rx="5.16634" stroke="#979797" stroke-dasharray="2"/><rect x="462.24" y="241.22" width="11.3327" height="11.7374" rx="5.66634" fill="#CACACA"/><rect x="468.2" y="241.22" width="11.3327" height="11.7374" rx="5.66634" fill="#E9E9E9"/><rect width="453.307" height="17.8937" rx="4" transform="matrix(-1 0 0 1 484.3 255.53)" fill="#8FD27F"/><rect width="453.307" height="17.8937" rx="5" transform="matrix(-1 0 0 1 485.5 255.53)" fill="#fff"/><rect x="-.5" y=".5" width="452.307" height="16.8937" rx="4.5" transform="matrix(-1 0 0 1 484.5 255.53)" stroke="#979797" stroke-opacity="0.112899"/><path fill-rule="evenodd" clip-rule="evenodd" d="M231.41 263.28H40.54v3.85h190.87v-3.85z" fill="#E9E9E9"/><rect opacity="0.370528" x="447.23" y="259.61" width="10.3327" height="10.7374" rx="5.16634" stroke="#979797" stroke-dasharray="2"/><rect x="468.2" y="259.11" width="11.3327" height="11.7374" rx="5.66634" fill="#E9E9E9"/><rect x="421.68" y="243" width="17.2972" height="8.35039" rx="3" fill="#CACACA"/><defs><filter id="filter0_d" x="0" y="0" width="514" height="306" filterUnits="userSpaceOnUse" color-interpolation-filters="sRGB"><feFlood flood-opacity="0" result="BackgroundImageFix"/><feColorMatrix in="SourceAlpha" values="0 0 0 0 0 0 0 0 0 0 0 0 0 0 0 0 0 0 127 0"/><feOffset/><feGaussianBlur stdDeviation="7"/><feColorMatrix values="0 0 0 0 0 0 0 0 0 0 0 0 0 0 0 0 0 0 0.08 0"/><feBlend in2="BackgroundImageFix" result="effect1_dropShadow"/><feBlend in="SourceGraphic" in2="effect1_dropShadow" result="shape"/></filter></defs></svg>