<svg width="16" height="16" viewBox="0 0 16 16" fill="none" xmlns="http://www.w3.org/2000/svg">
<path d="M3.51245 6.99995C3.51245 6.41064 3.62852 5.82711 3.85404 5.28266C4.07956 4.73821 4.4101 4.24351 4.82681 3.82681C5.24351 3.41011 5.73821 3.07956 6.28266 2.85404C6.82711 2.62852 7.41064 2.51245 7.99995 2.51245C8.58926 2.51245 9.17279 2.62852 9.71724 2.85404C10.2617 3.07956 10.7564 3.41011 11.1731 3.82681C11.5898 4.24351 11.9203 4.73821 12.1459 5.28266C12.3714 5.82711 12.4874 6.41064 12.4874 6.99995V6.99995C12.4874 9.23745 12.9562 10.5375 13.3687 11.25C13.4125 11.3258 13.4356 11.4119 13.4357 11.4995C13.4358 11.5871 13.4128 11.6732 13.3691 11.7492C13.3255 11.8251 13.2626 11.8883 13.1868 11.9323C13.1111 11.9763 13.0251 11.9996 12.9374 12H3.06245C2.97483 11.9996 2.88883 11.9763 2.81307 11.9323C2.7373 11.8883 2.67443 11.8251 2.63076 11.7492C2.58708 11.6732 2.56413 11.5871 2.56421 11.4995C2.56429 11.4119 2.58739 11.3258 2.6312 11.25C3.0437 10.5375 3.51245 9.23745 3.51245 6.99995Z" stroke="#3761EE" stroke-width="2" stroke-linecap="round" stroke-linejoin="round"/>
<path d="M6 12V12.5C6 13.0304 6.21071 13.5391 6.58579 13.9142C6.96086 14.2893 7.46957 14.5 8 14.5C8.53043 14.5 9.03914 14.2893 9.41421 13.9142C9.78929 13.5391 10 13.0304 10 12.5V12" stroke="#3761EE" stroke-width="2" stroke-linecap="round" stroke-linejoin="round"/>
<path d="M11.4626 1.5C12.4807 2.14263 13.3023 3.05292 13.8376 4.13125" stroke="#3761EE" stroke-width="2" stroke-linecap="round" stroke-linejoin="round"/>
<path d="M2.16235 4.13125C2.69768 3.05292 3.51932 2.14263 4.53735 1.5" stroke="#3761EE" stroke-width="2" stroke-linecap="round" stroke-linejoin="round"/>
</svg>
