<svg width="17" height="16" viewBox="0 0 17 16" fill="none" xmlns="http://www.w3.org/2000/svg">
<path d="M6 14.5C6.55228 14.5 7 14.0523 7 13.5C7 12.9477 6.55228 12.5 6 12.5C5.44772 12.5 5 12.9477 5 13.5C5 14.0523 5.44772 14.5 6 14.5Z" fill="#3761EE"/>
<path d="M12.5 14.5C13.0523 14.5 13.5 14.0523 13.5 13.5C13.5 12.9477 13.0523 12.5 12.5 12.5C11.9477 12.5 11.5 12.9477 11.5 13.5C11.5 14.0523 11.9477 14.5 12.5 14.5Z" fill="#3761EE"/>
<path d="M3.64375 4.5H14.8562L13.2063 10.275C13.1474 10.4846 13.0213 10.669 12.8474 10.8C12.6735 10.931 12.4614 11.0013 12.2437 11H6.25625C6.03855 11.0013 5.82647 10.931 5.65258 10.8C5.47869 10.669 5.35262 10.4846 5.29375 10.275L3.03125 2.3625C3.00135 2.25797 2.9382 2.16604 2.85136 2.10062C2.76452 2.03521 2.65872 1.99989 2.55 2H1.5" stroke="#3761EE" stroke-width="2" stroke-linecap="round" stroke-linejoin="round"/>
</svg>
