<!DOCTYPE svg PUBLIC "-//W3C//DTD SVG 1.1//EN" "http://www.w3.org/Graphics/SVG/1.1/DTD/svg11.dtd">
<!-- Uploaded to: SVG Repo, www.svgrepo.com, Transformed by: SVG Repo Mixer Tools -->
<svg fill="#3761EE" height="64px" width="64px" version="1.1" id="Layer_1" xmlns="http://www.w3.org/2000/svg" xmlns:xlink="http://www.w3.org/1999/xlink" viewBox="0 0 469.333 469.333" xml:space="preserve" stroke="#3761EE" stroke-width="4.6933300000000004">
<g id="SVGRepo_bgCarrier" stroke-width="0"/>
<g id="SVGRepo_tracerCarrier" stroke-linecap="round" stroke-linejoin="round"/>
<g id="SVGRepo_iconCarrier"> <g> <g> <path d="M373.333,149.333h-64c-5.888,0-10.667,4.768-10.667,10.667c0,5.899,4.779,10.667,10.667,10.667h64 c5.888,0,10.667-4.768,10.667-10.667C384,154.101,379.221,149.333,373.333,149.333z"/> </g> </g> <g> <g> <path d="M266.667,149.333H224c-5.888,0-10.667,4.768-10.667,10.667c0,5.899,4.779,10.667,10.667,10.667h42.667 c5.888,0,10.667-4.768,10.667-10.667C277.333,154.101,272.555,149.333,266.667,149.333z"/> </g> </g> <g> <g> <path d="M437.333,192h-10.667V32c0-17.643-14.357-32-32-32H32C14.357,0,0,14.357,0,32v213.333c0,17.643,14.357,32,32,32h10.667 v160c0,17.643,14.357,32,32,32h362.667c17.643,0,32-14.357,32-32V224C469.333,206.357,454.976,192,437.333,192z M21.333,32 c0-5.888,4.789-10.667,10.667-10.667h362.667c5.877,0,10.667,4.779,10.667,10.667v42.667h-384V32z M42.667,224v32H32 c-5.877,0-10.667-4.779-10.667-10.667V128h384v64H74.667C57.024,192,42.667,206.357,42.667,224z M448,437.333 c0,5.888-4.789,10.667-10.667,10.667H74.667C68.789,448,64,443.221,64,437.333V224c0-5.888,4.789-10.667,10.667-10.667h362.667 c5.877,0,10.667,4.779,10.667,10.667V437.333z"/> </g> </g> <g> <g> <path d="M256,234.667c-52.928,0-96,43.061-96,96s43.072,96,96,96s96-43.061,96-96C352,277.728,308.928,234.667,256,234.667z M256,405.333c-41.173,0-74.667-33.504-74.667-74.667C181.333,289.504,214.827,256,256,256s74.667,33.504,74.667,74.667 C330.667,371.829,297.173,405.333,256,405.333z"/> </g> </g> <g> <g> <circle cx="96" cy="330.667" r="10.667"/> </g> </g> <g> <g> <circle cx="138.667" cy="330.667" r="10.667"/> </g> </g> <g> <g> <circle cx="373.333" cy="330.667" r="10.667"/> </g> </g> <g> <g> <circle cx="416" cy="330.667" r="10.667"/> </g> </g> <g> <g> <path d="M263.616,320h-21.333v-9.141h32c5.888,0,10.667-4.768,10.667-10.667s-4.779-10.667-10.667-10.667h-7.616V288 c0-5.899-4.779-10.667-10.667-10.667c-5.888,0-10.667,4.768-10.667,10.667v1.525h-3.051c-11.765,0-21.333,9.568-21.333,21.333V320 c0,11.765,9.568,21.333,21.333,21.333h21.333v9.141h-32c-5.888,0-10.667,4.768-10.667,10.667s4.779,10.667,10.667,10.667h7.616 v1.525c0,5.899,4.779,10.667,10.667,10.667s10.667-4.768,10.667-10.667v-1.525h3.051c11.765,0,21.333-9.568,21.333-21.333v-9.141 C284.949,329.568,275.381,320,263.616,320z"/> </g> </g> </g>
</svg>