<svg width="18" height="16" viewBox="0 0 18 16" fill="none" xmlns="http://www.w3.org/2000/svg">
<path d="M9 11.25C10.3807 11.25 11.5 10.1307 11.5 8.75C11.5 7.36929 10.3807 6.25 9 6.25C7.61929 6.25 6.5 7.36929 6.5 8.75C6.5 10.1307 7.61929 11.25 9 11.25Z" stroke="#3761EE" stroke-width="2" stroke-linecap="round" stroke-linejoin="round"/>
<path d="M13.25 7.25001C13.8323 7.24903 14.4069 7.38415 14.9277 7.64458C15.4486 7.90501 15.9014 8.28355 16.25 8.75001" stroke="#3761EE" stroke-width="2" stroke-linecap="round" stroke-linejoin="round"/>
<path d="M1.75 8.75001C2.09862 8.28355 2.55142 7.90501 3.07229 7.64458C3.59315 7.38415 4.16766 7.24903 4.75 7.25001" stroke="#3761EE" stroke-width="2" stroke-linecap="round" stroke-linejoin="round"/>
<path d="M5.40009 13.5001C5.72935 12.8258 6.24139 12.2575 6.87786 11.86C7.51434 11.4625 8.24967 11.2517 9.00009 11.2517C9.7505 11.2517 10.4858 11.4625 11.1223 11.86C11.7588 12.2575 12.2708 12.8258 12.6001 13.5001" stroke="#3761EE" stroke-width="2" stroke-linecap="round" stroke-linejoin="round"/>
<path d="M4.74977 7.25C4.37017 7.25038 3.9983 7.14273 3.67761 6.93962C3.35692 6.73651 3.10066 6.44633 2.93876 6.10299C2.77687 5.75965 2.71602 5.37732 2.76334 5.00068C2.81066 4.62404 2.96419 4.26865 3.20599 3.97603C3.44779 3.6834 3.76787 3.46564 4.12884 3.34817C4.48981 3.2307 4.87675 3.21839 5.24445 3.31266C5.61216 3.40694 5.94544 3.60391 6.20536 3.88057C6.46528 4.15722 6.6411 4.50213 6.71227 4.875" stroke="#3761EE" stroke-width="2" stroke-linecap="round" stroke-linejoin="round"/>
<path d="M11.2874 4.875C11.3586 4.50213 11.5344 4.15722 11.7943 3.88057C12.0542 3.60391 12.3875 3.40694 12.7552 3.31266C13.1229 3.21839 13.5099 3.2307 13.8708 3.34817C14.2318 3.46564 14.5519 3.6834 14.7937 3.97603C15.0355 4.26865 15.189 4.62404 15.2363 5.00068C15.2837 5.37732 15.2228 5.75965 15.0609 6.10299C14.899 6.44633 14.6428 6.73651 14.3221 6.93962C14.0014 7.14273 13.6295 7.25038 13.2499 7.25" stroke="#3761EE" stroke-width="2" stroke-linecap="round" stroke-linejoin="round"/>
</svg>
