<svg width="56" height="56" viewBox="0 0 56 56" fill="none" xmlns="http://www.w3.org/2000/svg">
<rect width="56" height="56" rx="8" fill="url(#paint0_linear_457_26009)"/>
<path d="M19.3528 23.99C18.6734 23.99 18.0396 23.8788 17.4513 23.6563C16.8631 23.4338 16.3494 23.1231 15.9103 22.7242C15.4711 22.3252 15.1273 21.8573 14.8787 21.3202C14.6384 20.7755 14.5183 20.1886 14.5183 19.5596C14.5183 18.9228 14.6384 18.3359 14.8787 17.7989C15.119 17.2619 15.4587 16.7939 15.8978 16.395C16.337 15.996 16.8506 15.6892 17.4389 15.4743C18.0272 15.2519 18.6652 15.1406 19.3528 15.1406C20.0405 15.1406 20.6785 15.2519 21.2668 15.4743C21.855 15.6968 22.3687 16.0075 22.8078 16.4065C23.247 16.7977 23.5867 17.2619 23.827 17.7989C24.0755 18.3359 24.1998 18.9228 24.1998 19.5596C24.1998 20.1886 24.0755 20.7755 23.827 21.3202C23.5784 21.8573 23.2345 22.3252 22.7954 22.7242C22.3563 23.1231 21.8426 23.4338 21.2543 23.6563C20.6744 23.8788 20.0405 23.99 19.3528 23.99ZM19.3528 22.5631C19.8085 22.5631 20.2269 22.4902 20.6081 22.3444C20.9892 22.191 21.3206 21.98 21.6023 21.7115C21.8923 21.443 22.1119 21.1246 22.261 20.7564C22.4184 20.3881 22.4971 19.9892 22.4971 19.5596C22.4971 19.1299 22.4184 18.7348 22.261 18.3743C22.1119 18.006 21.8923 17.6877 21.6023 17.4191C21.3206 17.143 20.9892 16.932 20.6081 16.7862C20.2269 16.6405 19.8085 16.5676 19.3528 16.5676C18.9054 16.5676 18.4912 16.6405 18.11 16.7862C17.7289 16.932 17.3933 17.143 17.1034 17.4191C16.8217 17.6877 16.6021 18.006 16.4447 18.3743C16.2872 18.7348 16.2085 19.1299 16.2085 19.5596C16.2085 19.9892 16.2872 20.3881 16.4447 20.7564C16.6021 21.1246 16.8217 21.443 17.1034 21.7115C17.3933 21.98 17.7289 22.191 18.11 22.3444C18.4912 22.4902 18.9054 22.5631 19.3528 22.5631Z" fill="white"/>
<path d="M25.7027 23.8519V15.2787H27.0201L32.1156 21.6309L31.4321 21.7575V15.2787H33.1223V23.8519H31.7925L26.7715 17.4537L27.3929 17.3271V23.8519H25.7027Z" fill="white"/>
<path d="M34.9146 23.8519V15.2787H41.0665V16.6596H36.6048V18.8576H40.8179V20.2385H36.6048V22.471H41.0665V23.8519H34.9146Z" fill="white"/>
<path d="M20.5253 41.6894C19.3578 41.6894 18.3193 41.4556 17.4098 40.988C16.5138 40.5204 15.8079 39.8774 15.2921 39.0591C14.7762 38.2408 14.5183 37.3121 14.5183 36.273V26.9404H17.2876V36.1366C17.2876 36.7341 17.4234 37.2732 17.6949 37.7537C17.9799 38.2343 18.3668 38.611 18.8555 38.8838C19.3442 39.1436 19.9008 39.2735 20.5253 39.2735C21.1633 39.2735 21.7199 39.1436 22.195 38.8838C22.6837 38.611 23.0638 38.2343 23.3353 37.7537C23.6204 37.2732 23.7629 36.7341 23.7629 36.1366V26.9404H26.5322V36.273C26.5322 37.3121 26.2743 38.2408 25.7584 39.0591C25.2426 39.8774 24.5299 40.5204 23.6204 40.988C22.7244 41.4556 21.6927 41.6894 20.5253 41.6894Z" fill="white"/>
<path d="M28.0548 41.4556L33.0233 34.1493L28.0955 26.9404H31.2721L35.3039 32.8439H33.8378L37.8492 26.9404H41.0257L36.1184 34.1493L41.0665 41.4556H37.8899L33.8378 35.4742H35.3039L31.2313 41.4556H28.0548Z" fill="white"/>
<defs>
<linearGradient id="paint0_linear_457_26009" x1="28" y1="0" x2="28" y2="56" gradientUnits="userSpaceOnUse">
<stop stop-color="#5CEEB5"/>
<stop offset="1" stop-color="#53DEA8"/>
</linearGradient>
</defs>
</svg>
