<svg width="16" height="16" viewBox="0 0 16 16" fill="none" xmlns="http://www.w3.org/2000/svg">
<path d="M8 11C9.65685 11 11 9.65685 11 8C11 6.34315 9.65685 5 8 5C6.34315 5 5 6.34315 5 8C5 9.65685 6.34315 11 8 11Z" stroke="#3761EE" stroke-width="2" stroke-linecap="round" stroke-linejoin="round"/>
<path d="M11.4811 4.0686C11.6395 4.21444 11.7895 4.36444 11.9311 4.5186L13.6374 4.76235C13.9154 5.24517 14.1297 5.76197 14.2749 6.29985L13.2374 7.6811C13.2374 7.6811 13.2561 8.1061 13.2374 8.3186L14.2749 9.69985C14.1304 10.238 13.916 10.7549 13.6374 11.2374L11.9311 11.4811C11.9311 11.4811 11.6374 11.7874 11.4811 11.9311L11.2374 13.6374C10.7546 13.9154 10.2378 14.1296 9.69988 14.2749L8.31863 13.2374C8.10655 13.2561 7.89322 13.2561 7.68113 13.2374L6.29988 14.2749C5.76177 14.1303 5.24489 13.916 4.76238 13.6374L4.51863 11.9311C4.36447 11.7853 4.21447 11.6353 4.06863 11.4811L2.36238 11.2374C2.08437 10.7545 1.87009 10.2377 1.72488 9.69985L2.76238 8.3186C2.76238 8.3186 2.74363 7.8936 2.76238 7.6811L1.72488 6.29985C1.86942 5.76174 2.08374 5.24486 2.36238 4.76235L4.06863 4.5186C4.21447 4.36444 4.36447 4.21444 4.51863 4.0686L4.76238 2.36235C5.2452 2.08434 5.762 1.87006 6.29988 1.72485L7.68113 2.76235C7.89322 2.7436 8.10655 2.7436 8.31863 2.76235L9.69988 1.72485C10.238 1.86939 10.7549 2.0837 11.2374 2.36235L11.4811 4.0686Z" stroke="#3761EE" stroke-width="2" stroke-linecap="round" stroke-linejoin="round"/>
</svg>
