<svg version="1.1" id="Layer_2" xmlns="http://www.w3.org/2000/svg" x="0" y="0" viewBox="0 0 2871 561" xml:space="preserve"><style>.st3{fill:#5c6691}.st5{fill-rule:evenodd;clip-rule:evenodd;fill:#1e457e}.st6{fill:#7098a4}.st7{fill-rule:evenodd;clip-rule:evenodd;fill:#5a869a}.st8{fill:#1e457e}</style><path fill="#e8762c" d="M368.2 257.2h-76.1v-82.7h-29.9v82.7H186v29.4h76.2v82.8h29.9v-82.8h76.1z"/><path fill="#c62036" d="M215.2 392.3H147v-74.1h-25.9v74.1H52.9v22.6h68.2V489H147v-74.1h68.2z"/><path fill="#5a869a" d="M501.4 127.3h-68.2V52.8h-25.9v74.5h-68.2v22.6h68.2v73.7h25.9v-73.7h68.2z"/><path class="st3" d="M334.9 474.6h-46.3v-51.7h-22v51.7h-46.3v19.9h46.3v51.7h22v-51.7h46.3z"/><path fill="#eb9028" d="M215.2 127.3h-69V52.8H122v74.5H52.9v21.9H122v74.4h24.2v-74.4h69z"/><path class="st3" d="M553.8 261.9h-46.3v-51.6h-22.1v51.6h-46.2v20h46.2v51.7h22.1v-51.7h46.3z"/><path class="st5" d="M501.4 392.3h-68.2v-74.1h-25.9v74.1h-68.2v22.6h68.2V489h25.9v-74.1h68.2z"/><path class="st6" d="M269.3 0v50.7h-45.7V66h45.7v50.8h16.5V66h45.8V50.7h-45.8V0zM108.1 263.9h-46v-49.7H46v49.7H0v16l46-.3v50h16.1v-50.1l46-.2z"/><path class="st7" d="M803 554.8c5.6 3.4 11.6 5 18.2 5 13.2 0 20.7-6 20.7-15.6 0-5.8-2.3-10.2-6.9-13.1-3.9-2.4-8.3-3.8-13-5.6-4.8-1.8-7-3.7-7-5.8 0-2.7 2.6-4.2 7.7-4.2 4.8 0 10.4 1.9 17.1 5.2V510c-6-2.9-12-4.3-17.8-4.3-12 0-19.8 6.4-19.8 15.1 0 9.5 6.4 13.9 19.6 18.5 4.6 1.6 7 2.6 7 5.7s-2.7 4.7-7.8 4.7c-5.9 0-11.3-2.5-17.8-6.6v11.7zM1060.1 532.9c0 7.7 2.8 14.5 8.2 19.5 5.3 5 11.9 7.5 20.2 7.5 8.3 0 15-2.5 20.3-7.5 5.4-5.1 8.2-11.7 8.2-19.5 0-7.8-2.8-14.5-8.2-19.6-5.3-5-12-7.4-20.3-7.4s-14.9 2.4-20.2 7.4c-5.4 5.1-8.2 11.7-8.2 19.6m13.4 0c0-9.4 6.3-16.1 14.9-16.1 8.7 0 15 6.6 15 16.1 0 9.4-6.3 16-15 16-8.6 0-14.9-6.6-14.9-16M1349.2 559h13.1v-21.6h19.4v-9.7h-19.4v-11.4h20.7v-9.6h-33.8zM1627.5 559h13.8v-42.6h17.3v-9.7h-48.4v9.7h17.3zM1890.9 559.4h5.4l11.8-32.7 11.8 32.7h5.5l21.2-52.7h-13.7l-10.1 28.5-10.3-28.5h-8.7l-10.3 28.4-10.2-28.4h-13.6zM2144.4 559h14l4.2-10.2h22.5l3.8 10.2h13.9l-20.4-52.3h-15.1l-22.9 52.3zm21.9-19.2l8.1-19.9 7.3 19.9h-15.4zM2415.1 559h13.1v-21.3c.5 0 1-.1 1.5-.1 5.1 0 7.4 1.6 9.5 6.3l6.7 15.1h14.8l-8.4-17.9c-1.5-3.4-3.6-5.6-6.2-6.6 6.3-2.8 9.1-6.9 9.1-12.6 0-10.5-6.8-15.2-20.9-15.2H2415V559zm19.4-30.9h-6.3v-12.2h6.3c4.7 0 7.2 2.2 7.2 6 0 4.2-2.3 6.2-7.2 6.2M2677.8 559h35.6v-9.8h-22.5v-12.5h20.9V527h-20.9v-10.7h21.9v-9.6h-35z"/><path class="st5" d="M1473.2 229.3c18-7.1 34-9.2 44.3-9.2 51.1 0 85.7 35.9 85.7 92.3 0 58.4-36.3 92.6-100.3 92.6-22.2 0-44-4.3-66.9-12l-1.1-258.5h38.3v94.8zm33.5 140.5c35.8 0 56.3-20.5 56.3-57 0-35.9-20.6-57.4-52.8-57.4-14 0-27.3 4.8-37 9.3v98.7c11.8 4.3 22.9 6.4 33.5 6.4M1762.3 98.2h37.9v339.3h-37.9zM2009.4 292.3h87c-1-23.2-13.4-35.2-35.6-36.6-22.2-1.4-43.9 12.9-51.4 36.6m43 113.4c-58.4-5.7-86.8-46.7-85.2-95.3 1.8-52.5 35.8-89.8 87.6-89.8 54.4 0 85.9 40.2 83.2 99.6h-130.9c3.1 32.9 22.9 48.4 49.9 50.5 22.5 1.7 54.2-3.3 71.4-14.1v36.2c-22.7 10.9-46.3 15.8-76 12.9M2699.8 375.9c24 0 40.2-12.2 40.2-39.7V224h38.3v117c0 39.1-30.3 62.9-78.6 62.9-48.2 0-78.5-23.8-78.5-62.9V224h38.3v112.2c0 27.4 16.3 39.7 40.3 39.7M1182.8 405c-64 .2-100.3-34.2-100.3-92.6 0-56.4 34.6-92.3 85.7-92.3 17.3 0 31.5 3.8 44.3 12.1v-12.9h38.3l-1.1 173.7c-16.2 7-42.6 11.9-66.9 12m-3.9-35.2c8.7-.1 19.3-.8 32.8-4.2l.7-97.9c-12.3-8.4-24.1-12.4-37-12.4-32.2 0-52.8 21.5-52.8 57.4.1 36.6 20.6 57.6 56.3 57.1M2392.4 405c-64 .2-100.3-34.2-100.3-92.6 0-56.4 34.5-92.3 85.7-92.3 17.2 0 31.5 3.8 44.3 12.1v-12.9h38.3l-1.1 173.7c-16.2 7-42.6 11.9-66.9 12m-3.8-35.2c7.5 0 19.3-.8 32.8-4.2l.7-97.9c-12.3-8.4-24.1-12.4-37-12.4-32.2 0-52.8 21.5-52.8 57.4 0 36.6 20.5 57.2 56.3 57.1"/><g><path class="st8" d="M797.6 146.7h37.9v107.6h102.4v35.4H835.5v116.7h-37.9V289.7H695.2v-35.4h102.4zM2841.3 222.5c12.4 0 22.3 10.1 22.3 22.7 0 12.8-9.9 22.8-22.4 22.8-12.4 0-22.5-10-22.5-22.8 0-12.6 10.1-22.7 22.6-22.7zm0 3.5c-10 0-18.2 8.6-18.2 19.2 0 10.8 8.2 19.3 18.3 19.3 10.1.1 18.2-8.5 18.2-19.2-.1-10.7-8.1-19.3-18.3-19.3zm-4.3 32.4h-4v-25.3c2.1-.3 4.1-.6 7.2-.6 3.9 0 6.4.8 7.9 1.9 1.5 1.1 2.3 2.8 2.3 5.3 0 3.3-2.2 5.4-4.9 6.2v.2c2.2.4 3.7 2.4 4.2 6.2.6 3.9 1.2 5.4 1.6 6.3h-4.2c-.6-.8-1.2-3.1-1.7-6.5-.6-3.2-2.2-4.5-5.5-4.5h-2.8v10.8zm0-14h2.9c3.3 0 6.1-1.2 6.1-4.4 0-2.2-1.6-4.4-6.1-4.4-1.3 0-2.2.1-2.9.2v8.6z"/></g></svg>
