<svg width="128" height="56" viewBox="0 0 128 56" fill="none" xmlns="http://www.w3.org/2000/svg">
<path d="M26.3711 24.1953V17.8145H20.9043V37.6953H24.3496V41H13.5215V37.6953H16.8965V17.8145H11.4648V24.1953H8.19531V14.5098H29.6406V24.1953H26.3711ZM49.8906 32.6855H34.4043C34.627 34.4551 35.3125 35.8555 36.4609 36.8867C37.6094 37.9062 39.0156 38.416 40.6797 38.416C41.8984 38.416 43.0293 38.1641 44.0723 37.6602C45.1152 37.1562 45.9883 36.3828 46.6914 35.3398L49.8906 36.7812C48.8828 38.3516 47.5586 39.541 45.918 40.3496C44.2891 41.1465 42.5137 41.5449 40.5918 41.5449C38.5996 41.5449 36.8301 41.1289 35.2832 40.2969C33.7363 39.4648 32.5293 38.3047 31.6621 36.8164C30.8066 35.3281 30.3789 33.6523 30.3789 31.7891C30.3789 29.9375 30.8008 28.2676 31.6445 26.7793C32.5 25.291 33.666 24.1309 35.1426 23.2988C36.6191 22.4551 38.248 22.0332 40.0293 22.0332C41.9746 22.0332 43.668 22.4668 45.1094 23.334C46.5625 24.1895 47.7051 25.4199 48.5371 27.0254C49.3691 28.6191 49.8203 30.5059 49.8906 32.6855ZM40.0996 25.0566C38.7285 25.0566 37.5273 25.5195 36.4961 26.4453C35.4648 27.3594 34.8027 28.5723 34.5098 30.084H46.0762C45.7363 28.5723 45.0156 27.3594 43.9141 26.4453C42.8125 25.5195 41.541 25.0566 40.0996 25.0566ZM59.3652 33.582V37.7656H63.3906V41H52.0527V37.7656H55.7617V25.7773H52.0527V22.5254H58.6445V26.709C59.3828 25.0566 60.2969 23.9082 61.3867 23.2637C62.4883 22.6074 64.0586 22.2793 66.0977 22.2793H66.9238V25.9531H66.1328C64.1641 25.9531 62.6992 26.2109 61.7383 26.7266C60.7773 27.2422 60.1387 28.0215 59.8223 29.0645C59.5176 30.1074 59.3652 31.6133 59.3652 33.582ZM86.1719 31.7891C86.1719 33.582 85.7441 35.2227 84.8887 36.7109C84.0332 38.1992 82.8672 39.377 81.3906 40.2441C79.9141 41.1113 78.2793 41.5449 76.4863 41.5449C74.6348 41.5449 72.9648 41.1113 71.4766 40.2441C69.9883 39.377 68.8281 38.1992 67.9961 36.7109C67.1758 35.2227 66.7656 33.582 66.7656 31.7891C66.7656 29.9141 67.1758 28.2383 67.9961 26.7617C68.8281 25.2852 69.9824 24.1309 71.459 23.2988C72.9355 22.4551 74.6113 22.0332 76.4863 22.0332C78.3027 22.0332 79.9492 22.4785 81.4258 23.3691C82.9023 24.248 84.0625 25.4316 84.9062 26.9199C85.75 28.4082 86.1719 30.0312 86.1719 31.7891ZM76.4863 38.0117C77.5645 38.0117 78.5547 37.7305 79.457 37.168C80.3594 36.6055 81.0625 35.8496 81.5664 34.9004C82.0703 33.9512 82.3223 32.9141 82.3223 31.7891C82.3223 30.6875 82.0703 29.6621 81.5664 28.7129C81.0625 27.7637 80.3594 27.002 79.457 26.4277C78.5547 25.8418 77.5527 25.5488 76.4512 25.5488C75.373 25.5488 74.3828 25.8359 73.4805 26.4102C72.5781 26.9727 71.8691 27.7344 71.3535 28.6953C70.8379 29.6562 70.5801 30.6875 70.5801 31.7891C70.5801 32.8906 70.8379 33.9219 71.3535 34.8828C71.8691 35.8438 72.584 36.6055 73.498 37.168C74.4121 37.7305 75.4082 38.0117 76.4863 38.0117ZM97.9492 37.7656V41H88.2285V37.7656H91.498V17.709H88.2285V14.5098H95.1367V37.7656H97.9492ZM119.887 31.7891C119.887 33.582 119.459 35.2227 118.604 36.7109C117.748 38.1992 116.582 39.377 115.105 40.2441C113.629 41.1113 111.994 41.5449 110.201 41.5449C108.35 41.5449 106.68 41.1113 105.191 40.2441C103.703 39.377 102.543 38.1992 101.711 36.7109C100.891 35.2227 100.48 33.582 100.48 31.7891C100.48 29.9141 100.891 28.2383 101.711 26.7617C102.543 25.2852 103.697 24.1309 105.174 23.2988C106.65 22.4551 108.326 22.0332 110.201 22.0332C112.018 22.0332 113.664 22.4785 115.141 23.3691C116.617 24.248 117.777 25.4316 118.621 26.9199C119.465 28.4082 119.887 30.0312 119.887 31.7891ZM110.201 38.0117C111.279 38.0117 112.27 37.7305 113.172 37.168C114.074 36.6055 114.777 35.8496 115.281 34.9004C115.785 33.9512 116.037 32.9141 116.037 31.7891C116.037 30.6875 115.785 29.6621 115.281 28.7129C114.777 27.7637 114.074 27.002 113.172 26.4277C112.27 25.8418 111.268 25.5488 110.166 25.5488C109.088 25.5488 108.098 25.8359 107.195 26.4102C106.293 26.9727 105.584 27.7344 105.068 28.6953C104.553 29.6562 104.295 30.6875 104.295 31.7891C104.295 32.8906 104.553 33.9219 105.068 34.8828C105.584 35.8438 106.299 36.6055 107.213 37.168C108.127 37.7305 109.123 38.0117 110.201 38.0117Z" fill="#3761EE"/>
</svg>
