<!DOCTYPE svg PUBLIC "-//W3C//DTD SVG 1.1//EN" "http://www.w3.org/Graphics/SVG/1.1/DTD/svg11.dtd">
<!-- Uploaded to: SVG Repo, www.svgrepo.com, Transformed by: SVG Repo Mixer Tools -->
<svg fill="#3761EE" height="64px" width="64px" version="1.1" id="Layer_1" xmlns="http://www.w3.org/2000/svg" xmlns:xlink="http://www.w3.org/1999/xlink" viewBox="0 0 512 512" xml:space="preserve">
<g id="SVGRepo_bgCarrier" stroke-width="0"/>
<g id="SVGRepo_tracerCarrier" stroke-linecap="round" stroke-linejoin="round"/>
<g id="SVGRepo_iconCarrier"> <g> <g> <g> <path d="M405.333,192H234.667c-11.782,0-21.333,9.551-21.333,21.333c0,11.782,9.551,21.333,21.333,21.333h170.667 c11.782,0,21.333-9.551,21.333-21.333C426.667,201.551,417.115,192,405.333,192z"/> <path d="M106.667,234.667h42.667c11.782,0,21.333-9.551,21.333-21.333c0-11.782-9.551-21.333-21.333-21.333h-42.667 c-11.782,0-21.333,9.551-21.333,21.333C85.333,225.115,94.885,234.667,106.667,234.667z"/> <path d="M256,277.333H106.667c-11.782,0-21.333,9.551-21.333,21.333c0,11.782,9.551,21.333,21.333,21.333H256 c11.782,0,21.333-9.551,21.333-21.333C277.333,286.885,267.782,277.333,256,277.333z"/> <path d="M405.333,277.333h-64c-11.782,0-21.333,9.551-21.333,21.333c0,11.782,9.551,21.333,21.333,21.333h64 c11.782,0,21.333-9.551,21.333-21.333C426.667,286.885,417.115,277.333,405.333,277.333z"/> <path d="M490.667,149.333c-10.549,0-19.477-9.334-19.477-21.333c0-11.782-9.551-21.333-21.333-21.333H62.144 c-11.782,0-21.333,9.551-21.333,21.333c0,11.999-8.928,21.333-19.477,21.333C9.551,149.333,0,158.885,0,170.667v170.667 c0,11.782,9.551,21.333,21.333,21.333c10.549,0,19.477,9.334,19.477,21.333c0,11.782,9.551,21.333,21.333,21.333h387.712 c11.782,0,21.333-9.551,21.333-21.333c0-11.999,8.928-21.333,19.477-21.333c11.782,0,21.333-9.551,21.333-21.333V170.667 C512,158.885,502.449,149.333,490.667,149.333z M469.333,323.859c-17.418,6.544-31.118,20.874-37.272,38.808H79.939 c-6.154-17.934-19.854-32.264-37.272-38.808V188.141c17.418-6.544,31.118-20.874,37.272-38.808h352.123 c6.154,17.934,19.854,32.264,37.272,38.808V323.859z"/> </g> </g> </g> </g>
</svg>