<svg width="86" height="24" xmlns="http://www.w3.org/2000/svg"><defs><linearGradient x1="50%" y1="0%" x2="50%" y2="100%" id="a"><stop stop-color="#F7992E" offset="0%"/><stop stop-color="#F66622" offset="100%"/></linearGradient></defs><g fill-rule="nonzero" fill="none"><path d="M2.719 0H21.28A2.719 2.719 0 0124 2.719V21.28A2.719 2.719 0 0121.281 24H2.72A2.719 2.719 0 010 21.281V2.72A2.719 2.719 0 012.719 0z" fill="url(#a)" transform="translate(62)"/><path fill="#FFF" d="M75.327 12.955h-3.654V19H69V5h2.673v5.545h3.654V5H78v14h-2.673z"/><g transform="translate(31)"><circle fill="#E01B22" cx="12" cy="12" r="12"/><path d="M10.374 7v1.631c-1.594.602-2.719 2.06-2.719 3.765 0 2.241 1.945 4.058 4.345 4.058 2.4 0 4.345-1.817 4.345-4.058 0-1.704-1.125-3.163-2.72-3.765V7C16.15 7.662 18 9.827 18 12.396 18 15.49 15.314 18 12 18s-6-2.509-6-5.604C6 9.827 7.85 7.662 10.374 7z" fill="#FFF"/><path fill="#FFF" d="M11.25 5h1.5v8h-1.5z"/></g><g><path d="M19.906 2.972L17.782 4.62A9.335 9.335 0 0012 2.625a9.375 9.375 0 108.145 4.73l1.711-2.202A11.945 11.945 0 0124 12c0 6.627-5.373 12-12 12S0 18.627 0 12 5.373 0 12 0c3.028 0 5.794 1.122 7.906 2.972z" fill="#F2662E"/><path d="M12.25 3a.25.25 0 01.25.25v.613a.25.25 0 11-.5 0V3.25a.25.25 0 01.25-.25zm0 16.887a.25.25 0 01.25.25v.613a.25.25 0 11-.5 0v-.613a.25.25 0 01.25-.25z" fill="#F2662E"/><rect fill="#D8D8D8" transform="rotate(60 4.344 16.77)" x="3.844" y="16.271" width="1" height="1" rx=".5"/><path d="M16.742 4.237a.25.25 0 01.091.342l-.307.53a.25.25 0 11-.433-.25l.307-.53a.25.25 0 01.342-.092zM8.298 18.861a.25.25 0 01.092.342l-.307.531a.25.25 0 11-.433-.25l.307-.531a.25.25 0 01.341-.092zM21.188 12.063a.25.25 0 01-.25.25h-.614a.25.25 0 110-.5h.614a.25.25 0 01.25.25zm-16.887 0a.25.25 0 01-.25.25h-.614a.25.25 0 110-.5h.614a.25.25 0 01.25.25zM19.95 16.554a.25.25 0 01-.341.092l-.531-.307a.25.25 0 11.25-.433l.531.307a.25.25 0 01.091.341zM5.326 8.111a.25.25 0 01-.341.091l-.531-.306a.25.25 0 11.25-.433l.53.306a.25.25 0 01.092.342zM16.633 19.825a.25.25 0 01-.341-.091l-.307-.531a.25.25 0 01.433-.25l.307.531a.25.25 0 01-.092.341zM8.19 5.201a.25.25 0 01-.341-.091l-.307-.531a.25.25 0 01.433-.25l.307.53a.25.25 0 01-.092.342z" fill="#F2662E"/><path fill="#094876" d="M6 9.292l5.66 2.236L24 1 12.216 16z"/></g></g></svg>