<svg width="16" height="16" viewBox="0 0 16 16" fill="none" xmlns="http://www.w3.org/2000/svg">
<path d="M8 10C9.38071 10 10.5 8.88071 10.5 7.5C10.5 6.11929 9.38071 5 8 5C6.61929 5 5.5 6.11929 5.5 7.5C5.5 8.88071 6.61929 10 8 10Z" stroke="#3761EE" stroke-width="2" stroke-miterlimit="10"/>
<path d="M3.98773 12.4626C4.36393 11.7217 4.93796 11.0993 5.6462 10.6646C6.35444 10.2299 7.16922 9.99976 8.00023 9.99976C8.83125 9.99976 9.64603 10.2299 10.3543 10.6646C11.0625 11.0993 11.6365 11.7217 12.0127 12.4626" stroke="#3761EE" stroke-width="2" stroke-linecap="round" stroke-linejoin="round"/>
<path d="M11 3.5H14" stroke="#3761EE" stroke-width="2" stroke-linecap="round" stroke-linejoin="round"/>
<path d="M12.5 2V5" stroke="#3761EE" stroke-width="2" stroke-linecap="round" stroke-linejoin="round"/>
<path d="M13.925 7.05626C13.9755 7.36829 14.0006 7.68392 14 8.00001C14 9.1867 13.6481 10.3467 12.9888 11.3334C12.3295 12.3201 11.3925 13.0892 10.2961 13.5433C9.19975 13.9974 7.99335 14.1162 6.82946 13.8847C5.66557 13.6532 4.59648 13.0818 3.75736 12.2427C2.91825 11.4035 2.3468 10.3344 2.11529 9.17055C1.88378 8.00667 2.0026 6.80027 2.45673 5.70391C2.91085 4.60755 3.67989 3.67048 4.66658 3.01119C5.65328 2.35191 6.81331 2.00001 8 2.00001C8.3161 1.99939 8.63172 2.02447 8.94375 2.07501" stroke="#3761EE" stroke-width="2" stroke-linecap="round" stroke-linejoin="round"/>
</svg>
