<svg width="92" height="72" xmlns="http://www.w3.org/2000/svg"><g fill="#000" fill-rule="nonzero"><path d="M80.4.2H11.6C5.5.2.6 5.1.6 11.2v49.6c0 6.1 4.9 11 11 11h68.8c6.1 0 11-4.9 11-11V11.2c0-6-4.9-11-11-11zm7 60.6c0 3.9-3.1 7-7 7H11.6c-3.9 0-7-3.1-7-7V19.6h82.8v41.2zm0-45.2H4.6v-4.4c0-3.9 3.1-7 7-7h68.8c3.9 0 7 3.1 7 7v4.4z"/><circle cx="10.7" cy="10" r="3.4"/><circle cx="21" cy="10" r="3.4"/><circle cx="31.4" cy="10" r="3.4"/><path d="M59.2 57.6c.4.4.9.6 1.4.6.5 0 1-.2 1.4-.6l12.8-12.8c.8-.8.8-2 0-2.8L62 29.1c-.8-.8-2-.8-2.8 0-.8.8-.8 2 0 2.8l11.4 11.4-11.4 11.4c-.8.8-.8 2.1 0 2.9zM30 57.6c.4.4.9.6 1.4.6.5 0 1-.2 1.4-.6.8-.8.8-2 0-2.8L21.4 43.3 32.8 32c.8-.8.8-2 0-2.8-.8-.8-2-.8-2.8 0L17.2 41.9c-.8.8-.8 2 0 2.8L30 57.6zM38.2 57.9c.3.2.6.2.9.2.7 0 1.4-.4 1.8-1.1l13.8-25.6c.5-1 .2-2.2-.8-2.7s-2.2-.2-2.7.8L37.4 55.2c-.6 1-.2 2.2.8 2.7z"/></g></svg>