<svg width="68" height="49" fill="none" xmlns="http://www.w3.org/2000/svg"><path d="M32.083 7.506v20.916H14.829L32.083 7.506zm0-7.506a8.68 8.68 0 01-2.527 6.125 8.61 8.61 0 01-6.1 2.537 8.609 8.609 0 01-6.1-2.537A8.68 8.68 0 0114.828 0h17.254zm2.842 28.424c0-2.298.909-4.5 2.527-6.125a8.609 8.609 0 016.1-2.537 8.61 8.61 0 016.1 2.537 8.68 8.68 0 012.527 6.125H34.925zm0-7.506V0h17.258L34.924 20.916v.002zm9.65 25.401a3.355 3.355 0 002.39-.927l1.185 1.285c-.783.808-1.868 1.408-3.555 1.408-2.893 0-4.762-1.927-4.762-4.533a4.466 4.466 0 011.29-3.226 4.43 4.43 0 013.208-1.309c2.872 0 4.5 2.194 4.356 5.237h-6.789c.24 1.265 1.126 2.07 2.67 2.07l.006-.005zm2.061-3.516c-.184-1.18-.886-2.05-2.289-2.05-1.305 0-2.215.742-2.449 2.05h4.74-.002zM0 46.221l5.223-5.33h-5.1v-1.672h7.524v1.705l-5.224 5.328h5.298v1.674H0V46.22zm13.585.096a3.355 3.355 0 002.39-.926l1.185 1.284c-.783.808-1.868 1.408-3.555 1.408-2.892 0-4.762-1.927-4.762-4.533a4.464 4.464 0 011.29-3.226 4.428 4.428 0 013.208-1.309c2.872 0 4.5 2.195 4.356 5.238h-6.785c.24 1.264 1.126 2.07 2.67 2.07l.003-.006zm2.065-3.516c-.185-1.18-.886-2.05-2.289-2.05-1.305 0-2.215.742-2.449 2.05h4.74-.002zm13.332.747c0-2.78 2.072-4.529 4.356-4.529a3.74 3.74 0 012.892 1.307v-5.138h1.846v12.714H36.23v-1.2a3.711 3.711 0 01-2.909 1.376c-2.215 0-4.337-1.76-4.337-4.528l-.002-.002zm7.351-.016a2.772 2.772 0 00-1.75-2.502 2.743 2.743 0 00-2.976.647 2.77 2.77 0 00-.563 3.005c.21.5.563.928 1.015 1.228.451.301.98.461 1.522.461 1.587 0 2.75-1.271 2.75-2.84h.002zm13.56 2.52l1.673-.87a2.485 2.485 0 002.23 1.27c1.044 0 1.587-.537 1.587-1.148 0-.697-1.01-.853-2.108-1.081-1.476-.315-3.014-.803-3.014-2.595 0-1.377 1.305-2.65 3.36-2.631 1.618 0 2.823.645 3.506 1.686l-1.55.853a2.253 2.253 0 00-1.951-.994c-.993 0-1.499.488-1.499 1.046 0 .626.801.8 2.056 1.08 1.429.315 3.046.784 3.046 2.595 0 1.2-1.045 2.82-3.518 2.804-1.81 0-3.083-.732-3.815-2.02l-.002.005zm12.35-2.02l-1.463 1.603v2.261h-1.846V35.183h1.846v8.327l3.918-4.319h2.249l-3.397 3.725 3.485 4.982h-2.09l-2.7-3.866h-.001zm-38.84-5.015c-2.196 0-4.032 1.427-4.032 3.8v5.087h1.883v-4.852c0-1.427.817-2.283 2.214-2.283 1.398 0 2.092.852 2.092 2.283v4.852h1.871v-5.088c0-2.368-1.846-3.799-4.033-3.799" fill="#03363D"/></svg>