<svg width="400" height="400" viewBox="0 0 400 400" fill="none" xmlns="http://www.w3.org/2000/svg">
<rect width="400" height="400" rx="17" fill="white"/>
<rect width="400" height="400" fill="#3347FF"/>
<rect x="20" y="20" width="360" height="360" rx="14" fill="white" fill-opacity="0.53" stroke="white" stroke-width="12"/>
<circle cx="125" cy="125" r="78" fill="white" stroke="#3347FF" stroke-width="6"/>
<circle cx="275" cy="125" r="78" fill="white" stroke="#3347FF" stroke-width="6"/>
<path d="M194 96L200 101.8L206 96V154L200 148.2L194 154V96Z" fill="white"/>
<path d="M230 124.5C230 138.307 147.091 150 125 150C102.909 150 85 138.807 85 125C85 111.193 102.909 100 125 100C147.091 100 230 110.693 230 124.5Z" fill="#3347FF" fill-opacity="0.25"/>
<circle cx="275" cy="125" r="40" fill="#3347FF" fill-opacity="0.7"/>
<circle cx="125" cy="125" r="15" fill="#3347FF"/>
<circle cx="275" cy="125" r="15" fill="white"/>
<path d="M307.5 128.648H92" stroke="#3347FF" stroke-opacity="0.25" stroke-linecap="round"/>
<path d="M292 127V132M294 127V132M296 127V132M298 127V132M300 127V132M302 127V132M304 127V132M306 127V132M308 125V134" stroke="#3347FF" stroke-opacity="0.25" stroke-linecap="round"/>
<path d="M274 127V132M276 127V132M278 127V132M280 127V132M282 127V132M284 127V132M286 127V132M288 127V132M290 125V134" stroke="#3347FF" stroke-opacity="0.25" stroke-linecap="round"/>
<path d="M256 127V132M258 127V132M260 127V132M262 127V132M264 127V132M266 127V132M268 127V132M270 127V132M272 125V134" stroke="#3347FF" stroke-opacity="0.25" stroke-linecap="round"/>
<path d="M238 127V132M240 127V132M242 127V132M244 127V132M246 127V132M248 127V132M250 127V132M252 127V132M254 125V134" stroke="#3347FF" stroke-opacity="0.25" stroke-linecap="round"/>
<path d="M220 127V132M222 127V132M224 127V132M226 127V132M228 127V132M230 127V132M232 127V132M234 127V132M236 125V134" stroke="#3347FF" stroke-opacity="0.25" stroke-linecap="round"/>
<path d="M202 127V132M204 127V132M206 127V132M208 127V132M210 127V132M212 127V132M214 127V132M216 127V132M218 125V134" stroke="#3347FF" stroke-opacity="0.25" stroke-linecap="round"/>
<path d="M184 127V132M186 127V132M188 127V132M190 127V132M192 127V132M194 127V132M196 127V132M198 127V132M200 125V134" stroke="#3347FF" stroke-opacity="0.25" stroke-linecap="round"/>
<path d="M166 127V132M168 127V132M170 127V132M172 127V132M174 127V132M176 127V132M178 127V132M180 127V132M182 125V134" stroke="#3347FF" stroke-opacity="0.25" stroke-linecap="round"/>
<path d="M148 127V132M150 127V132M152 127V132M154 127V132M156 127V132M158 127V132M160 127V132M162 127V132M164 125V134" stroke="#3347FF" stroke-opacity="0.25" stroke-linecap="round"/>
<path d="M130 127V132M132 127V132M134 127V132M136 127V132M138 127V132M140 127V132M142 127V132M144 127V132M146 125V134" stroke="#3347FF" stroke-opacity="0.25" stroke-linecap="round"/>
<path d="M112 127V132M114 127V132M116 127V132M118 127V132M120 127V132M122 127V132M124 127V132M126 127V132M128 125V134" stroke="#3347FF" stroke-opacity="0.25" stroke-linecap="round"/>
<path d="M94 127V132M96 127V132M98 127V132M100 127V132M102 127V132M104 127V132M106 127V132M108 127V132M110 125V134" stroke="#3347FF" stroke-opacity="0.25" stroke-linecap="round"/>
<path d="M72.088 264.528C76.632 264.528 80.6 265.52 83.992 267.504C87.448 269.488 90.008 271.984 91.672 274.992V265.392L112.003 246.96L100.504 265.392V319.152C100.504 323.952 99.48 328.208 97.432 331.92C95.384 335.696 92.44 338.64 88.6 340.752C84.824 342.864 80.408 343.92 75.352 343.92C68.44 343.92 62.68 342.288 58.072 339.024C53.464 335.76 50.744 331.312 49.912 325.68H58.552C59.512 328.88 61.496 331.44 64.504 333.36C67.512 335.344 71.128 336.336 75.352 336.336C80.152 336.336 84.056 334.832 87.064 331.824C90.136 328.816 91.672 324.592 91.672 319.152V308.112C89.944 311.184 87.384 313.744 83.992 315.792C80.6 317.84 76.632 318.864 72.088 318.864C67.416 318.864 63.16 317.712 59.32 315.408C55.544 313.104 52.568 309.872 50.392 305.712C48.216 301.552 47.128 296.816 47.128 291.504C47.128 286.128 48.216 281.424 50.392 277.392C52.568 273.296 55.544 270.128 59.32 267.888C63.16 265.648 67.416 264.528 72.088 264.528ZM91.672 291.6C91.672 287.632 90.872 284.176 89.272 281.232C87.672 278.288 85.496 276.048 82.744 274.512C80.056 272.912 77.08 272.112 73.816 272.112C70.552 272.112 67.576 272.88 64.888 274.416C62.2 275.952 60.056 278.192 58.456 281.136C56.856 284.08 56.056 287.536 56.056 291.504C56.056 295.536 56.856 299.056 58.456 302.064C60.056 305.008 62.2 307.28 64.888 308.88C67.576 310.416 70.552 311.184 73.816 311.184C77.08 311.184 80.056 310.416 82.744 308.88C85.496 307.28 87.672 305.008 89.272 302.064C90.872 299.056 91.672 295.568 91.672 291.6Z" fill="white"/>
<path d="M138.211 318.864C133.283 318.864 128.803 317.744 124.771 315.504C120.803 313.264 117.667 310.096 115.363 306C113.123 301.84 112.003 297.04 112.003 291.6C112.003 286.224 113.155 281.488 115.459 277.392C117.827 273.232 121.027 270.064 125.059 267.888C129.091 265.648 133.603 264.528 138.595 264.528C143.587 264.528 148.099 265.648 152.131 267.888C156.163 270.064 159.331 273.2 161.635 277.296C164.003 281.392 165.187 286.16 165.187 291.6C165.187 297.04 163.971 301.84 161.539 306C159.171 310.096 155.939 313.264 151.843 315.504C147.747 317.744 143.203 318.864 138.211 318.864ZM138.211 311.184C141.347 311.184 144.291 310.448 147.043 308.976C149.795 307.504 152.003 305.296 153.667 302.352C155.395 299.408 156.259 295.824 156.259 291.6C156.259 287.376 155.427 283.792 153.763 280.848C152.099 277.904 149.923 275.728 147.235 274.32C144.547 272.848 141.635 272.112 138.499 272.112C135.299 272.112 132.355 272.848 129.667 274.32C127.043 275.728 124.931 277.904 123.331 280.848C121.731 283.792 120.931 287.376 120.931 291.6C120.931 295.888 121.699 299.504 123.235 302.448C124.835 305.392 126.947 307.6 129.571 309.072C132.195 310.48 135.075 311.184 138.211 311.184Z" fill="white"/>
<path d="M173.409 291.504C173.409 286.128 174.497 281.424 176.673 277.392C178.849 273.296 181.825 270.128 185.601 267.888C189.441 265.648 193.697 264.528 198.369 264.528C202.977 264.528 206.977 265.52 210.369 267.504C213.761 269.488 216.289 271.984 217.953 274.992V265.392H226.785V318H217.953V308.208C216.225 311.28 213.633 313.84 210.177 315.888C206.785 317.872 202.817 318.864 198.273 318.864C193.601 318.864 189.377 317.712 185.601 315.408C181.825 313.104 178.849 309.872 176.673 305.712C174.497 301.552 173.409 296.816 173.409 291.504ZM217.953 291.6C217.953 287.632 217.153 284.176 215.553 281.232C213.953 278.288 211.777 276.048 209.025 274.512C206.337 272.912 203.361 272.112 200.097 272.112C196.833 272.112 193.857 272.88 191.169 274.416C188.481 275.952 186.337 278.192 184.737 281.136C183.137 284.08 182.337 287.536 182.337 291.504C182.337 295.536 183.137 299.056 184.737 302.064C186.337 305.008 188.481 307.28 191.169 308.88C193.857 310.416 196.833 311.184 200.097 311.184C203.361 311.184 206.337 310.416 209.025 308.88C211.777 307.28 213.953 305.008 215.553 302.064C217.153 299.056 217.953 295.568 217.953 291.6Z" fill="white"/>
<path d="M266 232L250.284 318H241.548V246.96L266 232Z" fill="white"/>
<path d="M267.957 318.576C266.293 318.576 264.885 318 263.733 316.848C262.581 315.696 262.005 314.288 262.005 312.624C262.005 310.96 262.581 309.552 263.733 308.4C264.885 307.248 266.293 306.672 267.957 306.672C269.557 306.672 270.901 307.248 271.989 308.4C273.141 309.552 273.717 310.96 273.717 312.624C273.717 314.288 273.141 315.696 271.989 316.848C270.901 318 269.557 318.576 267.957 318.576Z" fill="white"/>
<path d="M294.065 246.96V318H285.329L271 232L294.065 246.96Z" fill="white"/>
<path d="M354.267 265.392L322.586 342.768H313.562L323.931 317.424L302.714 265.392H312.41L328.923 308.016L345.242 265.392L369.5 246.96L354.267 265.392Z" fill="white"/>
</svg>
